<?xml version="1.0" encoding="UTF-8"?> <svg xmlns="http://www.w3.org/2000/svg" viewBox="0 0 50.26 50.26"><defs><style>.cls-1{fill:#2f266f;}.cls-2{fill:#fff;}</style></defs><g id="Layer_2" data-name="Layer 2"><g id="Layer_1-2" data-name="Layer 1"><path class="cls-1" d="M25.13,50.26A25.13,25.13,0,1,0,0,25.13,25.13,25.13,0,0,0,25.13,50.26"></path><path class="cls-2" d="M25.13,37.81a6.71,6.71,0,0,1-2.58-.51L9,31.64A2.49,2.49,0,0,1,9,27l13.59-5.66a6.66,6.66,0,0,1,5.16,0L41.3,27a2.49,2.49,0,0,1,0,4.6L27.71,37.3A6.71,6.71,0,0,1,25.13,37.81Z"></path><path class="cls-1" d="M25.13,22.36a5.22,5.22,0,0,1,2,.4l13.59,5.66a1,1,0,0,1,0,1.83L27.14,35.91a5.22,5.22,0,0,1-2,.4,5.14,5.14,0,0,1-2-.4L9.54,30.25a1,1,0,0,1,0-1.83l13.59-5.66a5.14,5.14,0,0,1,2-.4m0-3A8.09,8.09,0,0,0,22,20L8.38,25.65a4,4,0,0,0,0,7.37L22,38.68a8.09,8.09,0,0,0,3.15.63,8.18,8.18,0,0,0,3.16-.63L41.88,33a4,4,0,0,0,0-7.37L28.29,20a8.18,8.18,0,0,0-3.16-.63Z"></path><path class="cls-2" d="M25.13,28.9a6.71,6.71,0,0,1-2.58-.51L9,22.73a2.49,2.49,0,0,1,0-4.6l13.59-5.66a6.66,6.66,0,0,1,5.16,0L41.3,18.13a2.49,2.49,0,0,1,0,4.6L27.71,28.39A6.71,6.71,0,0,1,25.13,28.9Z"></path><path class="cls-1" d="M25.13,13.45a5.22,5.22,0,0,1,2,.4l13.59,5.66a1,1,0,0,1,0,1.83L27.14,27a5.22,5.22,0,0,1-2,.4,5.14,5.14,0,0,1-2-.4L9.54,21.34a1,1,0,0,1,0-1.83l13.59-5.66a5.14,5.14,0,0,1,2-.4m0-3a8.09,8.09,0,0,0-3.15.63L8.38,16.74a4,4,0,0,0,0,7.37L22,29.77a8.09,8.09,0,0,0,3.15.63,8.18,8.18,0,0,0,3.16-.63l13.59-5.66a4,4,0,0,0,0-7.37L28.29,11.08a8.18,8.18,0,0,0-3.16-.63Z"></path></g></g></svg> 