<svg xmlns="http://www.w3.org/2000/svg" id="Layer_2" data-name="Layer 2" viewBox="0 0 90.29 90.29"><defs><style> .cls-1 { fill: none; } .cls-2 { fill: #fff; } .cls-3 { fill: #47c7ea; } </style></defs><g id="Layer_1-2" data-name="Layer 1"><g><rect class="cls-1" width="90.29" height="90.29"></rect><g><path class="cls-3" d="m39.64,44.92v-3.58c.52-1.33,4.13-6.57,4.13-14.77,0-4.85-1.28-9.64-3.72-13.83-.71-1.23-2.06-1.99-3.53-1.99h-13.03c-1.47,0-2.82.76-3.53,1.99-2.43,4.2-3.72,8.98-3.72,13.83,0,8.21,3.61,13.45,4.13,14.77v3.58l-7.02,21.07c-.82,2.45-1.23,5.01-1.23,7.6,0,3.28,2.67,5.96,5.96,5.96,2.81,0,5.21-1.92,5.82-4.67l6.12-27.52,6.12,27.52c.61,2.75,3,4.67,5.82,4.67,3.28,0,5.96-2.67,5.96-5.96,0-2.59-.41-5.14-1.23-7.6l-7.02-21.07Zm-1.97-30.81c2.19,3.78,3.35,8.09,3.35,12.45,0,7.55-3.35,12.26-3.98,13.83-.1.19-.15.4-.15.62v3l-4.6.92-.9-4.07v-6.93c2.37-.62,4.13-2.75,4.13-5.31,0-2.2-1.31-4.09-3.18-4.97,0,0,0,0,0-.01l-1.79-2.24,1.79-2.24c.4-.5.4-1.22,0-1.72l-1.79-2.23,1.38-1.72h4.62c.49,0,.93.24,1.15.62Zm-4.91,14.52c0,1.52-1.23,2.75-2.75,2.75s-2.75-1.23-2.75-2.75,1.23-2.75,2.75-2.75,2.75,1.23,2.75,2.75Zm-13.76-2.06c0-4.37,1.16-8.67,3.35-12.45.22-.38.66-.62,1.15-.62h4.89l-.69.86c-.4.5-.4,1.22,0,1.72l1.79,2.23-1.79,2.24c-.4.5-.4,1.21,0,1.72l.86,1.08c-2.33.64-4.06,2.76-4.06,5.29s1.76,4.69,4.13,5.31v6.93l-.9,4.07-4.6-.92v-3c0-.21-.05-.42-.15-.62-.62-1.57-3.98-6.3-3.98-13.83Zm2.21,47.72c-.33,1.48-1.62,2.51-3.13,2.51-1.77,0-3.2-1.44-3.2-3.2,0-2.29.37-4.55,1.09-6.73l6.71-20.13,4.46.89-5.92,26.66Zm20.73,2.51c-1.51,0-2.8-1.03-3.13-2.51l-5.92-26.66,4.46-.89,6.71,20.13c.72,2.17,1.09,4.43,1.09,6.73,0,1.77-1.44,3.2-3.2,3.2Z"></path><g><path class="cls-2" d="m69,11.54c-.89-.32-1.84.34-1.84,1.3v6.19c0,.43.2.84.55,1.1,1.4,1.06,2.21,2.65,2.21,4.38,0,3.04-2.47,5.5-5.5,5.5s-5.5-2.47-5.5-5.5c0-1.71.8-3.3,2.18-4.36.34-.26.54-.67.54-1.09v-6.2c0-.95-.94-1.61-1.84-1.3-5.47,1.95-9.14,7.16-9.14,12.95,0,3.09,1.03,5.93,2.76,8.23,0,0,0,.02,0,.03v4.13c0,.37.15.71.4.97l3.72,3.73v31.08c0,1.79,1.15,3.3,2.75,3.87v1.63c0,.76.62,1.38,1.38,1.38s1.38-.62,1.38-1.38v-1.38h2.75v1.38c0,.76.62,1.38,1.38,1.38s1.38-.62,1.38-1.38v-1.63c1.6-.57,2.75-2.08,2.75-3.87v-31.08l3.72-3.73c.26-.26.4-.61.4-.97v-4.13s0-.02,0-.03c1.72-2.3,2.76-5.14,2.76-8.23,0-5.81-3.69-11.02-9.17-12.96Zm-10.12,3.46v3.41c-1.74,1.57-2.73,3.75-2.73,6.1,0,4.55,3.7,8.26,8.26,8.26s8.26-3.7,8.26-8.26c0-2.36-.99-4.55-2.75-6.12v-3.4c3.36,1.94,5.5,5.56,5.5,9.52,0,6.07-4.94,11.01-11.01,11.01s-11.01-4.94-11.01-11.01c0-3.95,2.14-7.56,5.48-9.5Zm8.28,59.04h-5.5c-.76,0-1.38-.62-1.38-1.38v-12.42c1.15.87,2.57,1.41,4.13,1.41s2.97-.54,4.13-1.41v12.42c0,.76-.62,1.38-1.38,1.38Zm-6.88-19.26c0-2.28,1.85-4.13,4.13-4.13s4.13,1.85,4.13,4.13-1.85,4.13-4.13,4.13-4.13-1.85-4.13-4.13Zm8.66-14.73c-.26.26-.4.61-.4.97v8.29c-1.15-.87-2.57-1.41-4.13-1.41s-2.97.54-4.13,1.41v-8.29c0-.37-.15-.71-.4-.97l-3.72-3.73v-.83c2.3,1.74,5.16,2.78,8.26,2.78s5.95-1.04,8.26-2.78v.83l-3.72,3.73Z"></path><path class="cls-2" d="m64.41,64.41c-.76,0-1.38.62-1.38,1.38v4.13c0,.76.62,1.38,1.38,1.38s1.38-.62,1.38-1.38v-4.13c0-.76-.62-1.38-1.38-1.38Z"></path></g></g></g></g></svg>