<svg xmlns="http://www.w3.org/2000/svg" xmlns:xlink="http://www.w3.org/1999/xlink" id="b" viewBox="0 0 173.35 85.5"><defs><style>.e{fill:none;}.f{fill:#005487;}.g{fill:#db871a;}.h{clip-path:url(#d);}.i{fill:#008c54;}</style><clipPath id="d"><rect class="e" x="15.49" y="27.03" width="142.36" height="31.44"></rect></clipPath></defs><g id="c"><polygon class="f" points="48.81 29.65 48.81 36.15 55.58 36.15 55.58 29.65 59.69 29.65 59.69 46.55 55.58 46.55 55.58 39.48 48.81 39.48 48.81 46.55 44.68 46.55 44.68 29.65 48.81 29.65 48.81 29.65"></polygon><path class="f" d="M67.49,46.55v-6.92l-5.75-9.97h4.7l1.86,4.06c.57,1.23.94,2.13,1.4,3.23h.05c.4-1.05.84-2.03,1.38-3.23l1.84-4.06h4.62l-5.99,9.85v7.04h-4.1Z"></path><path class="f" d="M83.66,29.65v9.72c0,2.91,1.19,4.39,3.29,4.39s3.35-1.4,3.35-4.39v-9.72h4.1v9.47c0,5.21-2.83,7.69-7.59,7.69s-7.29-2.36-7.29-7.74v-9.42h4.13Z"></path><path class="f" d="M97.49,46.55v-16.89h4.8l3.78,6.19c1.08,1.78,2.16,3.88,2.97,5.79h.08c-.27-2.23-.35-4.51-.35-7.07v-4.91h3.78v16.89h-4.32l-3.89-6.52c-1.08-1.8-2.27-3.98-3.16-5.96l-.08.02c.11,2.23.16,4.61.16,7.37v5.09h-3.78Z"></path><path class="f" d="M120.24,43.66c.35.08.92.08,1.43.08,3.73.03,6.15-1.88,6.15-5.91.03-3.51-2.19-5.36-5.72-5.36-.92,0-1.51.08-1.86.15v11.05h0ZM116.11,29.88c1.51-.23,3.48-.35,5.56-.35,3.46,0,5.7.58,7.45,1.8,1.89,1.3,3.08,3.38,3.08,6.37,0,3.23-1.27,5.46-3.02,6.84-1.92,1.48-4.83,2.18-8.4,2.18-2.13,0-3.64-.13-4.67-.25v-16.59h0Z"></path><path class="f" d="M144.11,39.35l-1.22-3.58c-.35-1-.7-2.26-.99-3.26h-.06c-.29,1-.58,2.28-.9,3.26l-1.16,3.58h4.33ZM139.14,42.21l-1.4,4.34h-4.59l5.99-16.89h5.82l6.08,16.89h-4.77l-1.51-4.34h-5.61Z"></path><polygon class="f" points="157.85 29.65 157.85 46.55 153.72 46.55 153.72 29.65 157.85 29.65 157.85 29.65"></polygon><polygon class="f" points="49.77 54.72 46.63 54.72 46.63 56.74 50.14 56.74 50.14 58.33 44.69 58.33 44.69 49.79 49.96 49.79 49.96 51.37 46.63 51.37 46.63 53.15 49.77 53.15 49.77 54.72 49.77 54.72"></polygon><path class="f" d="M51.46,58.33v-8.54h2.26l1.77,3.13c.51.9,1.01,1.96,1.39,2.93h.04c-.13-1.13-.16-2.28-.16-3.57v-2.48h1.77v8.54h-2.03l-1.82-3.29c-.51-.91-1.06-2.01-1.48-3.01h-.04c.05,1.14.08,2.34.08,3.74v2.57h-1.77Z"></path><polygon class="f" points="65.28 54.72 62.14 54.72 62.14 56.74 65.65 56.74 65.65 58.33 60.2 58.33 60.2 49.79 65.47 49.79 65.47 51.37 62.14 51.37 62.14 53.15 65.28 53.15 65.28 54.72 65.28 54.72"></polygon><path class="f" d="M68.88,53.58h.76c.96,0,1.53-.48,1.53-1.23,0-.79-.53-1.18-1.42-1.19-.47,0-.74.04-.87.06v2.36h0ZM66.97,49.9c.62-.1,1.55-.18,2.57-.18,1.27,0,2.15.19,2.76.67.51.41.79,1,.79,1.79,0,1.09-.77,1.84-1.51,2.1v.04c.6.24.92.81,1.14,1.6.27.96.53,2.08.7,2.41h-1.98c-.14-.25-.34-.94-.6-1.99-.23-1.06-.6-1.36-1.38-1.37h-.58v3.36h-1.91v-8.42h0Z"></path><path class="f" d="M81.57,57.94c-.6.2-1.72.48-2.85.48-1.56,0-2.69-.39-3.47-1.15-.79-.73-1.22-1.85-1.2-3.1.01-2.84,2.08-4.46,4.88-4.46,1.1,0,1.95.22,2.37.42l-.41,1.55c-.47-.2-1.05-.37-1.99-.37-1.61,0-2.83.91-2.83,2.76s1.1,2.8,2.69,2.8c.44,0,.8-.05.95-.13v-1.79h-1.32v-1.51h3.18v4.5h0Z"></path><path class="f" d="M85.05,58.33v-3.5l-2.7-5.04h2.2l.87,2.05c.27.62.44,1.08.66,1.63h.03c.19-.53.39-1.03.65-1.63l.86-2.05h2.17l-2.81,4.98v3.56h-1.93Z"></path><path class="f" d="M93.34,56.34c.52.27,1.32.53,2.14.53.89,0,1.36-.37,1.36-.92s-.41-.84-1.43-1.2c-1.42-.49-2.34-1.28-2.34-2.52,0-1.46,1.22-2.57,3.23-2.57.96,0,1.67.2,2.18.43l-.43,1.56c-.34-.16-.95-.41-1.79-.41s-1.24.38-1.24.82c0,.54.48.79,1.58,1.2,1.51.56,2.22,1.34,2.22,2.55,0,1.43-1.1,2.66-3.45,2.66-.98,0-1.94-.27-2.42-.53l.39-1.6h0Z"></path><path class="f" d="M101.77,54.08c0,1.67.78,2.85,2.08,2.85s2.05-1.24,2.05-2.9c0-1.53-.73-2.85-2.07-2.85s-2.06,1.24-2.06,2.9h0ZM107.94,53.97c0,2.8-1.7,4.5-4.19,4.5s-4.02-1.91-4.02-4.35c0-2.56,1.63-4.47,4.16-4.47s4.05,1.96,4.05,4.32h0Z"></path><polygon class="f" points="109.21 49.79 111.14 49.79 111.14 56.71 114.54 56.71 114.54 58.33 109.21 58.33 109.21 49.79 109.21 49.79"></polygon><path class="f" d="M117.22,49.79v4.92c0,1.47.56,2.22,1.55,2.22s1.57-.71,1.57-2.22v-4.92h1.93v4.79c0,2.63-1.33,3.89-3.56,3.89s-3.42-1.19-3.42-3.91v-4.76h1.94Z"></path><polygon class="f" points="125.58 51.41 123.29 51.41 123.29 49.79 129.85 49.79 129.85 51.41 127.52 51.41 127.52 58.33 125.58 58.33 125.58 51.41 125.58 51.41"></polygon><polygon class="f" points="132.81 49.79 132.81 58.33 130.88 58.33 130.88 49.79 132.81 49.79 132.81 49.79"></polygon><path class="f" d="M136.13,54.08c0,1.67.79,2.85,2.08,2.85s2.05-1.24,2.05-2.9c0-1.53-.74-2.85-2.06-2.85s-2.06,1.24-2.06,2.9h0ZM142.3,53.97c0,2.8-1.7,4.5-4.19,4.5s-4.02-1.91-4.02-4.35c0-2.56,1.63-4.47,4.15-4.47s4.05,1.96,4.05,4.32h0Z"></path><path class="f" d="M143.57,58.33v-8.54h2.26l1.77,3.13c.51.9,1.01,1.96,1.39,2.93h.04c-.13-1.13-.16-2.28-.16-3.57v-2.48h1.77v8.54h-2.03l-1.82-3.29c-.51-.91-1.06-2.01-1.48-3.01h-.04c.05,1.14.08,2.34.08,3.74v2.57h-1.77Z"></path><g class="h"><path class="f" d="M152.38,56.34c.52.27,1.32.53,2.14.53.89,0,1.36-.37,1.36-.92s-.41-.84-1.43-1.2c-1.42-.49-2.34-1.28-2.34-2.52,0-1.46,1.22-2.57,3.23-2.57.96,0,1.67.2,2.18.43l-.43,1.56c-.34-.16-.95-.41-1.79-.41s-1.24.38-1.24.82c0,.54.48.79,1.58,1.2,1.51.56,2.22,1.34,2.22,2.55,0,1.43-1.1,2.66-3.45,2.66-.98,0-1.94-.27-2.42-.53l.39-1.6h0Z"></path><polygon class="g" points="26.8 27.03 15.49 46.65 37.94 46.65 26.8 27.03 26.8 27.03 26.8 27.03"></polygon></g><polygon class="i" points="18.01 46.65 40.45 46.65 29.31 27.03 18.01 46.65 18.01 46.65"></polygon><rect class="e" width="173.35" height="85.5"></rect></g></svg>