<svg xmlns="http://www.w3.org/2000/svg" xmlns:xlink="http://www.w3.org/1999/xlink" id="b" viewBox="0 0 561.49 51.11"><defs><style>.f,.g{fill:none;}.h{fill:url(#e);}.g{stroke:#44c5e9;stroke-miterlimit:10;}.i{fill:#ffac05;}.i,.j,.k{fill-rule:evenodd;}.j{fill:#c35e25;}.k,.l{fill:#9f2726;}.m{clip-path:url(#d);}.n{fill:#002e6e;}</style><clipPath id="d"><path class="f" d="M401.19,50.21c.08.14.45.36,1.09.56.25.08.45.12.61.15.37.06.47.08.79.12-.22-.05-.37-.12-.69-.31-.41-.24-.56-.32-.89-.46-.3-.12-.51-.18-.66-.19-.25-.03-.3.05-.25.13M404.1,50.62s0,.04.01.06c.22.75,1.62.34,1.87-.12.13-.24-.03-.4-.1-.47-.16-.12-.35-.18-.55-.21-.63-.08-1.31.3-1.24.74M396.59,48.12c.05.23.53.68,1.48,1.2,1.06.57,2.36,1.01,2.56.98,0,0,0-.02,0-.03-.03-.04-1.49-1.28-2.82-1.98-.46-.22-.75-.31-.93-.33-.32-.04-.3.14-.29.17M407.9,50.49c-.78.49-.7.52-.64.54.33.11,3.64-.46,3.78-1.34-.03-.11-.14-.18-.33-.2-.52-.06-1.58.23-2.81,1M400.56,48.52c.05.16.15.33.29.51.85,1.06,2.64,1.63,2.75.36.03-.3-.06-.88-.91-1.44-.37-.2-.72-.31-1.02-.35-.8-.1-1.31.31-1.11.93M416.06,48.76c-.62.08-1.57.49-3.47,1.3-.53.23-1.12.32-1.6.68.16.15,4.15-.76,5.29-1.79.05-.05.15-.18-.02-.2-.04,0-.11,0-.19,0M406.29,48.71c-.27,1.23,1.06,1.57,2.54.64.16-.1,1.55-1.01.81-1.89-.23-.19-.51-.3-.81-.34-1.03-.13-2.32.56-2.54,1.58M391.3,45.08c.1.31.65.96,1.67,1.72,1.31.98,2.99,1.81,2.92,1.51-.05-.2-1.84-2.01-3.4-3.04-.51-.31-.8-.43-.98-.45-.28-.03-.23.18-.21.25M395.27,45.22c.05.23.19.6.6,1.08,1.1,1.32,3.25,2.4,3.36,1.11.04-.48-.27-1.65-1.75-2.65-.49-.29-.91-.44-1.24-.48-.76-.09-1.09.36-.97.93M412.83,48.14c-.2.21-1.12,1.24-.24,1.25,1.17.02,4.4-1.6,4.27-2.77-.08-.18-.25-.28-.48-.31-.83-.1-2.47.68-3.55,1.82M402.1,45.86c.45,1.82,3.14,2.55,4.16.68.21-.38.57-1.37-.58-2.29-.43-.28-.86-.43-1.28-.48-1.43-.18-2.61.85-2.3,2.09M386.43,41.02c.04.31.67,1.25,1.77,2.37,1.15,1.18,2.43,2.16,2.59,2.05.02-.27-2.29-2.94-3.48-4.02-.39-.34-.66-.52-.78-.53-.07,0-.1.03-.09.13M422.18,45.1c-.69.28-1.87,1.05-3.16,2.05-1.68,1.31-1.44,1.35-1.35,1.36.49.07,4.18-1.84,5.06-3.24.08-.18.06-.27-.07-.29-.1-.01-.26.03-.48.12M389.52,41.09c.07.44.35,1.01.75,1.56,1.13,1.55,3.29,3.01,3.44,1.73.07-.62-.5-2.32-2.2-3.67-.52-.37-.93-.54-1.24-.58-.63-.08-.85.41-.75.95M410.42,45.26c-.45,1.49.82,2.4,2.77,1.34,1.16-.63,2.46-2.08,1.61-3.19-.28-.25-.61-.39-.97-.44-1.32-.16-3,.95-3.4,2.29M396.09,41.59c.03.14.09.33.14.47.82,2.1,3.73,3.23,4.63,1.3.08-.18.75-1.77-1.23-3.26-.54-.34-1.06-.53-1.53-.58-1.36-.17-2.28.76-2.02,2.07M418.68,44.25c-.69,1.06-.81,2.05.34,1.8,1.53-.34,4.18-2.61,3.9-3.98-.11-.24-.3-.36-.55-.39-.96-.12-2.74,1.13-3.68,2.57M405.58,41.45c.06,2.19,2.98,3.3,4.79,1.23.59-.68,1.23-2.15-.11-3.35-.44-.31-.91-.48-1.38-.54-1.69-.21-3.34,1.09-3.3,2.67M384.47,36.03c.01.56.3,1.4.77,2.25,1,1.79,2.64,3.27,2.85,2.3.14-.65-.57-2.95-2.11-4.59-.46-.44-.78-.61-1-.64-.51-.06-.5.65-.5.69M428,39.78c-.49.22-1.7,1.44-2.86,2.9-.38.47-1.56,1.99-1.11,1.89.58-.13,3.36-2.86,4.13-4.48.04-.12.12-.33,0-.35-.03,0-.08,0-.15.04M389.87,36.67c.03.23.12.57.21.82.83,2.22,3.41,3.69,4.3,1.95.42-.81.42-2.68-1.35-4.23-.53-.4-1.03-.6-1.47-.66-1.15-.14-1.88.77-1.69,2.11M415.7,40.49c-.53,2,1.05,2.97,2.96,1.81,1.41-.85,2.75-2.87,1.75-4.23-.3-.29-.65-.45-1.03-.5-1.44-.18-3.23,1.24-3.68,2.92M398.99,36.8c.44,2.76,4.21,3.78,5.68,1.54.51-.77.9-2.46-.84-3.88-.59-.39-1.18-.61-1.74-.67-1.89-.23-3.39,1.19-3.1,3.02M381.28,30.28c-.1.45.17,1.77.63,3.13.63,1.83,1.43,3.23,1.61,2.81.2-.44-.57-3.54-1.55-5.44-.11-.19-.37-.65-.55-.67-.06,0-.11.04-.14.17M424.47,38.99c-.72,1.69-.39,2.68.72,2.18,1.36-.62,3.4-3.36,3.01-4.97-.12-.27-.3-.41-.53-.44-.89-.11-2.45,1.46-3.2,3.23M410.42,35.93c-.11,2.54,2.8,3.66,4.79,1.84,1.04-.95,1.83-2.96.31-4.44-.46-.35-.95-.54-1.44-.6-1.8-.22-3.58,1.32-3.66,3.2M384.6,31.14c0,.38.06.79.17,1.21.62,2.42,2.5,3.84,3.35,2.52.6-.93.53-3.32-.95-5.08-.44-.44-.84-.66-1.2-.7-.84-.1-1.4.77-1.37,2.05M392.3,31.5c.4,2.8,3.47,4.15,5.06,2.22.75-.91,1.23-3.02-.67-4.79-.55-.42-1.1-.64-1.61-.71-1.71-.21-3.05,1.33-2.77,3.28M421.14,34.56c-.37,2.28,1.13,3.45,2.88,2.24,1.36-.95,2.63-3.49,1.44-5.17-.31-.32-.65-.49-1.01-.54-1.39-.17-2.98,1.52-3.3,3.47M403.57,30.66c.13,2.89,3.62,4.22,5.66,2.16,1.02-1.03,1.61-3.22-.26-4.89-.55-.4-1.13-.62-1.69-.69-1.99-.24-3.79,1.38-3.7,3.41M381.54,24.4c-.09.31-.28,1.18-.18,2.45.18,2.32,1.14,3.86,1.83,2.95.62-.81.83-3.71-.08-5.74-.26-.49-.51-.7-.72-.72-.41-.05-.72.56-.86,1.06M386.8,25.47c0,.1,0,.23,0,.33.07,2.66,2.2,4.24,3.73,2.78,1.18-1.12,1.48-3.77.12-5.51-.44-.45-.89-.68-1.33-.73-1.3-.16-2.44,1.25-2.52,3.13M415.63,29.44c-.04,2.8,2.68,4.1,4.61,2.21,1.31-1.28,1.68-3.68.15-5.22-.44-.35-.9-.54-1.35-.6-1.74-.21-3.39,1.54-3.41,3.61M396.5,24.86c0,3.06,3.49,4.55,5.57,2.38,1.02-1.07,1.61-3.35-.29-5.08-.57-.42-1.16-.65-1.72-.72-1.91-.23-3.56,1.35-3.55,3.41M380.57,22.42s0-.04,0-.05c0,.09-.02.17-.02.26l.02-.2ZM381.06,19.26c-.06.35-.13.74-.2,1.14.06-.4.13-.79.2-1.14-.13.62-.25,1.28-.35,1.98-.04.29-.08.57-.11.85-.01.11-.02.22-.04.32l-.02.2c0,.1-.02.2-.02.3-.1,1.41.01,1.54.06,1.59.42-.17,1.07-4.3,1.1-6.08,0-.41-.02-.57-.1-.66-.08.03-.22.08-.54,1.5M408.81,23.84c.09,2.89,3.32,4.36,5.32,2.42,1.14-1.11,1.69-3.54-.25-5.22-.52-.37-1.05-.57-1.57-.63-1.9-.23-3.57,1.41-3.51,3.43M383.61,19.37c-.05.19-.11.44-.14.63-.39,2.38.64,4,1.92,3.05,1.12-.83,2.15-3.69,1.3-5.65-.25-.44-.54-.65-.85-.69-.87-.11-1.84,1.19-2.24,2.66M390.97,19.09c-.37,2.64,1.9,4.22,3.93,2.73,1.5-1.11,2.16-3.58.78-5.22-.44-.42-.91-.64-1.38-.7-1.57-.19-3.09,1.45-3.33,3.19M401.8,18.26c-.11,2.71,3.23,4.24,5.34,2.44,1.36-1.17,1.66-3.42-.08-4.93-.51-.36-1.03-.55-1.56-.62-1.87-.23-3.63,1.25-3.71,3.11M384.5,12.01c-.53.53-1.16,1.57-1.6,2.66-.74,1.8-.8,3.23-.14,3,.86-.3,2.52-3.48,2.63-5.41,0-.42-.12-.59-.27-.61-.17-.02-.41.15-.62.36M387.79,13.74c-.81,2.13.24,3.64,1.94,2.79,1.57-.79,2.91-3.37,2.19-5.04-.23-.38-.54-.57-.88-.62-1.13-.14-2.66,1.33-3.24,2.87M396.36,13c-.58,2.34,1.77,3.82,3.92,2.46,1.55-.98,2.28-3.17.93-4.66-.39-.34-.82-.52-1.26-.58-1.56-.19-3.22,1.25-3.59,2.77M387.12,7.36c-1.6,1.95-1.85,2.25-2.46,3.24-.35.59-.83,1.37-1.15,1.97,0,.01-.01.03-.02.05q.1-.08,3.38-4.82c.2-.29.26-.37.31-.47-.01,0-.03.02-.05.03M388.33,7.83c-.35.35-.73.79-1.01,1.18-1.08,1.53-1.2,2.81-.24,2.63,1.3-.25,3.53-2.99,3.73-4.59,0-.34-.13-.5-.33-.52-.54-.07-1.59.75-2.15,1.31M393.42,8.33c-.98,1.69-.14,3.03,1.57,2.5,1.88-.58,3.38-2.94,2.77-4.36-.19-.3-.47-.46-.79-.5-1.12-.14-2.82,1.09-3.55,2.36M389.53,5.07c-1.37,1.21-2.1,2.21-1.74,2.18.6-.05,3.69-2.83,4.59-3.82.19-.22.23-.29.23-.37,0,0-.02-.01-.04-.01-.3-.04-1.7.84-3.04,2.02M393.66,4.05c-.14.11-.32.26-.45.38-1.31,1.21-1.38,2.15-.56,2.15,1.38,0,4.04-2.35,4.42-3.63.03-.25-.08-.37-.29-.39-.65-.08-2.2.76-3.12,1.49M395.54,1.45c-1.45.76-2.26,1.52-1.91,1.6.72.17,5.3-2.62,5.34-2.65.18-.13.21-.15.24-.21-.01-.01-.04-.02-.07-.03-.41-.05-2.19.55-3.6,1.29"></path></clipPath><radialGradient id="e" cx="-2139.92" cy="429.73" fx="-2139.92" fy="429.73" r=".41" gradientTransform="translate(-25362.29 128340.43) rotate(90) scale(59.96 -59.96)" gradientUnits="userSpaceOnUse"><stop offset="0" stop-color="#44c5e9"></stop><stop offset="1" stop-color="#2f266f"></stop></radialGradient></defs><g id="c"><path class="k" d="M5.3,40.44l16.15.07c-.97-1.71-2.17-3.27-3.71-4.61-.48-.42-1.05-.6-1.69-.55l-16.05-.07c.84,1.88,1.99,3.49,3.64,4.64.56.38.62.52,1.65.53Z"></path><path class="l" d="M76.93,21.17c-.12-.25-.26-.48-.4-.71-.36-.58-.75-1.08-1.18-1.5-.65-.65-1.32-1.14-2.02-1.47-.7-.34-1.39-.57-2.07-.69-.68-.12-1.32-.18-1.91-.17-.45,0-.95.02-1.49.09-.55.07-1.12.2-1.73.39-.6.19-1.21.49-1.83.88-.62.39-1.22.91-1.81,1.55-.21.21-.47.55-.79,1.01-.32.46-.65,1.06-.97,1.79-.32.73-.6,1.61-.82,2.64-.22,1.03-.33,2.22-.34,3.58,0,.36.01.82.05,1.4.03.57.11,1.21.24,1.92.12.71.31,1.44.56,2.2.26.76.6,1.5,1.03,2.23.35.59.77,1.15,1.26,1.69.49.54,1.07,1.02,1.72,1.45.66.42,1.4.76,2.24,1.01.84.25,1.78.37,2.82.38.68,0,1.35-.07,2.02-.22.67-.15,1.32-.41,1.96-.78.64-.37,1.26-.87,1.86-1.5.43-.45.82-.96,1.18-1.54.13-.22.26-.44.38-.68l-3.19-2.18c-.03.08-.07.16-.1.24-.26.6-.57,1.11-.92,1.55-.46.57-.97.99-1.54,1.26-.57.28-1.18.42-1.84.42-.6,0-1.13-.1-1.6-.3-.47-.19-.88-.45-1.23-.75-.36-.31-.66-.66-.91-1.03-.25-.38-.46-.74-.62-1.11-.16-.36-.32-.79-.45-1.3-.13-.51-.24-1.11-.32-1.83-.08-.71-.12-1.55-.12-2.53,0-.66.02-1.32.07-1.96.05-.64.15-1.27.3-1.87.14-.61.35-1.19.62-1.75.45-.98,1.02-1.71,1.71-2.19.68-.49,1.53-.73,2.52-.73.83,0,1.55.17,2.16.53.61.35,1.14.91,1.61,1.66.23.36.43.75.58,1.18l3.32-2.26Z"></path><path class="l" d="M101.02,40.48v-9.74c0-.49.03-.97.09-1.45.07-.49.19-.95.38-1.41.18-.45.46-.87.82-1.26.16-.18.35-.34.58-.5.22-.15.47-.28.77-.38.29-.1.62-.15.98-.15.18,0,.37.01.6.05.22.04.44.13.67.25.22.13.44.31.63.56.2.27.35.58.43.91.09.33.14.68.16,1.03.02.36.03.72.02,1.07v11h3.55v-11.86c0-.8-.07-1.49-.2-2.08-.13-.59-.3-1.09-.5-1.49-.2-.4-.42-.72-.65-.96-.3-.33-.65-.61-1.05-.82-.39-.21-.81-.37-1.24-.47-.44-.1-.87-.15-1.29-.15-.8,0-1.51.15-2.14.45-.63.29-1.18.68-1.64,1.18-.46.5-.85,1.07-1.14,1.7h-.06v-2.98h-3.31v17.48h3.55Z"></path><path class="l" d="M142.01,18.59v6.44c-.15-.24-.32-.47-.52-.7-.19-.22-.43-.43-.7-.64-.5-.37-1.01-.64-1.51-.8-.51-.15-1.02-.23-1.56-.23-.81-.01-1.59.15-2.33.49-.74.34-1.42.89-2.05,1.67-.33.41-.65.93-.94,1.55-.3.62-.54,1.38-.72,2.27-.19.89-.29,1.94-.29,3.13,0,.91.07,1.73.18,2.45.12.71.27,1.33.45,1.86.18.53.36.97.55,1.33.19.36.35.64.49.85.48.7.99,1.24,1.52,1.61.53.37,1.06.63,1.58.77.52.14,1.01.2,1.46.19.6,0,1.19-.1,1.78-.31.59-.21,1.13-.54,1.62-.99.49-.45.89-1.03,1.19-1.75l-.27-.07.33,2.78h3.28v-24.32l-3.55,2.42h0ZM141.68,33.39c0,.99-.3,2.18-.83,3.02-.56.89-1.51,1.46-2.54,1.47-1.25.01-2.11-.77-2.63-1.89-.31-.67-.47-1.39-.59-2.12-.1-.62-.17-1.39-.17-2.3,0-.79.09-1.57.25-2.34.23-1.08.74-2.24,1.66-2.87.44-.3.96-.44,1.57-.44.99,0,1.8.4,2.39,1.23.27.38.48.84.64,1.34.16.51.25,1.03.25,1.57l.02,3.32Z"></path><path class="l" d="M153.46,23h-3.55v17.48h3.55v-17.48h0ZM151.76,16.76c1.21,0,2.19.98,2.19,2.19s-.98,2.19-2.19,2.19-2.19-.98-2.19-2.19.98-2.19,2.19-2.19Z"></path><path class="l" d="M162.89,25.54c.37-.1.84-.14,1.4-.14.29,0,.6.02.93.06.33.04.64.14.95.29.31.15.57.38.79.68.13.19.23.41.31.66.08.24.13.49.16.73.04.25.06.46.07.66.01.19.01.33.01.42v.58l-1.74.03c-.37,0-.82.03-1.34.07-.52.04-1.07.1-1.65.19-.58.1-1.15.22-1.71.39-.57.17-1.08.38-1.55.65-.71.41-1.26.87-1.66,1.4-.4.53-.68,1.08-.84,1.66-.16.57-.23,1.13-.23,1.67,0,.61.09,1.22.29,1.84.19.61.5,1.18.93,1.7.43.52,1,.94,1.7,1.26.7.31,1.57.47,2.59.49.33,0,.71-.03,1.16-.1.44-.07.91-.21,1.4-.43.49-.22.96-.55,1.42-1,.46-.45.87-1.05,1.22-1.79.04.63.08,1.2.15,1.7.06.5.13.93.19,1.29h3.55c-.05-.36-.1-.75-.15-1.18-.05-.43-.1-.86-.13-1.3-.03-.44-.05-.86-.05-1.25v-7.4c0-.47-.02-.96-.05-1.45-.04-.49-.12-.98-.24-1.46-.12-.47-.31-.93-.57-1.37-.25-.43-.6-.82-1.03-1.18-.56-.44-1.23-.76-2.02-.95-.79-.19-1.67-.29-2.64-.28-.8,0-1.49.05-2.07.14-.58.09-1.06.21-1.45.34-.39.14-.71.29-.95.44-.29.16-.59.38-.91.67l1.14,2.73c.71-.6,1.69-1.22,2.62-1.44h0ZM167.51,31.98v.89c0,.37-.04.77-.12,1.19-.08.42-.19.83-.35,1.22-.15.4-.33.75-.55,1.05-.23.32-.51.61-.83.85-.33.24-.68.43-1.06.56-.38.14-.77.21-1.17.21-.24,0-.5-.03-.76-.09-.26-.06-.51-.14-.74-.26-.24-.13-.45-.28-.64-.47-.09-.08-.18-.19-.28-.33-.1-.14-.18-.33-.25-.54-.07-.21-.11-.46-.11-.74-.01-.3.04-.63.14-1.01.1-.38.3-.75.6-1.11.3-.36.75-.66,1.34-.9.33-.13.68-.22,1.08-.29.39-.07.78-.12,1.14-.15.37-.03.68-.04.93-.04l1.62-.03Z"></path><path class="l" d="M178.77,40.48v-9.74c0-.49.03-.97.09-1.45.07-.49.19-.95.38-1.41.18-.45.46-.87.82-1.26.16-.18.35-.34.58-.5.22-.15.47-.28.77-.38.29-.1.62-.15.98-.15.18,0,.37.01.6.05.22.04.44.13.67.25.22.13.44.31.63.56.2.27.35.58.43.91.09.33.14.68.16,1.03.02.36.03.72.02,1.07v11h3.55v-11.86c0-.8-.07-1.49-.2-2.08-.13-.59-.3-1.09-.5-1.49-.2-.4-.42-.72-.65-.96-.3-.33-.65-.61-1.05-.82-.39-.21-.81-.37-1.24-.47-.44-.1-.87-.15-1.29-.15-.8,0-1.51.15-2.14.45-.63.29-1.18.68-1.64,1.18-.46.5-.85,1.07-1.14,1.7h-.06v-2.98h-3.31v17.48h3.55Z"></path><path class="l" d="M206.88,20.79c-.2-.42-.44-.83-.71-1.21-.3-.42-.64-.81-1.02-1.14-.47-.41-1.01-.75-1.6-1.02-.6-.27-1.22-.47-1.88-.6-.66-.13-1.33-.19-1.99-.19s-1.3.05-1.93.15c-.63.11-1.23.27-1.8.5-.57.22-1.08.52-1.54.89-.43.34-.83.77-1.2,1.28-.36.51-.66,1.1-.88,1.78-.22.68-.34,1.44-.34,2.29.01.77.12,1.45.32,2.04.2.59.46,1.1.77,1.53.31.43.62.78.93,1.06.29.26.6.49.94.7.34.21.68.38,1.04.54.35.15.68.29.99.39.32.11.59.19.82.25l3.09.82c.66.18,1.2.41,1.62.69.42.27.74.57.97.88.22.31.38.63.47.94.09.31.13.59.12.86,0,.31-.05.66-.17,1.02-.12.37-.33.71-.63,1.04-.31.33-.73.6-1.27.81-.55.21-1.24.32-2.09.33-.33,0-.68-.02-1.06-.07-.38-.06-.77-.16-1.16-.31-1.06-.4-2.47-1.39-2.98-2.39l-2.56,2.35c.16.25.33.48.5.69.37.46.75.85,1.13,1.17.44.37.95.7,1.55,1.01.6.3,1.28.53,2.04.71.76.18,1.62.27,2.57.27.63,0,1.28-.06,1.96-.18.68-.12,1.34-.32,1.99-.59.65-.28,1.25-.65,1.8-1.11.46-.41.88-.89,1.24-1.45.36-.57.65-1.18.86-1.86.21-.68.32-1.39.32-2.14,0-.7-.1-1.35-.28-1.97-.18-.61-.43-1.16-.73-1.66-.31-.5-.65-.93-1.04-1.28-.42-.38-.87-.7-1.34-.93-.47-.23-.94-.43-1.43-.57-.48-.15-.94-.27-1.4-.38l-2.85-.75c-.28-.07-.59-.16-.95-.29-.36-.13-.71-.3-1.06-.51-.34-.21-.63-.49-.85-.83-.22-.34-.34-.76-.35-1.25,0-.33.05-.66.16-1.01.11-.35.3-.67.57-.98.27-.31.63-.55,1.1-.74.46-.19,1.05-.29,1.75-.29.62,0,1.22.09,1.8.27.58.18,1.09.47,1.54.86.56.48,1.3,1.38,1.45,2.07l.53-.48,2.13-1.98Z"></path><path class="l" d="M210.56,31.8c0,.89.1,1.76.29,2.6.19.85.48,1.64.85,2.37.38.73.85,1.38,1.42,1.94.38.38.82.73,1.33,1.05.51.32,1.1.57,1.76.77.66.19,1.42.29,2.26.3.84,0,1.59-.1,2.26-.3.66-.2,1.25-.45,1.76-.77.51-.32.95-.66,1.33-1.05.56-.56,1.03-1.21,1.42-1.94.38-.74.66-1.53.85-2.37.19-.84.29-1.71.29-2.6s-.1-1.76-.29-2.61c-.19-.84-.48-1.63-.85-2.37-.38-.73-.85-1.38-1.42-1.94-.38-.38-.82-.73-1.33-1.05-.51-.32-1.1-.57-1.76-.77-.66-.19-1.42-.29-2.26-.3-.84,0-1.59.1-2.26.3-.66.19-1.25.45-1.76.77-.51.32-.95.67-1.33,1.05-.56.56-1.03,1.21-1.42,1.94-.38.74-.66,1.53-.85,2.37-.19.85-.29,1.72-.29,2.61h0ZM214.64,31.8c0-.81.05-1.51.16-2.09.1-.59.22-1.07.36-1.47.14-.39.28-.69.41-.91.14-.22.23-.37.3-.44.12-.15.29-.33.51-.52.23-.2.51-.36.85-.51.35-.14.75-.22,1.23-.23.48,0,.89.09,1.23.23.35.15.63.31.85.51.23.19.39.37.51.52.07.07.17.22.3.44.13.22.27.52.41.91.14.39.26.88.36,1.47.1.59.15,1.28.16,2.09,0,.81-.05,1.51-.16,2.09-.1.59-.22,1.07-.36,1.47-.14.39-.28.69-.41.91-.13.22-.23.37-.3.44-.12.15-.29.33-.51.52-.23.19-.51.36-.85.51-.34.14-.75.22-1.23.23-.48,0-.88-.09-1.23-.23-.35-.15-.63-.32-.85-.51-.22-.19-.39-.37-.51-.52-.07-.07-.17-.22-.3-.44-.13-.22-.27-.52-.41-.91-.14-.39-.26-.88-.36-1.47-.1-.58-.15-1.28-.16-2.09Z"></path><polygon class="l" points="229.32 18.64 229.32 40.72 233.32 40.72 233.32 15.91 229.32 18.64"></polygon><path class="l" d="M254.23,23v17.48h4.07v-8.4c-.03-1.76-.04-5.36,2.54-5.54.84-.06,2.37.19,3.23.6l.98-3.49c-2-.81-3.66-1.67-5.58.15-.54.51-.83,1.2-1.07,1.72-.24.52-.39.99-.45,1.42h-.07v-3.94h-3.65Z"></path><path class="l" d="M119.71,25.54c.37-.1.84-.14,1.4-.14.29,0,.6.02.93.06.33.04.64.14.95.29.31.15.57.38.79.68.13.19.23.41.31.66.08.24.13.49.16.73.04.25.06.46.07.66.01.19.01.33.01.42v.58l-1.74.03c-.37,0-.82.03-1.34.07-.52.04-1.07.1-1.65.19-.58.1-1.15.22-1.71.39-.57.17-1.08.38-1.55.65-.71.41-1.26.87-1.66,1.4-.4.53-.68,1.08-.84,1.66-.16.57-.23,1.13-.23,1.67,0,.61.09,1.22.29,1.84.19.61.5,1.18.93,1.7.43.52,1,.94,1.7,1.26.7.31,1.57.47,2.59.49.33,0,.71-.03,1.16-.1.44-.07.91-.21,1.4-.43.49-.22.96-.55,1.42-1,.46-.45.87-1.05,1.22-1.79.04.63.08,1.2.15,1.7.06.5.13.93.19,1.29h3.55c-.05-.36-.1-.75-.15-1.18-.05-.43-.1-.86-.13-1.3-.03-.44-.05-.86-.05-1.25v-7.4c0-.47-.02-.96-.05-1.45-.04-.49-.12-.98-.24-1.46-.12-.47-.31-.93-.57-1.37-.25-.43-.6-.82-1.03-1.18-.56-.44-1.23-.76-2.02-.95-.79-.19-1.67-.29-2.64-.28-.8,0-1.49.05-2.07.14-.58.09-1.06.21-1.45.34-.39.14-.71.29-.95.44-.29.16-.59.38-.91.67l1.14,2.73c.71-.6,1.69-1.22,2.62-1.44h0ZM124.33,31.98v.89c0,.37-.04.77-.12,1.19-.08.42-.19.83-.35,1.22-.15.4-.33.75-.55,1.05-.23.32-.51.61-.83.85-.33.24-.68.43-1.06.56-.38.14-.77.21-1.17.21-.24,0-.5-.03-.76-.09-.26-.06-.51-.14-.74-.26-.24-.13-.45-.28-.64-.47-.09-.08-.18-.19-.28-.33-.1-.14-.18-.33-.25-.54-.07-.21-.11-.46-.11-.74-.01-.3.04-.63.14-1.01.1-.38.3-.75.6-1.11.3-.36.75-.66,1.34-.9.33-.13.68-.22,1.08-.29.39-.07.78-.12,1.14-.15.37-.03.68-.04.93-.04l1.62-.03Z"></path><path class="l" d="M85.17,25.54c.37-.1.84-.14,1.4-.14.29,0,.6.02.93.06.33.04.64.14.95.29.31.15.57.38.79.68.13.19.23.41.31.66.08.24.13.49.16.73.04.25.06.46.07.66.01.19.01.33.01.42v.58l-1.74.03c-.37,0-.82.03-1.34.07-.52.04-1.07.1-1.65.19-.58.1-1.15.22-1.71.39-.57.17-1.08.38-1.55.65-.71.41-1.26.87-1.66,1.4-.4.53-.68,1.08-.84,1.66-.16.57-.23,1.13-.23,1.67,0,.61.09,1.22.29,1.84.19.61.5,1.18.93,1.7.43.52,1,.94,1.7,1.26.7.31,1.57.47,2.59.49.33,0,.71-.03,1.16-.1.44-.07.91-.21,1.4-.43.49-.22.96-.55,1.42-1,.46-.45.87-1.05,1.22-1.79.04.63.08,1.2.15,1.7.06.5.13.93.19,1.29h3.55c-.05-.36-.1-.75-.15-1.18-.05-.43-.1-.86-.13-1.3-.03-.44-.05-.86-.05-1.25v-7.4c0-.47-.02-.96-.05-1.45-.04-.49-.12-.98-.24-1.46-.12-.47-.31-.93-.57-1.37-.25-.43-.6-.82-1.03-1.18-.56-.44-1.23-.76-2.02-.95-.79-.19-1.67-.29-2.64-.28-.8,0-1.49.05-2.07.14-.58.09-1.06.21-1.45.34-.39.14-.71.29-.95.44-.29.16-.59.38-.91.67l1.14,2.73c.71-.6,1.69-1.22,2.62-1.44h0ZM89.78,31.98v.89c0,.37-.04.77-.12,1.19-.08.42-.19.83-.35,1.22-.15.4-.33.75-.55,1.05-.23.32-.51.61-.83.85-.33.24-.68.43-1.06.56-.38.14-.77.21-1.17.21-.24,0-.5-.03-.76-.09-.26-.06-.51-.14-.74-.26-.24-.13-.45-.28-.64-.47-.09-.08-.18-.19-.28-.33-.1-.14-.18-.33-.25-.54-.07-.21-.11-.46-.11-.74-.01-.3.04-.63.14-1.01.1-.38.3-.75.6-1.11.3-.36.75-.66,1.34-.9.33-.13.68-.22,1.08-.29.39-.07.78-.12,1.14-.15.37-.03.68-.04.93-.04l1.62-.03Z"></path><path class="l" d="M242.61,25.54c.37-.1.84-.14,1.4-.14.29,0,.6.02.93.06.33.04.64.14.95.29.31.15.57.38.79.68.13.19.23.41.31.66.08.24.13.49.16.73.04.25.06.46.07.66.01.19.01.33.01.42v.58l-1.74.03c-.37,0-.82.03-1.34.07-.52.04-1.07.1-1.65.19-.58.1-1.15.22-1.71.39-.57.17-1.08.38-1.55.65-.71.41-1.26.87-1.66,1.4-.4.53-.68,1.08-.84,1.66-.16.57-.23,1.13-.23,1.67,0,.61.09,1.22.29,1.84.19.61.5,1.18.93,1.7.43.52,1,.94,1.7,1.26.7.31,1.57.47,2.59.49.33,0,.71-.03,1.16-.1.44-.07.91-.21,1.4-.43.49-.22.96-.55,1.42-1,.46-.45.87-1.05,1.22-1.79.04.63.08,1.2.15,1.7.06.5.13.93.19,1.29h3.55c-.05-.36-.1-.75-.15-1.18-.05-.43-.1-.86-.13-1.3-.03-.44-.05-.86-.05-1.25v-7.4c0-.47-.02-.96-.05-1.45-.04-.49-.12-.98-.24-1.46-.12-.47-.31-.93-.57-1.37-.25-.43-.6-.82-1.03-1.18-.56-.44-1.23-.76-2.02-.95-.79-.19-1.67-.29-2.64-.28-.8,0-1.49.05-2.07.14-.58.09-1.06.21-1.45.34-.39.14-.71.29-.95.44-.29.16-.59.38-.91.67l1.14,2.73c.71-.6,1.69-1.22,2.62-1.44h0ZM247.22,31.98v.89c0,.37-.04.77-.12,1.19-.08.42-.19.83-.35,1.22-.15.4-.33.75-.55,1.05-.23.32-.51.61-.83.85-.33.24-.68.43-1.06.56-.38.14-.77.21-1.17.21-.24,0-.5-.03-.76-.09-.26-.06-.51-.14-.74-.26-.24-.13-.45-.28-.64-.47-.09-.08-.18-.19-.28-.33-.1-.14-.18-.33-.25-.54-.07-.21-.11-.46-.11-.74-.01-.3.04-.63.14-1.01.1-.38.3-.75.6-1.11.3-.36.75-.66,1.34-.9.33-.13.68-.22,1.08-.29.39-.07.78-.12,1.14-.15.37-.03.68-.04.93-.04l1.62-.03Z"></path><path class="k" d="M28.45,25.9c4.63-2.86,11.27-2.16,16.9,1.93l-2.39,2.44c-3.99-2.36-8.45-2.73-11.53-.57-3.07,2.16-3.95,6.3-2.66,10.56l-2.95.14c-2.6-5.8-1.99-11.65,2.64-14.5Z"></path><path class="j" d="M8.08,27.32l13.31,6.8c-.09-1.96-.45-3.9-1.21-5.8-.22-.46-.58-1.01-1.25-1.35l-13.13-7.03c-.11,2.06-.06,4.43.9,6.2.32.59.46.71,1.38,1.18Z"></path><path class="i" d="M15.02,16.65l9.56,10.14c.56-1.73.86-3.53.8-5.42-.05-.47-.19-1.06-.67-1.57l-9.32-10.28c-.76,1.76-1.48,3.82-1.21,5.66.09.62.18.76.84,1.47Z"></path><path class="j" d="M26.77,10.19l3.6,12.8c1.36-1.22,2.52-2.6,3.4-4.23.19-.42.36-.98.17-1.62l-3.31-12.81c-1.55,1.15-3.23,2.58-3.9,4.25-.22.56-.21.73.03,1.61Z"></path><path class="k" d="M39.54,10.54l-.63,11.25c1.6-.61,3.08-1.41,4.37-2.48.3-.29.62-.69.65-1.26l.89-11.18c-1.76.5-3.71,1.2-4.82,2.37-.37.39-.42.52-.46,1.3Z"></path><path class="n" d="M432.29,14.09v8.56c0,7.25,7.44,6.86,7.44,6.86h34.14v-6.76s-32.05,0-32.05,0c-2.14,0-2.19-2-2.19-2v-2.48h34.09v-4.18,1.33-4.18h-34.09v-2.48s.05-1.99,2.19-1.99h32.05V0h-34.14s-7.44-.39-7.44,6.86v8.56-1.33Z"></path><path class="n" d="M483.34,29.5v-11.23h34.09v-4.18,1.33-4.18h-34.09v-2.48s.05-1.99,2.19-1.99h32.05V0h-34.14s-7.44-.39-7.44,6.86v8.56-1.33,15.43l7.34-.02Z"></path><path class="n" d="M561.47,18.02l.02,4.94c0,6.84-7.84,6.53-7.84,6.53h-33.73v-6.9h32.84c1.7,0,1.54-1.19,1.54-1.19v-1.96c0-1.42-1.56-1.3-1.56-1.3h-25.38s-8.52.55-8.52-6.38v-4.48c0-7.57,7.41-7.29,7.41-7.29h34.2v6.76s-32.75,0-32.75,0c-1.83,0-1.55,1.57-1.55,1.57v1.5s-.28,1.46,1.67,1.46h26.34s7.25-.25,7.32,6.74"></path><g class="m"><rect class="h" x="379.93" y="1.43" width="50.25" height="49.54" transform="translate(329.66 425.04) rotate(-83)"></rect></g><path class="n" d="M452.19,37.11v3.25h-15.45c-.54,0-.8.17-.8.51v1.08c0,.34.27.51.8.51h11.69c2.8,0,4.2,1.11,4.2,3.34v1.91c0,2.26-1.41,3.39-4.22,3.39h-15.45v-3.25h15.45c.52,0,.79-.16.79-.49v-1.14c0-.34-.26-.51-.79-.51h-11.69c-2.81,0-4.22-1-4.22-2.99v-2.2c0-2.27,1.41-3.41,4.23-3.41h15.45Z"></path><path class="n" d="M464.38,51.11c-3.51,0-5.27-1.48-5.27-4.44v-5.09c0-2.97,1.75-4.46,5.27-4.46h10.81c3.51,0,5.27,1.49,5.27,4.46v5.09c0,2.96-1.76,4.44-5.27,4.44h-10.81ZM464.38,40.37c-1.22,0-1.84.4-1.84,1.21v5.09c0,.79.61,1.19,1.84,1.19h10.81c1.22,0,1.84-.4,1.84-1.19v-5.09c0-.8-.61-1.21-1.84-1.21h-10.81Z"></path><path class="n" d="M491.22,51.11c-2.81,0-4.22-1.13-4.22-3.39v-10.6h3.43v10.08c0,.44.26.66.79.66h15.25v3.25h-15.25Z"></path><path class="n" d="M528.63,48.36h-11.35l-1.54,2.75h-3.95l7.33-12.81c.1-.2.21-.37.32-.52.11-.15.24-.27.39-.37.15-.1.33-.17.54-.23s.47-.08.79-.08h3.53c.97,0,1.68.39,2.13,1.17l7.31,12.82h-3.94l-1.57-2.75ZM518.94,45.28h8.01l-2.43-4.27c-.13-.23-.27-.4-.43-.5-.16-.1-.32-.15-.48-.15h-1.35c-.37,0-.68.22-.93.66l-2.4,4.25Z"></path><path class="n" d="M539.81,37.11h16.85c2.69,0,4.04,1.14,4.04,3.41v1.26c0,2.37-1.35,3.55-4.04,3.55h-1.17l5.79,5.77h-4.72l-5.43-5.6h-7.88v5.6h-3.43v-13.99ZM543.24,40.37v2.24h13.52c.45,0,.68-.19.68-.56v-1.13c0-.36-.26-.55-.79-.55h-13.42Z"></path><line class="g" x1="306.14" y1="10.91" x2="335.87" y2="40.64"></line><line class="g" x1="335.87" y1="10.91" x2="306.14" y2="40.64"></line></g></svg>