<svg xmlns="http://www.w3.org/2000/svg" id="b" viewBox="0 0 173.35 85.5"><defs><style>.d{fill:none;}.e{fill:#ffac05;}.e,.f,.g{fill-rule:evenodd;}.f{fill:#c35e25;}.g,.h{fill:#9f2726;}</style></defs><g id="c"><path class="g" d="M6,50.08l10.24.04c-.61-1.08-1.38-2.07-2.35-2.92-.31-.27-.66-.38-1.07-.35l-10.18-.04c.53,1.19,1.26,2.21,2.31,2.94.35.24.39.33,1.05.33Z"></path><path class="h" d="M51.42,37.85c-.08-.16-.16-.31-.25-.45-.23-.37-.48-.68-.75-.95-.41-.41-.84-.72-1.28-.93-.44-.21-.88-.36-1.31-.43-.43-.08-.84-.11-1.21-.11-.28,0-.6.01-.95.05-.35.04-.71.13-1.1.25-.38.12-.77.31-1.16.56-.39.25-.77.58-1.14.99-.13.13-.3.35-.5.64-.2.29-.41.67-.61,1.14-.2.46-.38,1.02-.52,1.67-.14.66-.21,1.41-.22,2.27,0,.23,0,.52.03.89.02.36.07.77.15,1.22.08.45.19.91.35,1.39.16.48.38.95.65,1.41.22.37.49.73.8,1.07.31.34.68.65,1.09.92.42.27.89.48,1.42.64.53.16,1.13.24,1.79.24.43,0,.86-.04,1.28-.14.42-.1.84-.26,1.24-.49.41-.23.8-.55,1.18-.95.27-.28.52-.61.75-.98.09-.14.16-.28.24-.43l-2.02-1.38c-.02.05-.04.1-.06.15-.17.38-.36.71-.58.98-.29.36-.62.63-.98.8-.36.18-.75.26-1.17.26-.38,0-.72-.07-1.02-.19-.29-.12-.56-.28-.78-.48-.23-.2-.42-.42-.58-.65-.16-.24-.29-.47-.4-.7-.1-.23-.2-.5-.28-.82-.08-.32-.15-.71-.2-1.16-.05-.45-.08-.99-.08-1.6,0-.42.01-.84.05-1.24.03-.41.1-.8.19-1.19.09-.39.22-.76.39-1.11.29-.62.65-1.08,1.09-1.39.43-.31.97-.46,1.6-.46.53,0,.98.11,1.37.34.38.22.72.58,1.02,1.05.15.23.27.48.37.75l2.11-1.44Z"></path><path class="h" d="M66.69,50.1v-6.17c0-.31.02-.61.05-.92.04-.31.12-.61.24-.89.12-.29.29-.55.52-.8.1-.11.22-.22.37-.32.14-.1.3-.18.49-.24.18-.07.39-.1.62-.1.11,0,.24,0,.38.03.14.03.28.08.42.16.14.08.28.2.4.36.13.17.22.37.27.58.06.21.09.43.1.66,0,.23.02.46.01.68v6.98h2.25v-7.52c0-.51-.05-.95-.13-1.32-.08-.37-.19-.69-.32-.94-.13-.25-.27-.46-.41-.61-.19-.21-.41-.38-.66-.52-.25-.13-.51-.23-.79-.3-.28-.07-.55-.1-.82-.1-.5,0-.96.1-1.36.28-.4.18-.75.43-1.04.75-.29.32-.54.68-.72,1.08h-.04v-1.89h-2.1v11.09h2.25Z"></path><path class="h" d="M92.68,36.22v4.08c-.09-.15-.2-.3-.33-.44-.12-.14-.27-.28-.45-.41-.32-.24-.64-.41-.95-.51-.32-.1-.65-.15-.99-.14-.51,0-1.01.1-1.48.31-.47.21-.9.57-1.3,1.06-.21.26-.41.59-.6.99-.19.39-.34.88-.46,1.44-.12.57-.18,1.23-.18,1.99,0,.58.04,1.1.12,1.55.08.45.17.84.29,1.18.11.33.23.62.35.84.12.23.22.41.31.54.31.45.63.79.96,1.02.34.24.67.4,1,.49.33.09.64.13.93.12.38,0,.76-.07,1.13-.2.38-.13.72-.34,1.03-.63.31-.28.56-.65.75-1.11l-.17-.04.21,1.76h2.08v-15.42l-2.25,1.54h0ZM92.48,45.6c0,.63-.19,1.38-.52,1.91-.36.56-.96.93-1.61.93-.79,0-1.34-.49-1.67-1.2-.2-.42-.3-.88-.38-1.34-.07-.4-.11-.88-.11-1.46,0-.5.05-.99.16-1.49.14-.68.47-1.42,1.05-1.82.28-.19.61-.28.99-.28.63,0,1.14.26,1.51.78.17.24.3.53.4.85.1.32.16.66.16,1v2.11Z"></path><path class="h" d="M99.94,39.02h-2.25v11.09h2.25v-11.09h0ZM98.87,35.06c.77,0,1.39.62,1.39,1.39s-.62,1.39-1.39,1.39-1.39-.62-1.39-1.39.62-1.39,1.39-1.39Z"></path><path class="h" d="M105.93,40.63c.24-.06.53-.09.89-.09.18,0,.38.01.59.04.21.03.41.09.6.18.19.09.36.24.5.43.08.12.15.26.19.42.05.15.08.31.1.46.02.16.04.29.05.42,0,.12,0,.21,0,.27v.37l-1.11.02c-.24,0-.52.02-.85.04-.33.03-.68.07-1.04.12-.37.06-.73.14-1.09.25-.36.11-.69.24-.98.41-.45.26-.8.55-1.05.89-.25.34-.43.68-.53,1.05-.1.36-.15.72-.15,1.06,0,.39.06.78.18,1.17.12.39.32.75.59,1.08.27.33.63.59,1.08.8.45.2,1,.3,1.64.31.21,0,.45-.02.73-.06.28-.04.58-.13.89-.28.31-.14.61-.35.9-.63.29-.29.55-.66.78-1.14.02.4.05.76.09,1.08.04.32.08.59.12.82h2.25c-.03-.23-.06-.48-.1-.75-.03-.27-.06-.55-.08-.83-.02-.28-.03-.54-.03-.79v-4.7c0-.3,0-.61-.03-.92-.02-.31-.07-.62-.16-.92-.08-.3-.2-.59-.36-.87-.16-.27-.38-.52-.65-.75-.35-.28-.78-.48-1.28-.6-.5-.12-1.06-.18-1.67-.18-.51,0-.95.03-1.31.09-.37.06-.67.13-.92.22-.25.09-.45.18-.6.28-.18.1-.38.24-.58.43l.72,1.73c.45-.38,1.07-.77,1.66-.91h0ZM108.85,44.71v.57c0,.24-.03.49-.07.75-.05.26-.12.53-.22.78-.09.25-.21.47-.35.67-.15.2-.32.38-.52.54-.21.15-.43.27-.67.35-.24.09-.49.13-.74.13-.16,0-.32-.02-.48-.05-.17-.04-.32-.09-.47-.17-.15-.08-.28-.18-.4-.3-.06-.05-.11-.12-.17-.21-.06-.09-.12-.21-.16-.34-.05-.13-.07-.29-.07-.47,0-.19.02-.4.09-.64.06-.24.19-.47.38-.7.19-.23.48-.42.85-.57.21-.08.43-.14.68-.18.25-.04.49-.08.72-.09.24-.02.43-.03.59-.03l1.03-.02Z"></path><path class="h" d="M116,50.1v-6.17c0-.31.02-.61.05-.92.04-.31.12-.61.24-.89.12-.29.29-.55.52-.8.1-.11.22-.22.37-.32.14-.1.3-.18.49-.24.18-.07.39-.1.62-.1.11,0,.24,0,.38.03.14.03.28.08.42.16.14.08.28.2.4.36.13.17.22.37.27.58.06.21.09.43.1.66,0,.23.02.46.01.68v6.98h2.25v-7.52c0-.51-.05-.95-.13-1.32-.08-.37-.19-.69-.32-.94-.13-.25-.27-.46-.41-.61-.19-.21-.41-.38-.66-.52-.25-.13-.51-.23-.79-.3-.28-.07-.55-.1-.82-.1-.5,0-.96.1-1.36.28-.4.18-.75.43-1.04.75-.29.32-.54.68-.72,1.08h-.04v-1.89h-2.1v11.09h2.25Z"></path><path class="h" d="M133.82,37.62c-.13-.27-.28-.53-.45-.77-.19-.27-.4-.51-.64-.72-.3-.26-.64-.48-1.02-.65-.38-.17-.78-.3-1.19-.38-.42-.08-.84-.12-1.26-.12s-.82.03-1.22.1c-.4.07-.78.17-1.14.32-.36.14-.68.33-.98.56-.27.22-.53.49-.76.81-.23.32-.42.7-.56,1.13-.14.43-.21.91-.22,1.45,0,.49.07.92.2,1.29.13.37.29.7.49.97.2.27.39.5.59.67.18.16.38.31.6.44.21.13.43.24.66.34.22.1.43.18.63.25.2.07.37.12.52.16l1.96.52c.42.12.76.26,1.03.43.27.17.47.36.61.56.14.2.24.4.3.59.05.2.08.38.08.54,0,.2-.03.42-.11.64-.07.23-.21.45-.4.66-.19.21-.46.38-.81.51-.35.13-.79.2-1.32.21-.21,0-.43-.01-.67-.05-.24-.04-.49-.1-.74-.2-.67-.25-1.56-.88-1.89-1.51l-1.63,1.49c.1.16.21.3.32.44.24.29.48.54.72.74.28.24.61.45.98.64.38.19.81.34,1.29.45.48.11,1.03.17,1.63.17.4,0,.81-.04,1.25-.11.43-.08.85-.2,1.26-.38.41-.18.79-.41,1.14-.71.29-.26.56-.56.79-.92.23-.36.41-.75.54-1.18.13-.43.2-.88.2-1.36,0-.44-.06-.86-.18-1.25-.12-.39-.27-.74-.47-1.05-.19-.31-.41-.59-.66-.81-.27-.24-.55-.44-.85-.59s-.6-.27-.91-.36c-.3-.09-.6-.17-.89-.24l-1.81-.48c-.17-.04-.38-.1-.6-.18-.23-.08-.45-.19-.67-.33-.22-.13-.4-.31-.54-.53-.14-.22-.22-.48-.22-.79,0-.21.03-.42.1-.64.07-.22.19-.43.36-.62.17-.2.4-.35.7-.47.29-.12.67-.18,1.11-.18.39,0,.77.05,1.14.17.37.12.69.3.98.55.35.31.82.88.92,1.32l.34-.31,1.35-1.26Z"></path><path class="h" d="M136.15,44.59c0,.57.06,1.12.18,1.65.12.54.3,1.04.54,1.51.24.46.54.88.9,1.23.24.24.52.46.84.66.32.2.7.36,1.12.49.42.12.9.18,1.43.19.53,0,1.01-.06,1.43-.19.42-.13.79-.29,1.12-.49.32-.2.6-.42.84-.66.36-.36.65-.77.9-1.23.24-.47.42-.97.54-1.51.12-.53.18-1.08.18-1.65s-.06-1.12-.18-1.65c-.12-.53-.3-1.03-.54-1.5-.24-.46-.54-.88-.9-1.23-.24-.24-.52-.46-.84-.67-.32-.2-.7-.36-1.12-.49-.42-.12-.9-.18-1.43-.19-.53,0-1.01.06-1.43.19-.42.12-.79.28-1.12.49-.32.21-.6.43-.84.67-.36.36-.65.77-.9,1.23-.24.47-.42.97-.54,1.5-.12.54-.18,1.09-.18,1.65h0ZM138.74,44.59c0-.51.03-.95.1-1.33.06-.37.14-.68.23-.93.09-.24.18-.44.26-.58.09-.14.15-.23.19-.28.08-.1.18-.21.33-.33.14-.13.32-.23.54-.32.22-.09.48-.14.78-.14.3,0,.56.05.78.14.22.09.4.2.54.32.14.12.25.23.33.33.04.05.11.14.19.28.08.14.17.33.26.58.09.25.17.56.23.93.07.37.1.81.1,1.33,0,.51-.03.95-.1,1.33-.06.37-.14.68-.23.93-.09.24-.18.44-.26.58-.08.14-.15.23-.19.28-.08.1-.18.21-.33.33-.14.12-.32.23-.54.32-.22.09-.48.14-.78.14-.3,0-.56-.05-.78-.14-.22-.09-.4-.2-.54-.32-.14-.12-.25-.23-.33-.33-.04-.05-.11-.14-.19-.28-.08-.14-.17-.33-.26-.58-.09-.25-.17-.56-.23-.93-.07-.37-.1-.81-.1-1.33Z"></path><polygon class="h" points="148.05 36.25 148.05 50.25 150.59 50.25 150.59 34.52 148.05 36.25"></polygon><path class="h" d="M163.84,39.02v11.09h2.58v-5.33c-.02-1.12-.02-3.4,1.61-3.51.53-.04,1.5.12,2.05.38l.62-2.21c-1.27-.51-2.32-1.06-3.54.1-.34.33-.53.76-.68,1.09-.15.33-.25.63-.29.9h-.04v-2.5h-2.32Z"></path><path class="h" d="M78.55,40.63c.24-.06.53-.09.89-.09.18,0,.38.01.59.04.21.03.41.09.6.18.19.09.36.24.5.43.08.12.15.26.19.42.05.15.08.31.1.46.02.16.04.29.05.42,0,.12,0,.21,0,.27v.37l-1.11.02c-.24,0-.52.02-.85.04-.33.03-.68.07-1.04.12-.37.06-.73.14-1.09.25-.36.11-.69.24-.98.41-.45.26-.8.55-1.05.89-.25.34-.43.68-.53,1.05-.1.36-.15.72-.15,1.06,0,.39.06.78.18,1.17.12.39.32.75.59,1.08.27.33.63.59,1.08.8.45.2,1,.3,1.64.31.21,0,.45-.02.73-.06.28-.04.58-.13.89-.28.31-.14.61-.35.9-.63.29-.29.55-.66.78-1.14.02.4.05.76.09,1.08.04.32.08.59.12.82h2.25c-.03-.23-.06-.48-.1-.75-.03-.27-.06-.55-.08-.83-.02-.28-.03-.54-.03-.79v-4.7c0-.3,0-.61-.03-.92-.02-.31-.07-.62-.16-.92-.08-.3-.2-.59-.36-.87-.16-.27-.38-.52-.65-.75-.35-.28-.78-.48-1.28-.6-.5-.12-1.06-.18-1.67-.18-.51,0-.95.03-1.31.09-.37.06-.67.13-.92.22-.25.09-.45.18-.6.28-.18.1-.38.24-.58.43l.72,1.73c.45-.38,1.07-.77,1.66-.91h0ZM81.47,44.71v.57c0,.24-.03.49-.07.75-.05.26-.12.53-.22.78-.09.25-.21.47-.35.67-.15.2-.32.38-.52.54-.21.15-.43.27-.67.35-.24.09-.49.13-.74.13-.16,0-.32-.02-.48-.05-.17-.04-.32-.09-.47-.17-.15-.08-.28-.18-.4-.3-.06-.05-.11-.12-.17-.21-.06-.09-.12-.21-.16-.34-.05-.13-.07-.29-.07-.47,0-.19.02-.4.09-.64.06-.24.19-.47.38-.7.19-.23.48-.42.85-.57.21-.08.43-.14.68-.18.25-.04.49-.08.72-.09.24-.02.43-.03.59-.03l1.03-.02Z"></path><path class="h" d="M56.64,40.63c.24-.06.53-.09.89-.09.18,0,.38.01.59.04.21.03.41.09.6.18.19.09.36.24.5.43.08.12.15.26.19.42.05.15.08.31.1.46.02.16.04.29.05.42,0,.12,0,.21,0,.27v.37l-1.11.02c-.24,0-.52.02-.85.04-.33.03-.68.07-1.04.12-.37.06-.73.14-1.09.25-.36.11-.69.24-.98.41-.45.26-.8.55-1.05.89-.25.34-.43.68-.53,1.05-.1.36-.15.72-.15,1.06,0,.39.06.78.18,1.17.12.39.32.75.59,1.08.27.33.63.59,1.08.8.45.2,1,.3,1.64.31.21,0,.45-.02.73-.06.28-.04.58-.13.89-.28.31-.14.61-.35.9-.63.29-.29.55-.66.78-1.14.02.4.05.76.09,1.08.04.32.08.59.12.82h2.25c-.03-.23-.06-.48-.1-.75-.03-.27-.06-.55-.08-.83-.02-.28-.03-.54-.03-.79v-4.7c0-.3,0-.61-.03-.92-.02-.31-.07-.62-.16-.92-.08-.3-.2-.59-.36-.87-.16-.27-.38-.52-.65-.75-.35-.28-.78-.48-1.28-.6-.5-.12-1.06-.18-1.67-.18-.51,0-.95.03-1.31.09-.37.06-.67.13-.92.22-.25.09-.45.18-.6.28-.18.1-.38.24-.58.43l.72,1.73c.45-.38,1.07-.77,1.66-.91h0ZM59.57,44.71v.57c0,.24-.03.49-.07.75-.05.26-.12.53-.22.78-.09.25-.21.47-.35.67-.15.2-.32.38-.52.54-.21.15-.43.27-.67.35-.24.09-.49.13-.74.13-.16,0-.32-.02-.48-.05-.17-.04-.32-.09-.47-.17-.15-.08-.28-.18-.4-.3-.06-.05-.11-.12-.17-.21-.06-.09-.12-.21-.16-.34-.05-.13-.07-.29-.07-.47,0-.19.02-.4.09-.64.06-.24.19-.47.38-.7.19-.23.48-.42.85-.57.21-.08.43-.14.68-.18.25-.04.49-.08.72-.09.24-.02.43-.03.59-.03l1.03-.02Z"></path><path class="h" d="M156.47,40.63c.24-.06.53-.09.89-.09.18,0,.38.01.59.04.21.03.41.09.6.18.19.09.36.24.5.43.08.12.15.26.19.42.05.15.08.31.1.46.02.16.04.29.05.42,0,.12,0,.21,0,.27v.37l-1.11.02c-.24,0-.52.02-.85.04-.33.03-.68.07-1.04.12-.37.06-.73.14-1.09.25-.36.11-.69.24-.98.41-.45.26-.8.55-1.05.89-.25.34-.43.68-.53,1.05-.1.36-.15.72-.15,1.06,0,.39.06.78.18,1.17.12.39.32.75.59,1.08.27.33.63.59,1.08.8.45.2,1,.3,1.64.31.21,0,.45-.02.73-.06.28-.04.58-.13.89-.28.31-.14.61-.35.9-.63.29-.29.55-.66.78-1.14.02.4.05.76.09,1.08.04.32.08.59.12.82h2.25c-.03-.23-.06-.48-.1-.75-.03-.27-.06-.55-.08-.83-.02-.28-.03-.54-.03-.79v-4.7c0-.3,0-.61-.03-.92-.02-.31-.07-.62-.16-.92-.08-.3-.2-.59-.36-.87-.16-.27-.38-.52-.65-.75-.35-.28-.78-.48-1.28-.6-.5-.12-1.06-.18-1.67-.18-.51,0-.95.03-1.31.09-.37.06-.67.13-.92.22-.25.09-.45.18-.6.28-.18.1-.38.24-.58.43l.72,1.73c.45-.38,1.07-.77,1.66-.91h0ZM159.4,44.71v.57c0,.24-.03.49-.07.75-.05.26-.12.53-.22.78-.09.25-.21.47-.35.67-.15.2-.32.38-.52.54-.21.15-.43.27-.67.35-.24.09-.49.13-.74.13-.16,0-.32-.02-.48-.05-.17-.04-.32-.09-.47-.17-.15-.08-.28-.18-.4-.3-.06-.05-.11-.12-.17-.21-.06-.09-.12-.21-.16-.34-.05-.13-.07-.29-.07-.47,0-.19.02-.4.09-.64.06-.24.19-.47.38-.7.19-.23.48-.42.85-.57.21-.08.43-.14.68-.18.25-.04.49-.08.72-.09.24-.02.43-.03.59-.03l1.03-.02Z"></path><path class="g" d="M20.67,40.86c2.94-1.81,7.14-1.37,10.71,1.22l-1.52,1.55c-2.53-1.5-5.36-1.73-7.31-.36-1.95,1.37-2.5,3.99-1.69,6.69l-1.87.09c-1.65-3.68-1.26-7.38,1.67-9.2Z"></path><path class="f" d="M7.76,41.75l8.44,4.31c-.06-1.24-.29-2.47-.77-3.67-.14-.29-.37-.64-.79-.86l-8.32-4.46c-.07,1.31-.04,2.81.57,3.93.2.38.29.45.88.75Z"></path><path class="e" d="M12.16,34.99l6.06,6.43c.35-1.1.55-2.24.51-3.43-.03-.3-.12-.67-.42-1l-5.91-6.52c-.48,1.11-.94,2.43-.77,3.59.06.39.11.48.53.93Z"></path><path class="f" d="M19.61,30.89l2.28,8.11c.86-.77,1.6-1.65,2.16-2.68.12-.27.23-.62.11-1.03l-2.1-8.12c-.98.73-2.05,1.64-2.47,2.7-.14.36-.14.46.02,1.02Z"></path><path class="g" d="M27.71,31.12l-.4,7.13c1.02-.39,1.95-.89,2.77-1.57.19-.18.39-.44.41-.8l.57-7.09c-1.11.32-2.35.76-3.06,1.5-.24.25-.26.33-.29.83Z"></path><rect class="d" width="173.35" height="85.5"></rect></g></svg>