<?xml version="1.0" encoding="UTF-8"?> <svg xmlns="http://www.w3.org/2000/svg" viewBox="0 0 99.98 99.98"><defs><style>.cls-1{fill:#2f266f;}.cls-2{fill:none;}</style></defs><g id="Layer_2" data-name="Layer 2"><g id="Layer_1-2" data-name="Layer 1"><path class="cls-1" d="M59.58,30h4a1.85,1.85,0,1,0,0-3.69H55.22a1.91,1.91,0,0,0-2,1.85v8.41a1.84,1.84,0,1,0,3.68,0v-4L64.38,40A1.84,1.84,0,1,0,67,37.4Z"></path><path class="cls-1" d="M44.79,26.32H36.43a1.85,1.85,0,1,0,0,3.69h4L33,37.4a1.84,1.84,0,1,0,2.6,2.6l7.44-7.43v4a1.84,1.84,0,1,0,3.68,0V28.17a1.91,1.91,0,0,0-2-1.85"></path><path class="cls-1" d="M55.23,20.87h8.35a1.84,1.84,0,1,0,0-3.68h-4L67,9.8a1.84,1.84,0,1,0-2.6-2.61L57,14.62v-4a1.85,1.85,0,1,0-3.69,0V19a1.91,1.91,0,0,0,2,1.84"></path><path class="cls-1" d="M44.91,8.67a1.89,1.89,0,0,0-1.84,1.94v4L35.64,7.19A1.84,1.84,0,0,0,33,9.79l7.4,7.39h-4a1.85,1.85,0,1,0,0,3.69h8.36a1.91,1.91,0,0,0,2-1.84V10.61a1.89,1.89,0,0,0-1.84-1.94"></path><path class="cls-1" d="M25.34,71.05a7.12,7.12,0,0,1-4.75-1.79l1.46-1.74a5.12,5.12,0,0,0,3.34,1.36c1,0,1.62-.4,1.62-1.06v0c0-.63-.39-1-2.26-1.43-2.26-.57-3.71-1.2-3.71-3.42v0c0-2,1.63-3.38,3.92-3.38A6.5,6.5,0,0,1,29.12,61l-1.28,1.86a5.23,5.23,0,0,0-2.91-1.1c-.95,0-1.44.43-1.44,1v0c0,.74.48,1,2.41,1.48,2.28.59,3.56,1.41,3.56,3.36v0C29.46,69.8,27.76,71.05,25.34,71.05Z"></path><path class="cls-1" d="M41.92,70.89V66.11c0-1.16-.51-1.75-1.42-1.75S39,65,39,66.11v4.78H36.59V66.11c0-1.16-.51-1.75-1.42-1.75s-1.48.59-1.48,1.75v4.78H31.26V62.31h2.43v1.22a3.07,3.07,0,0,1,2.53-1.38,2.58,2.58,0,0,1,2.42,1.36,3.53,3.53,0,0,1,2.82-1.36c1.81,0,2.89,1.09,2.89,3.16v5.58Z"></path><path class="cls-1" d="M51.41,70.89V70a3.31,3.31,0,0,1-2.6,1.09,2.65,2.65,0,0,1-2.94-2.62v0c0-1.88,1.42-2.74,3.46-2.74a6,6,0,0,1,2.09.35v-.14c0-1-.62-1.57-1.84-1.57a6.29,6.29,0,0,0-2.37.46l-.6-1.85a7.48,7.48,0,0,1,3.32-.69c2.66,0,3.83,1.37,3.83,3.7v5Zm0-3.45a3.62,3.62,0,0,0-1.55-.32c-1,0-1.68.41-1.68,1.18v0c0,.66.55,1,1.33,1,1.14,0,1.9-.62,1.9-1.5Z"></path><path class="cls-1" d="M55.88,70.89V59.21h2.44V70.89Z"></path><path class="cls-1" d="M60.64,70.89V59.21h2.43V70.89Z"></path><path class="cls-1" d="M77.79,71.12l-1.3-1.32a5,5,0,0,1-3.28,1.25c-2.14,0-3.76-1.25-3.76-3.25a3.26,3.26,0,0,1,2.18-3.09,3.74,3.74,0,0,1-.79-2.25c0-1.56,1.24-3,3.4-3a2.88,2.88,0,0,1,3.15,2.83c0,1.52-1,2.4-2.35,3l1.49,1.48c.37-.57.73-1.23,1.09-1.92l1.8,1A20.44,20.44,0,0,1,78,68.2l1.65,1.65ZM73,66.22a1.68,1.68,0,0,0-1,1.49A1.4,1.4,0,0,0,73.5,69a2.66,2.66,0,0,0,1.62-.64Zm1.22-4.8a1.06,1.06,0,0,0-1.09,1.15A2,2,0,0,0,73.76,64c1-.37,1.49-.79,1.49-1.51A1,1,0,0,0,74.19,61.42Z"></path><path class="cls-1" d="M20,90.29a5.66,5.66,0,0,1-5.74-5.77v0a5.69,5.69,0,0,1,5.84-5.79,5.77,5.77,0,0,1,4.42,1.73L23,82.23A4.17,4.17,0,0,0,20.1,81a3.32,3.32,0,0,0-3.25,3.49v0A3.33,3.33,0,0,0,20.1,88a4.05,4.05,0,0,0,2.95-1.31l1.57,1.58A5.74,5.74,0,0,1,20,90.29Z"></path><path class="cls-1" d="M30.45,90.29a4.46,4.46,0,0,1-4.62-4.44v0a4.51,4.51,0,0,1,4.66-4.47,4.46,4.46,0,0,1,4.62,4.44v0A4.51,4.51,0,0,1,30.45,90.29Zm2.26-4.47a2.28,2.28,0,0,0-2.26-2.37,2.2,2.2,0,0,0-2.22,2.34v0a2.28,2.28,0,0,0,2.26,2.37,2.2,2.2,0,0,0,2.22-2.34Z"></path><path class="cls-1" d="M47.45,90.09V85.31c0-1.16-.51-1.75-1.43-1.75s-1.47.59-1.47,1.75v4.78H42.12V85.31c0-1.16-.51-1.75-1.43-1.75s-1.47.59-1.47,1.75v4.78H36.79V81.51h2.43v1.22a3.07,3.07,0,0,1,2.53-1.38,2.58,2.58,0,0,1,2.42,1.36A3.53,3.53,0,0,1,47,81.35c1.81,0,2.9,1.09,2.9,3.16v5.58Z"></path><path class="cls-1" d="M57,90.25A3.3,3.3,0,0,1,54.34,89v3.68H51.91V81.51h2.43v1.24A3.15,3.15,0,0,1,57,81.35c2,0,3.91,1.57,3.91,4.44v0C60.92,88.69,59.05,90.25,57,90.25Zm1.48-4.46a2.11,2.11,0,1,0-4.18,0v0a2.11,2.11,0,1,0,4.18,0Z"></path><path class="cls-1" d="M67.65,90.09v-.93a3.27,3.27,0,0,1-2.59,1.09,2.65,2.65,0,0,1-2.94-2.62v0c0-1.88,1.42-2.74,3.45-2.74a6.06,6.06,0,0,1,2.1.35v-.14c0-1-.62-1.57-1.84-1.57a6.26,6.26,0,0,0-2.37.46l-.61-1.85a7.56,7.56,0,0,1,3.33-.69c2.66,0,3.83,1.37,3.83,3.7v5Zm0-3.45a3.62,3.62,0,0,0-1.55-.32c-1,0-1.68.41-1.68,1.18v0c0,.66.54,1,1.33,1,1.13,0,1.9-.62,1.9-1.5Z"></path><path class="cls-1" d="M76.07,90.29a4.39,4.39,0,0,1-4.47-4.44v0a4.41,4.41,0,0,1,4.5-4.47,4.24,4.24,0,0,1,3.43,1.44L78,84.4a2.51,2.51,0,0,0-2-1A2.2,2.2,0,0,0,74,85.79v0a2.2,2.2,0,0,0,2.18,2.37,2.71,2.71,0,0,0,2-.91l1.42,1.44A4.32,4.32,0,0,1,76.07,90.29Z"></path><path class="cls-1" d="M84,90.24c-1.49,0-2.49-.59-2.49-2.58V83.59h-1V81.51h1V79.32h2.43v2.19h2v2.08h-2v3.67c0,.56.24.83.78.83a2.48,2.48,0,0,0,1.2-.3v1.95A3.52,3.52,0,0,1,84,90.24Z"></path><rect class="cls-2" width="99.98" height="99.98"></rect></g></g></svg> 