<svg xmlns="http://www.w3.org/2000/svg" id="b" viewBox="0 0 173.35 85.5"><defs><style>.d,.e{fill:none;}.f{fill:#448eaa;}.g{fill:#221f1f;}.e{stroke:#448eaa;stroke-miterlimit:10;stroke-width:2px;}</style></defs><g id="c"><line class="e" x1="87.58" y1="60.79" x2="23.71" y2="60.79"></line><polygon class="g" points="23.71 49.34 35.45 24.32 49.43 24.32 47.09 29.32 39.23 29.32 37.07 33.92 44.5 33.92 42.15 38.93 34.72 38.93 32.19 44.34 40.07 44.33 37.72 49.34 23.71 49.34"></polygon><path class="g" d="M83.35,32.61c1.54-2,3.18-2.25,4.97-2.24l-2.56,5.38c-.54-.02-.63,0-1.17,0-1.11,0-2.62.89-3.44,2.42l-5.25,11.16h-5.37l8.77-18.68h5l-.94,1.95Z"></path><path class="g" d="M105.83,28.58l1.54-3.27h5.37s-1.54,3.28-1.54,3.28h-5.37ZM96.09,49.34l8.77-18.68h5.37s-8.77,18.68-8.77,18.68h-5.37Z"></path><polygon class="g" points="111.79 30.65 124.05 30.65 122.1 34.8 111.61 45.13 117.78 45.13 115.79 49.36 103.05 49.36 105.1 45.01 115.47 34.83 109.82 34.83 111.79 30.65"></polygon><path class="g" d="M69.12,37.48l.77-1.64c.42-.82.72-2.23-.58-2.25-1.52-.02-2.29,1.49-2.77,2.54l-.63,1.35h3.22ZM64.31,40.87l-1.54,3.27c-.49,1.03-.45,2.05.71,2.05,1.69,0,2.1-1.25,3.18-3.32h5.27c-2.8,5.67-4.89,7.07-10.24,7.11-4.48.03-5.75-2.22-3.66-7.09l2.93-6.2c2.26-4.8,5.58-6.31,9.75-6.32,4.01,0,5.3,3.19,3.77,6.53l-1.79,3.97h-8.4Z"></path><path class="g" d="M130.7,37.48l.77-1.64c.42-.82.72-2.23-.59-2.25-1.51-.02-2.28,1.49-2.77,2.54l-.63,1.35h3.22ZM125.89,40.87l-1.54,3.27c-.49,1.03-.45,2.05.71,2.05,1.69,0,2.1-1.25,3.18-3.32h5.27c-2.8,5.67-4.89,7.07-10.24,7.11-4.48.03-5.75-2.22-3.66-7.09l2.93-6.2c2.26-4.8,5.59-6.31,9.75-6.32,4.01,0,5.3,3.19,3.77,6.53l-1.79,3.97h-8.4Z"></path><path class="g" d="M89.34,41.77c-.73,1.68-1.49,3.12.14,3.07.99-.03,1.8-1.07,2.75-2.98l2.11-4.53c.93-2.07.98-2.96-.12-2.95-1.06.01-1.9,1.05-2.86,2.99l-2.01,4.4ZM85.42,48.8c-2.47-.03-3.51-2.17-1.04-7.69l2.43-5.15c2.62-4.92,5.47-5.65,7.68-5.64,1.4,0,2.59.42,2.63,2.29l.9-1.95h5s-8.94,19.05-8.94,19.05c-2.05,4.37-3.73,6.53-9.63,6.58-4.05.03-5.89-2.45-4.26-5.91h4.97c-.59,1.73-.47,2.22.73,2.24,1.36.02,2.1-.81,2.69-2.01l1.74-3.6c-1.53,1.19-3.27,1.97-4.9,1.79"></path><path class="g" d="M52.47,32.49c1.18-1.43,3.02-2.21,4.71-2.2,3.07.02,3.81,2.61,2.62,5.15l-6.43,13.9h-5.31s6.07-13.13,6.07-13.13c.33-.87.75-2.11-.6-2.1-.96,0-2.03,1.15-2.48,2.12l-6.15,13.11h-5.37l8.77-18.68h5l-.83,1.83Z"></path><path class="g" d="M144.67,32.61c1.55-2,2.71-1.99,4.97-2.24l-2.56,5.38c-.54-.02-.63,0-1.17,0-1.12,0-2.63.89-3.45,2.42l-5.25,11.16h-5.37l8.77-18.68h5l-.94,1.95Z"></path><path class="g" d="M143.28,47.58c0,.86-.58,1.43-1.26,1.43h0c-.7,0-1.27-.57-1.27-1.43,0-.86.56-1.43,1.26-1.43.68,0,1.26.57,1.26,1.42M143.79,47.58c0-1.17-.84-1.86-1.77-1.86-.94,0-1.77.69-1.77,1.86,0,1.17.84,1.86,1.78,1.86.94,0,1.77-.69,1.77-1.86M141.72,47.4v-.48h.28c.15,0,.36.02.37.22,0,.22-.11.26-.29.26h-.36ZM141.72,47.74h.19l.44.84h.48s-.49-.88-.49-.88c.25-.02.46-.15.46-.52,0-.46-.29-.61-.78-.6h-.71v2s.41,0,.41,0v-.84Z"></path><path class="f" d="M96.15,61.17c-1.14,0-2.18-.09-3.11-.28-.31-.06-.38-.19-.23-.41l.56-.87c.13-.19.34-.27.63-.22.85.19,1.68.28,2.48.28.63,0,1.1-.05,1.42-.16.32-.1.53-.28.64-.54.1-.25.09-.43-.05-.54-.14-.11-.45-.22-.95-.32l-.68-.11c-.92-.16-1.53-.43-1.83-.81-.3-.38-.31-.9-.02-1.54.58-1.29,2.1-1.94,4.56-1.94.89,0,1.71.06,2.48.18.3.05.37.19.23.41l-.55.86c-.13.21-.33.28-.62.22-.61-.12-1.23-.18-1.86-.18-.59,0-1.04.05-1.33.14-.3.09-.49.25-.59.46-.1.24-.07.41.1.53.17.12.54.23,1.11.33l.72.12c1.65.3,2.19,1.08,1.62,2.33-.61,1.37-2.19,2.05-4.73,2.05"></path><path class="f" d="M105.31,59.63c.55,0,1-.1,1.34-.31.34-.21.61-.56.83-1.05l.67-1.54c.47-1,.1-1.49-1.11-1.49-.56,0-1.01.1-1.34.31-.33.2-.6.55-.81,1.03l-.69,1.55c-.44,1-.07,1.5,1.11,1.5M104.79,61.18c-1.39,0-2.34-.27-2.85-.81-.52-.54-.55-1.32-.1-2.34l.73-1.64c.41-.91,1.02-1.59,1.84-2.03.82-.44,1.86-.66,3.13-.66,1.41,0,2.37.27,2.88.8.52.53.56,1.3.11,2.29l-.74,1.68c-.41.92-1.02,1.6-1.85,2.04-.82.44-1.87.66-3.15.66"></path><path class="f" d="M112.42,59.49h4.12c.15,0,.26.03.32.1.06.07.07.15.02.26l-.41.91c-.09.2-.27.3-.56.3h-6.08c-.15,0-.26-.03-.33-.1-.06-.07-.07-.15-.02-.26l2.92-6.6c.1-.2.28-.3.56-.3h1.46c.15,0,.26.03.32.1.06.07.07.15.02.26l-2.35,5.32Z"></path><path class="f" d="M122.78,56.93l-1.21,1.43h2.35l.05-1.43c.02-.58.08-1.06.18-1.44l.04-.16h-.23c-.21.37-.6.91-1.19,1.6M126.23,54.12v6.59c0,.24-.17.36-.51.36h-1.49c-.3,0-.44-.1-.43-.31l.05-.99h-3.46l-.86,1.05c-.15.17-.34.25-.59.25h-1.68c-.17,0-.28-.04-.34-.11-.05-.07-.02-.17.08-.29l5.85-6.63c.15-.16.34-.24.59-.24h2.35c.28,0,.42.1.43.31"></path><path class="f" d="M133.55,56.48l.16-.36c.26-.58-.03-.87-.85-.87h-1.45l-.88,2h1.45c.81,0,1.34-.26,1.57-.77M132.05,53.81h1.26c1.2,0,2.04.22,2.51.65.47.44.53,1.05.19,1.85l-.15.35c-.48,1.09-1.5,1.7-3.05,1.82l-.06.13c.47.04.77.26.89.64l.41,1.43c.03.12,0,.21-.08.28-.09.07-.21.1-.39.1h-1.63c-.28,0-.43-.09-.46-.28l-.28-1.5c-.04-.21-.13-.36-.25-.45-.12-.09-.31-.13-.56-.13h-.53l-.9,2.06c-.1.2-.28.3-.56.3h-1.43c-.15,0-.26-.03-.33-.1-.06-.07-.07-.15-.02-.26l2.92-6.6c.1-.2.28-.3.56-.3h1.94Z"></path><rect class="d" width="173.35" height="85.5"></rect></g></svg>