<?xml version="1.0" encoding="UTF-8"?> <svg xmlns="http://www.w3.org/2000/svg" viewBox="0 0 50.26 50.26"><defs><style>.cls-1{fill:#2f266f;}.cls-2{fill:#fff;}</style></defs><g id="Layer_2" data-name="Layer 2"><g id="Layer_1-2" data-name="Layer 1"><path class="cls-1" d="M25.13,50.26A25.13,25.13,0,1,0,0,25.13,25.13,25.13,0,0,0,25.13,50.26"></path><polygon class="cls-2" points="13.16 36.59 16.63 36.59 16.63 25.82 13.16 26.96 13.16 36.59"></polygon><polygon class="cls-2" points="19.21 36.59 22.66 36.59 22.66 23.75 19.21 24.89 19.21 36.59"></polygon><polygon class="cls-2" points="25.25 36.59 28.71 36.59 28.71 21.68 25.25 22.82 25.25 36.59"></polygon><polygon class="cls-2" points="31.29 36.59 34.75 36.59 34.75 19.71 31.29 20.85 31.29 36.59"></polygon><path class="cls-2" d="M37.82,14.48l-4.28-.8a.32.32,0,0,0-.36.42l.47,1.32L12.18,22.71l.53,1.39,21.45-7.24.48,1.36a.31.31,0,0,0,.53.09L38,15a.31.31,0,0,0-.19-.51"></path></g></g></svg> 