<svg xmlns="http://www.w3.org/2000/svg" xmlns:xlink="http://www.w3.org/1999/xlink" id="b" viewBox="0 0 427.27 56.14"><defs><style>.f,.g{fill:none;}.h{fill:url(#e);}.i{fill-rule:evenodd;}.i,.j{fill:#404041;}.g{stroke:#44c5e9;stroke-miterlimit:10;}.k{clip-path:url(#d);}.l{fill:#002e6e;}</style><clipPath id="d"><path class="f" d="M266.97,52.84c.08.14.45.36,1.09.56.25.08.45.12.61.15.37.06.47.08.79.12-.22-.05-.37-.12-.69-.31-.41-.24-.56-.32-.89-.46-.3-.12-.51-.18-.66-.19-.25-.03-.3.05-.25.13M269.89,53.24s0,.04.01.06c.22.75,1.62.34,1.87-.12.13-.24-.03-.4-.1-.47-.16-.12-.35-.18-.55-.21-.63-.08-1.31.3-1.24.74M262.37,50.75c.05.23.53.68,1.48,1.2,1.06.57,2.36,1.01,2.56.98,0,0,0-.02,0-.03-.03-.04-1.49-1.28-2.82-1.98-.46-.22-.75-.31-.93-.33-.32-.04-.3.14-.29.17M273.68,53.12c-.78.49-.7.52-.64.54.33.11,3.64-.46,3.78-1.34-.03-.11-.14-.18-.33-.2-.52-.06-1.58.23-2.81,1M266.34,51.15c.05.16.15.33.29.51.85,1.06,2.64,1.63,2.75.36.03-.3-.06-.88-.91-1.44-.37-.2-.72-.31-1.02-.35-.8-.1-1.31.31-1.11.93M281.84,51.39c-.62.08-1.57.49-3.47,1.3-.53.23-1.12.32-1.6.68.16.15,4.15-.76,5.29-1.79.05-.05.15-.18-.02-.2-.04,0-.11,0-.19,0M272.07,51.33c-.27,1.23,1.06,1.57,2.54.64.16-.1,1.55-1.01.81-1.89-.23-.19-.51-.3-.81-.34-1.03-.13-2.32.56-2.54,1.58M257.08,47.7c.1.31.65.96,1.67,1.72,1.31.98,2.99,1.81,2.92,1.51-.05-.2-1.84-2.01-3.4-3.04-.51-.31-.8-.43-.98-.45-.28-.03-.23.18-.21.25M261.05,47.85c.05.23.19.6.6,1.08,1.1,1.32,3.25,2.4,3.36,1.11.04-.48-.27-1.65-1.75-2.65-.49-.29-.91-.44-1.24-.48-.76-.09-1.09.36-.97.93M278.61,50.76c-.2.21-1.12,1.24-.24,1.25,1.17.02,4.4-1.6,4.27-2.77-.08-.18-.25-.28-.48-.31-.83-.1-2.47.68-3.55,1.82M267.88,48.49c.45,1.82,3.14,2.55,4.16.68.21-.38.57-1.37-.58-2.29-.43-.28-.86-.43-1.28-.48-1.43-.18-2.61.85-2.3,2.09M252.21,43.65c.04.31.67,1.25,1.77,2.37,1.15,1.18,2.43,2.16,2.59,2.05.02-.27-2.29-2.94-3.48-4.02-.39-.34-.66-.52-.78-.53-.07,0-.1.03-.09.13M287.96,47.73c-.69.28-1.87,1.05-3.16,2.05-1.68,1.31-1.44,1.35-1.35,1.36.49.07,4.18-1.84,5.06-3.24.08-.18.06-.27-.07-.29-.1-.01-.26.03-.48.12M255.3,43.72c.07.44.35,1.01.75,1.56,1.13,1.55,3.29,3.01,3.44,1.73.07-.62-.5-2.32-2.2-3.67-.52-.37-.93-.54-1.24-.58-.63-.08-.85.41-.75.95M276.21,47.88c-.45,1.49.82,2.4,2.77,1.34,1.16-.63,2.46-2.08,1.61-3.19-.28-.25-.61-.39-.97-.44-1.32-.16-3,.95-3.4,2.29M261.88,44.22c.03.14.09.33.14.47.82,2.1,3.73,3.23,4.63,1.3.08-.18.75-1.77-1.23-3.26-.54-.34-1.06-.53-1.53-.58-1.36-.17-2.28.76-2.02,2.07M284.46,46.87c-.69,1.06-.81,2.05.34,1.8,1.53-.34,4.18-2.61,3.9-3.98-.11-.24-.3-.36-.55-.39-.96-.12-2.74,1.13-3.68,2.57M271.36,44.08c.06,2.19,2.98,3.3,4.79,1.23.59-.68,1.23-2.15-.11-3.35-.44-.31-.91-.48-1.38-.54-1.69-.21-3.34,1.09-3.3,2.67M250.26,38.66c.01.56.3,1.4.77,2.25,1,1.79,2.64,3.27,2.85,2.3.14-.65-.57-2.95-2.11-4.59-.46-.44-.78-.61-1-.64-.51-.06-.5.65-.5.69M293.79,42.4c-.49.22-1.7,1.44-2.86,2.9-.38.47-1.56,1.99-1.11,1.89.58-.13,3.36-2.86,4.13-4.48.04-.12.12-.33,0-.35-.03,0-.08,0-.15.04M255.65,39.3c.03.23.12.57.21.82.83,2.22,3.41,3.69,4.3,1.95.42-.81.42-2.68-1.35-4.23-.53-.4-1.03-.6-1.47-.66-1.15-.14-1.88.77-1.69,2.11M281.48,43.11c-.53,2,1.05,2.97,2.96,1.81,1.41-.85,2.75-2.87,1.75-4.23-.3-.29-.65-.45-1.03-.5-1.44-.18-3.23,1.24-3.68,2.92M264.77,39.42c.44,2.76,4.21,3.78,5.68,1.54.51-.77.9-2.46-.84-3.88-.59-.39-1.18-.61-1.74-.67-1.89-.23-3.39,1.19-3.1,3.02M247.06,32.9c-.1.45.17,1.77.63,3.13.63,1.83,1.43,3.23,1.61,2.81.2-.44-.57-3.54-1.55-5.44-.11-.19-.37-.65-.55-.67-.06,0-.11.04-.14.17M290.26,41.61c-.72,1.69-.39,2.68.72,2.18,1.36-.62,3.4-3.36,3.01-4.97-.12-.27-.3-.41-.53-.44-.89-.11-2.45,1.46-3.2,3.23M276.2,38.55c-.11,2.54,2.8,3.66,4.79,1.84,1.04-.95,1.83-2.96.31-4.44-.46-.35-.95-.54-1.44-.6-1.8-.22-3.58,1.32-3.66,3.2M250.38,33.77c0,.38.06.79.17,1.21.62,2.42,2.5,3.84,3.35,2.52.6-.93.53-3.32-.95-5.08-.44-.44-.84-.66-1.2-.7-.84-.1-1.4.77-1.37,2.05M258.08,34.13c.4,2.8,3.47,4.15,5.06,2.22.75-.91,1.23-3.02-.67-4.79-.55-.42-1.1-.64-1.61-.71-1.71-.21-3.05,1.33-2.77,3.28M286.92,37.18c-.37,2.28,1.13,3.45,2.88,2.24,1.36-.95,2.63-3.49,1.44-5.17-.31-.32-.65-.49-1.01-.54-1.39-.17-2.98,1.52-3.3,3.47M269.35,33.29c.13,2.89,3.62,4.22,5.66,2.16,1.02-1.03,1.61-3.22-.26-4.89-.55-.4-1.13-.62-1.69-.69-1.99-.24-3.79,1.38-3.7,3.41M247.33,27.02c-.09.31-.28,1.18-.18,2.45.18,2.32,1.14,3.86,1.83,2.95.62-.81.83-3.71-.08-5.74-.26-.49-.51-.7-.72-.72-.41-.05-.72.56-.86,1.06M252.59,28.09c0,.1,0,.23,0,.33.07,2.66,2.2,4.24,3.73,2.78,1.18-1.12,1.48-3.77.12-5.51-.44-.45-.89-.68-1.33-.73-1.3-.16-2.44,1.25-2.52,3.13M281.41,32.07c-.04,2.8,2.68,4.1,4.61,2.21,1.31-1.28,1.68-3.68.15-5.22-.44-.35-.9-.54-1.35-.6-1.74-.21-3.39,1.54-3.41,3.61M262.28,27.48c0,3.06,3.49,4.55,5.57,2.38,1.02-1.07,1.61-3.35-.29-5.08-.57-.42-1.16-.65-1.72-.72-1.91-.23-3.56,1.35-3.55,3.41M246.36,25.04s0-.04,0-.05c0,.09-.02.17-.02.26l.02-.2ZM246.84,21.89c-.06.35-.13.74-.2,1.14.06-.4.13-.79.2-1.14-.13.62-.25,1.28-.35,1.98-.04.29-.08.57-.11.85-.01.11-.02.22-.04.32l-.02.2c0,.1-.02.2-.02.3-.1,1.41.01,1.54.06,1.59.42-.17,1.07-4.3,1.1-6.08,0-.41-.02-.57-.1-.66-.08.03-.22.08-.54,1.5M274.59,26.47c.09,2.89,3.32,4.36,5.32,2.42,1.14-1.11,1.69-3.54-.25-5.22-.52-.37-1.05-.57-1.57-.63-1.9-.23-3.57,1.41-3.51,3.43M249.39,21.99c-.05.19-.11.44-.14.63-.39,2.38.64,4,1.92,3.05,1.12-.83,2.15-3.69,1.3-5.65-.25-.44-.54-.65-.85-.69-.87-.11-1.84,1.19-2.24,2.66M256.76,21.71c-.37,2.64,1.9,4.22,3.93,2.73,1.5-1.11,2.16-3.58.78-5.22-.44-.42-.91-.64-1.38-.7-1.57-.19-3.09,1.45-3.33,3.19M267.59,20.89c-.11,2.71,3.23,4.24,5.34,2.44,1.36-1.17,1.66-3.42-.08-4.93-.51-.36-1.03-.55-1.56-.62-1.87-.23-3.63,1.25-3.71,3.11M250.28,14.63c-.53.53-1.16,1.57-1.6,2.66-.74,1.8-.8,3.23-.14,3,.86-.3,2.52-3.48,2.63-5.41,0-.42-.12-.59-.27-.61-.17-.02-.41.15-.62.36M253.57,16.36c-.81,2.13.24,3.64,1.94,2.79,1.57-.79,2.91-3.37,2.19-5.04-.23-.38-.54-.57-.88-.62-1.13-.14-2.66,1.33-3.24,2.87M262.14,15.63c-.58,2.34,1.77,3.82,3.92,2.46,1.55-.98,2.28-3.17.93-4.66-.39-.34-.82-.52-1.26-.58-1.56-.19-3.22,1.25-3.59,2.77M252.9,9.99c-1.6,1.95-1.85,2.25-2.46,3.24-.35.59-.83,1.37-1.15,1.97,0,.01-.01.03-.02.05q.1-.08,3.38-4.82c.2-.29.26-.37.31-.47-.01,0-.03.02-.05.03M254.11,10.46c-.35.35-.73.79-1.01,1.18-1.08,1.53-1.2,2.81-.24,2.63,1.3-.25,3.53-2.99,3.73-4.59,0-.34-.13-.5-.33-.52-.54-.07-1.59.75-2.15,1.31M259.21,10.96c-.98,1.69-.14,3.03,1.57,2.5,1.88-.58,3.38-2.94,2.77-4.36-.19-.3-.47-.46-.79-.5-1.12-.14-2.82,1.09-3.55,2.36M255.31,7.7c-1.37,1.21-2.1,2.21-1.74,2.18.6-.05,3.69-2.83,4.59-3.82.19-.22.23-.29.23-.37,0,0-.02-.01-.04-.01-.3-.04-1.7.84-3.04,2.02M259.45,6.67c-.14.11-.32.26-.45.38-1.31,1.21-1.38,2.15-.56,2.15,1.38,0,4.04-2.35,4.42-3.63.03-.25-.08-.37-.29-.39-.65-.08-2.2.76-3.12,1.49M261.33,4.07c-1.45.76-2.26,1.52-1.91,1.6.72.17,5.3-2.62,5.34-2.65.18-.13.21-.15.24-.21-.01-.01-.04-.02-.07-.03-.41-.05-2.19.55-3.6,1.29"></path></clipPath><radialGradient id="e" cx="2354.38" cy="422.78" fx="2354.38" fy="422.78" r=".41" gradientTransform="translate(-25080.07 -141145.4) rotate(90) scale(59.96 -59.96)" gradientUnits="userSpaceOnUse"><stop offset="0" stop-color="#44c5e9"></stop><stop offset="1" stop-color="#2f266f"></stop></radialGradient></defs><g id="c"><path class="j" d="M86.38.01h-1.98v9.95h9.09c.99-.41,1.53-1.13,1.73-1.96h-8.84V.01h0Z"></path><path class="j" d="M111.08,2h7.5c1.04-.2,1.82-1.11,2.03-1.99h-11.57c.22.88,1,1.79,2.04,1.99h0Z"></path><path class="j" d="M64.8,1.97h0c1.04-.3,1.92-1.09,2.13-1.96h-11v5.87h9v2.06h-7.06c-1.11.31-2.04,1.04-2.51,2.02h.57s10.94,0,10.94,0V3.94h-9v-1.97h6.93Z"></path><polygon class="j" points="109.34 9.96 109.34 9.96 111.29 9.96 111.29 5.96 118.39 5.96 118.39 9.96 120.34 9.96 120.34 3.95 109.34 3.94 109.34 9.96 109.34 9.96"></polygon><path class="j" d="M30.04,1.99h7.58c1.05-.2,1.84-1.11,2.06-1.99h-11.69c.22.88,1.01,1.79,2.06,1.99h0Z"></path><path class="j" d="M30.04,9.96h7.58c1.05-.21,1.84-1.11,2.06-1.99h-11.69c.22.88,1.01,1.79,2.06,1.99h0Z"></path><path class="j" d="M.14,0v.02c.23.87,1,1.76,2.05,1.98h3.19l.16.06v7.87h1.99V2.07l.18-.06h3.19c1.07-.27,1.82-1.11,2.04-1.98V0H.14Z"></path><path class="j" d="M30.04,5.92h7.58c1.05-.2,1.84-1.11,2.06-1.99h-11.69c.22.88,1.01,1.79,2.06,1.99h0Z"></path><path class="j" d="M62.18,35.31c.63,0,1.13-.15,1.5-.45.37-.3.56-.7.56-1.21v-.03c0-.54-.18-.95-.54-1.23-.36-.28-.87-.42-1.53-.42h-2.56v3.34h2.58ZM57.87,30.4h4.45c.63,0,1.18.09,1.67.26.49.17.89.42,1.21.73.27.27.47.59.61.95.14.36.21.75.21,1.19v.03c0,.41-.06.77-.18,1.1-.12.33-.28.61-.49.86-.21.25-.46.46-.75.64-.29.17-.61.31-.96.4l2.7,3.75h-2.07l-2.46-3.45h-2.21v3.45h-1.74v-9.9h0Z"></path><path class="j" d="M4.03,35.55c.66,0,1.19-.17,1.57-.5.38-.33.58-.76.58-1.28v-.03c0-.59-.19-1.03-.58-1.33-.39-.3-.91-.45-1.56-.45H2v3.58h2.03ZM.27,30.4h3.9c.58,0,1.1.08,1.56.23.47.16.86.38,1.19.67.33.29.58.64.75,1.05.17.41.26.86.26,1.36v.03c0,.56-.1,1.04-.31,1.46-.21.42-.49.77-.85,1.05-.36.28-.78.5-1.26.64-.48.15-1,.22-1.55.22h-1.97v3.18H.27v-9.9H.27Z"></path><path class="j" d="M17.32,38.87c.49,0,.94-.09,1.35-.28.41-.18.76-.43,1.05-.75.29-.32.52-.69.68-1.11.17-.43.25-.88.25-1.36v-.03c0-.48-.08-.94-.25-1.37-.16-.43-.4-.8-.69-1.12-.3-.32-.65-.57-1.07-.76-.42-.19-.87-.28-1.36-.28s-.94.09-1.35.28c-.41.18-.76.43-1.05.75-.29.32-.52.69-.68,1.11-.17.42-.25.88-.25,1.36v.03c0,.48.08.94.25,1.37.16.43.4.8.69,1.12.3.32.65.57,1.07.76.42.19.87.28,1.36.28h0ZM17.29,40.48c-.77,0-1.47-.13-2.1-.4-.63-.27-1.18-.63-1.63-1.1-.45-.46-.81-1-1.07-1.62-.26-.62-.38-1.28-.38-1.98v-.03c0-.7.13-1.36.38-1.98.26-.62.62-1.16,1.08-1.63.46-.47,1.01-.84,1.65-1.11.63-.27,1.34-.41,2.1-.41s1.47.13,2.1.4c.63.27,1.18.63,1.63,1.1.45.46.81,1,1.07,1.62.26.62.38,1.28.38,1.98v.03c0,.7-.13,1.36-.38,1.98-.26.62-.62,1.16-1.08,1.63-.46.47-1.01.84-1.65,1.11-.63.27-1.34.41-2.1.41h0Z"></path><polygon class="j" points="26.14 30.4 28.02 30.4 30.39 37.74 32.83 30.37 34.3 30.37 36.74 37.74 39.1 30.4 40.93 30.4 37.47 40.38 35.97 40.38 33.53 33.26 31.1 40.38 29.6 40.38 26.14 30.4 26.14 30.4"></polygon><polygon class="j" points="45.55 30.4 52.96 30.4 52.96 31.97 47.29 31.97 47.29 34.52 52.31 34.52 52.31 36.09 47.29 36.09 47.29 38.74 53.03 38.74 53.03 40.31 45.55 40.31 45.55 30.4 45.55 30.4"></polygon><polygon class="j" points="70.43 30.4 71.26 30.4 74.38 39.22 77.29 30.37 77.85 30.37 80.76 39.22 83.88 30.4 84.65 30.4 81.05 40.38 80.45 40.38 77.54 31.77 74.63 40.38 74.04 40.38 70.43 30.4 70.43 30.4"></polygon><path class="j" d="M95.12,36.87l-2.62-5.73-2.64,5.73h5.26ZM92.16,30.33h.71l4.65,9.97h-.81l-1.27-2.77h-5.89l-1.27,2.77h-.77l4.65-9.97h0Z"></path><polygon class="j" points="102.4 30.4 103.14 30.4 103.14 39.64 108.95 39.64 108.95 40.31 102.4 40.31 102.4 30.4 102.4 30.4"></polygon><polygon class="j" points="114.02 30.4 114.76 30.4 114.76 39.64 120.57 39.64 120.57 40.31 114.02 40.31 114.02 30.4 114.02 30.4"></polygon><polygon class="i" points=".2 19.65 120.66 19.65 120.66 20.44 .2 20.44 .2 19.65 .2 19.65"></polygon><rect class="f" x="0" y="48.94" width="122.21" height="6.3"></rect><path class="j" d="M5.16,54.33c-.16.12-.33.22-.51.31-.18.09-.37.15-.58.2-.21.05-.44.07-.69.07-.4,0-.77-.08-1.11-.23-.34-.15-.63-.35-.88-.62-.25-.26-.44-.57-.59-.92-.14-.35-.21-.73-.21-1.13v-.02c0-.4.07-.77.21-1.13.14-.35.34-.66.59-.93.25-.27.55-.47.89-.63.34-.15.72-.23,1.13-.23.25,0,.48.02.68.06s.39.1.57.18c.17.08.34.18.49.29.15.11.3.23.45.37l-.3.31c-.25-.24-.52-.43-.82-.59-.3-.16-.66-.24-1.08-.24-.34,0-.65.06-.94.19-.29.13-.54.31-.75.53-.21.23-.38.5-.5.8-.12.31-.18.63-.18.99v.02c0,.35.06.68.18.99s.29.58.5.8c.21.23.46.41.75.54.29.13.6.2.94.2.41,0,.76-.08,1.06-.23.3-.15.59-.37.88-.65l.28.27c-.15.14-.3.28-.46.4Z"></path><path class="j" d="M8.38,49.18h4v.39h-3.59v2.21h3.22v.39h-3.22v2.26h3.63v.39h-4.04v-5.63Z"></path><path class="j" d="M17.64,52.48h-1.84v2.33h-.42v-5.63h2.36c.31,0,.58.04.83.12.25.08.46.19.63.33.17.14.31.31.41.51.1.2.14.41.14.65v.02c0,.24-.04.45-.12.63-.08.19-.2.34-.35.48-.15.13-.32.24-.52.33s-.42.14-.66.17l1.86,2.4h-.53l-1.79-2.33ZM18.92,49.9c-.28-.22-.68-.33-1.19-.33h-1.92v2.53h1.9c.24,0,.45-.03.66-.09.2-.06.37-.14.52-.25.14-.11.26-.24.34-.4s.12-.34.12-.54v-.02c0-.38-.14-.68-.42-.9Z"></path><path class="j" d="M24.79,54.81h-.42v-5.24h-1.96v-.39h4.34v.39h-1.96v5.24Z"></path><path class="j" d="M29.69,49.18h.42v5.63h-.42v-5.63Z"></path><path class="j" d="M33.87,51.88h3.18v.39h-3.18v2.55h-.42v-5.63h3.96v.39h-3.55v2.31Z"></path><path class="j" d="M40.4,49.18h.42v5.63h-.42v-5.63Z"></path><path class="j" d="M44.16,49.18h4v.39h-3.59v2.21h3.22v.39h-3.22v2.26h3.63v.39h-4.04v-5.63Z"></path><path class="j" d="M55.8,53.11c-.14.34-.35.64-.62.89s-.58.45-.95.6c-.36.14-.77.22-1.21.22h-1.87v-5.63h1.87c.45,0,.85.07,1.21.21.37.14.68.34.95.59s.47.55.62.89c.14.34.22.71.22,1.11v.02c0,.4-.07.77-.22,1.11ZM55.41,51.06c-.12-.29-.29-.55-.51-.77s-.49-.39-.8-.52-.67-.19-1.06-.19h-1.46v4.86h1.46c.39,0,.75-.06,1.06-.19s.58-.3.8-.51c.22-.22.39-.47.51-.76.12-.29.18-.61.18-.95v-.02c0-.33-.06-.65-.18-.94Z"></path><path class="j" d="M63.14,49.18h.42v5.63h-.42v-5.63Z"></path><path class="j" d="M67.3,49.81v5h-.4v-5.63h.39l3.88,4.9v-4.9h.4v5.63h-.31l-3.96-5Z"></path><path class="j" d="M78.49,53.98c-.09.19-.22.35-.39.49s-.36.24-.59.31-.48.11-.75.11c-.46,0-.86-.07-1.22-.22s-.71-.37-1.04-.68l.27-.31c.31.28.62.49.93.63s.67.21,1.09.21c.21,0,.4-.03.58-.08.18-.06.33-.13.45-.23.12-.1.22-.22.29-.35s.1-.29.1-.45v-.02c0-.15-.02-.28-.07-.4-.05-.12-.13-.23-.25-.32-.12-.1-.28-.18-.49-.26-.2-.08-.47-.15-.79-.21-.68-.14-1.16-.33-1.46-.58-.29-.25-.44-.58-.44-1v-.02c0-.21.05-.4.14-.58.09-.18.22-.34.38-.47.16-.13.35-.24.57-.31s.46-.11.72-.11c.41,0,.77.06,1.06.17.29.11.58.28.87.51l-.26.33c-.27-.23-.54-.39-.81-.49s-.56-.14-.87-.14c-.21,0-.4.03-.57.08s-.31.13-.43.23c-.12.1-.21.21-.28.34-.06.13-.1.26-.1.41v.02c0,.15.02.29.07.41.04.12.13.23.25.33.12.1.29.19.5.27.21.08.49.16.82.23.65.13,1.13.32,1.42.57.29.24.43.57.43.99v.02c0,.22-.05.43-.14.62Z"></path><path class="j" d="M83.6,54.81h-.42v-5.24h-1.96v-.39h4.34v.39h-1.96v5.24Z"></path><path class="j" d="M92.44,53.24h-3.32l-.72,1.58h-.43l2.62-5.67h.4l2.62,5.67h-.46l-.71-1.58ZM89.29,52.86h2.97l-1.48-3.26-1.49,3.26Z"></path><path class="j" d="M96.42,49.18h.42v5.24h3.3v.39h-3.72v-5.63Z"></path><path class="j" d="M103.01,49.18h.42v5.24h3.3v.39h-3.72v-5.63Z"></path><path class="j" d="M109.6,49.18h4v.39h-3.59v2.21h3.22v.39h-3.22v2.26h3.63v.39h-4.04v-5.63Z"></path><path class="j" d="M118.86,52.48h-1.84v2.33h-.42v-5.63h2.36c.31,0,.58.04.83.12.25.08.46.19.63.33.17.14.31.31.41.51.1.2.14.41.14.65v.02c0,.24-.04.45-.12.63-.08.19-.2.34-.35.48-.15.13-.32.24-.52.33s-.42.14-.66.17l1.86,2.4h-.53l-1.79-2.33ZM120.13,49.9c-.28-.22-.68-.33-1.19-.33h-1.92v2.53h1.9c.24,0,.45-.03.66-.09.2-.06.37-.14.52-.25.14-.11.26-.24.34-.4s.12-.34.12-.54v-.02c0-.38-.14-.68-.42-.9Z"></path><path class="l" d="M298.07,16.71v8.56c0,7.25,7.44,6.86,7.44,6.86h34.14v-6.76s-32.05,0-32.05,0c-2.14,0-2.19-2-2.19-2v-2.48h34.09v-4.18,1.33-4.18h-34.09v-2.48s.05-1.99,2.19-1.99h32.05V2.63h-34.14s-7.44-.39-7.44,6.86v8.56-1.33Z"></path><path class="l" d="M349.12,32.13v-11.23h34.09v-4.18,1.33-4.18h-34.09v-2.48s.05-1.99,2.19-1.99h32.05V2.63h-34.14s-7.44-.39-7.44,6.86v8.56-1.33,15.43l7.34-.02Z"></path><path class="l" d="M427.26,20.65l.02,4.94c0,6.84-7.84,6.53-7.84,6.53h-33.73v-6.9h32.84c1.7,0,1.54-1.19,1.54-1.19v-1.96c0-1.42-1.56-1.3-1.56-1.3h-25.38s-8.52.55-8.52-6.38v-4.48c0-7.57,7.41-7.29,7.41-7.29h34.2v6.76s-32.75,0-32.75,0c-1.83,0-1.55,1.57-1.55,1.57v1.5s-.28,1.46,1.67,1.46h26.34s7.25-.25,7.32,6.74"></path><g class="k"><rect class="h" x="245.71" y="4.06" width="50.25" height="49.54" transform="translate(209.2 294.13) rotate(-83)"></rect></g><path class="l" d="M317.97,39.74v3.25h-15.45c-.54,0-.8.17-.8.51v1.08c0,.34.27.51.8.51h11.69c2.8,0,4.2,1.11,4.2,3.34v1.91c0,2.26-1.41,3.39-4.22,3.39h-15.45v-3.25h15.45c.52,0,.79-.16.79-.49v-1.14c0-.34-.26-.51-.79-.51h-11.69c-2.81,0-4.22-1-4.22-2.99v-2.2c0-2.27,1.41-3.41,4.23-3.41h15.45Z"></path><path class="l" d="M330.16,53.73c-3.51,0-5.27-1.48-5.27-4.44v-5.09c0-2.97,1.75-4.46,5.27-4.46h10.81c3.51,0,5.27,1.49,5.27,4.46v5.09c0,2.96-1.76,4.44-5.27,4.44h-10.81ZM330.16,42.99c-1.22,0-1.84.4-1.84,1.21v5.09c0,.79.61,1.19,1.84,1.19h10.81c1.22,0,1.84-.4,1.84-1.19v-5.09c0-.8-.61-1.21-1.84-1.21h-10.81Z"></path><path class="l" d="M357,53.73c-2.81,0-4.22-1.13-4.22-3.39v-10.6h3.43v10.08c0,.44.26.66.79.66h15.25v3.25h-15.25Z"></path><path class="l" d="M394.42,50.99h-11.35l-1.54,2.75h-3.95l7.33-12.81c.1-.2.21-.37.32-.52.11-.15.24-.27.39-.37.15-.1.33-.17.54-.23s.47-.08.79-.08h3.53c.97,0,1.68.39,2.13,1.17l7.31,12.82h-3.94l-1.57-2.75ZM384.73,47.91h8.01l-2.43-4.27c-.13-.23-.27-.4-.43-.5-.16-.1-.32-.15-.48-.15h-1.35c-.37,0-.68.22-.93.66l-2.4,4.25Z"></path><path class="l" d="M405.6,39.74h16.85c2.69,0,4.04,1.14,4.04,3.41v1.26c0,2.37-1.35,3.55-4.04,3.55h-1.17l5.79,5.77h-4.72l-5.43-5.6h-7.88v5.6h-3.43v-13.99ZM409.02,42.99v2.24h13.52c.45,0,.68-.19.68-.56v-1.13c0-.36-.26-.55-.79-.55h-13.42Z"></path><line class="g" x1="171.92" y1="13.53" x2="201.65" y2="43.26"></line><line class="g" x1="201.65" y1="13.53" x2="171.92" y2="43.26"></line></g></svg>