<svg xmlns="http://www.w3.org/2000/svg" id="Layer_2" data-name="Layer 2" viewBox="0 0 90.29 90.29"><defs><style> .cls-1 { fill: none; } .cls-2 { fill: #fff; } .cls-3 { fill: #47c7ea; } </style></defs><g id="Layer_1-2" data-name="Layer 1"><g><g><path class="cls-2" d="m21.63,62.28h13.22c.73,0,1.32-.59,1.32-1.32v-10.57c0-.73-.59-1.32-1.32-1.32h-13.22c-.73,0-1.32.59-1.32,1.32v10.57c0,.73.59,1.32,1.32,1.32Zm1.32-10.57h10.57v7.93h-10.57v-7.93Z"></path><path class="cls-2" d="m41.46,54.34h1.32c.73,0,1.32-.59,1.32-1.32s-.59-1.32-1.32-1.32h-1.32c-.73,0-1.32.59-1.32,1.32s.59,1.32,1.32,1.32Z"></path><path class="cls-2" d="m48.06,54.34h1.32c.73,0,1.32-.59,1.32-1.32s-.59-1.32-1.32-1.32h-1.32c-.73,0-1.32.59-1.32,1.32s.59,1.32,1.32,1.32Z"></path><path class="cls-3" d="m77.14,33.2c0-1.91-.6-3.78-1.7-5.34,1.87-6.35-3.4-12.56-9.96-11.78-2.49-2.57-5.9-4.03-9.49-4.03-3.02,0-5.94,1.04-8.29,2.94-5.1-1.32-10.32,1.92-11.36,7.13-3.29,1.47-5.69,4.87-5.42,9.02l-19.28,12.86c-.61.4-.77,1.23-.37,1.83.4.61,1.22.77,1.83.37l.59-.39v29.69h-1.32c-.73,0-1.32.59-1.32,1.32s.59,1.32,1.32,1.32h64.76c.73,0,1.32-.59,1.32-1.32s-.59-1.32-1.32-1.32h-3.38c.46-.78.74-1.68.74-2.64,0-2.03-1.18-3.84-2.93-4.71,1.29-4.2-1.89-8.5-6.32-8.5-.45,0-.89.05-1.32.14v-9.39c5.3,0,9.48-4.47,9.24-9.59,2.47-1.72,3.97-4.56,3.97-7.59Zm-40.97-2.38l19.83,13.22v23.52h-3.97v-6.61c0-.73-.59-1.32-1.32-1.32h-10.57c-.73,0-1.32.59-1.32,1.32v6.61h-22.47v-23.52c7.5-5,12.81-8.54,19.83-13.22Zm27.18,44.67h-4.71v-21.54c.95-.28,1.84-.72,2.64-1.28v17.37c0,2.07.78,3.98,2.07,5.45Zm-21.89-13.22h7.93v13.22h-7.93v-13.22Zm10.57,7.93h3.97v5.29h-3.97v-5.29Zm-35.69,0h22.47v5.29h-22.47v-5.29Zm48.9-7.93c3.01,0,5.01,3.28,3.39,5.99-.49.81.01,1.85.95,1.99,1.29.18,2.27,1.3,2.27,2.6,0,1.46-1.19,2.64-2.64,2.64h-1.12c-2.46-.67-4.17-2.89-4.17-5.45v-7.51c.42-.15.86-.25,1.32-.25Zm5.88-23.32c-.47.26-.73.79-.66,1.32.55,4.28-3.05,7.96-7.4,7.4-.53-.07-1.05.19-1.32.66-.72,1.27-1.81,2.25-3.11,2.81v-5.35l.59.39c.61.41,1.43.24,1.83-.37.41-.61.24-1.43-.37-1.83l-15.27-10.18c.02-1.8,1.49-3.26,3.3-3.26,1.65,0,3.04,1.24,3.26,2.88.09.73.78,1.26,1.51,1.14,2.13-.33,3.82,1.32,3.82,3.25,0,.73.59,1.32,1.32,1.32s1.32-.59,1.32-1.32c0-3.18-2.51-5.78-5.65-5.94-.82-2.33-3.04-3.97-5.59-3.97-2.71,0-4.97,1.83-5.69,4.31l-6.13-4.09c-.44-.3-1.02-.3-1.47,0l-1.78,1.19c.44-2.29,2.06-4.22,4.32-5.01.48-.17.83-.6.88-1.1.46-4.19,4.69-6.9,8.73-5.5.45.16.96.06,1.32-.27,1.95-1.77,4.47-2.75,7.09-2.75,3.06,0,5.98,1.34,7.99,3.67.31.36.79.53,1.26.43,5.08-1.03,9.35,3.95,7.48,8.84-.17.45-.09.95.22,1.32,1,1.19,1.54,2.69,1.54,4.24,0,2.38-1.29,4.58-3.37,5.75Z"></path><path class="cls-3" d="m62.24,21.97c-.82-2.33-3.04-3.97-5.59-3.97-3.28,0-5.95,2.67-5.95,5.95,0,.73.59,1.32,1.32,1.32s1.32-.59,1.32-1.32c0-1.82,1.48-3.3,3.3-3.3,1.65,0,3.04,1.24,3.26,2.88.09.72.76,1.25,1.52,1.14,2.13-.33,3.82,1.32,3.82,3.25,0,.73.59,1.32,1.32,1.32s1.32-.59,1.32-1.32c0-3.18-2.51-5.78-5.65-5.94Z"></path></g><rect class="cls-1" width="90.29" height="90.29"></rect></g></g></svg>