<?xml version="1.0" encoding="UTF-8"?> <svg xmlns="http://www.w3.org/2000/svg" viewBox="0 0 50.26 50.26"><defs><style>.cls-1{fill:#2f266f;}.cls-2{fill:#fff;}</style></defs><g id="Layer_2" data-name="Layer 2"><g id="Layer_1-2" data-name="Layer 1"><path class="cls-1" d="M25.13,50.26A25.13,25.13,0,1,0,0,25.13,25.13,25.13,0,0,0,25.13,50.26"></path><path class="cls-2" d="M36.56,29.59l-.43.42h-.64V20.26h1.07Zm-3.47-9.33h1.22V30H33.09Zm-2.4,0h1.22V30H30.69Zm-2.4,0h1.22V30H28.29Zm-7.21,0H22.3V30H21.08Zm-2.4,0H19.9V30H18.68Zm-5,8.9v-8.9H15.1V30h-.4ZM17.5,30H16.28V20.26H17.5Zm7.2,0H23.48V20.26H24.7Zm1.19-9.75H27.1V30H25.89Zm11.67-2H11.72V30.08L14,32h23l1.62-1.56V18.27Z"></path></g></g></svg> 