<svg xmlns="http://www.w3.org/2000/svg" id="b" viewBox="0 0 173.35 85.5"><defs><style>.d{fill:none;}.e{fill:#ce1c24;}.f{fill:#3e3a39;}</style></defs><g id="c"><path class="f" d="M63.72,44.12h7.37v7.19c-2.07.18-4.16.39-6.05.39-4.52,0-7.55-.75-9.25-2.27-1.14-.96-1.71-2.46-1.71-4.55s.57-3.41,1.71-4.34c1.71-1.71,4.73-2.46,9.25-2.46,1.89,0,3.95.18,6.05.57v1.89c-1.32-.39-2.84-.57-4.52-.57-2.07,0-3.59.39-4.55.96-1.32.75-2.07,2.07-2.07,3.95,0,2.46.98,4.08,2.64,4.73,1.16.44,2.79.41,3.18.39,1.11-.05,1.78-.21,2.3-.39.26-.1.39-.39.39-.75v-2.82h-4.73v-1.91ZM72.22,44.87c0,2.07.57,3.59,1.71,4.55.75.75,1.89,1.32,3.41,1.71,1.32.39,2.64.57,3.77.57,1.32,0,2.64-.23,3.77-.57,1.5-.44,2.64-.93,3.39-1.71,1.14-.96,1.71-2.46,1.71-4.55s-.57-3.41-1.71-4.34c-1.71-1.5-3.95-2.27-6.8-2.27-1.32,0-2.66.05-3.95.39-1.58.39-2.84,1.14-3.59,1.89-1.14.93-1.71,2.27-1.71,4.34M78.09,44.87c0-1.5.47-2.74,1.32-3.59.85-.85,2.07-1.14,3.77-1.14,1.53,0,2.58.44,3.59,1.32.9.8,1.32,1.89,1.32,3.41s-.39,2.84-1.32,3.59-2.07,1.32-3.59,1.32c-1.71,0-2.87-.52-3.77-1.32-.8-.72-1.32-2.09-1.32-3.59M91.3,44.87c0,2.07.39,3.59,1.53,4.55.75.75,1.89,1.32,3.41,1.71,1.32.39,2.64.57,3.77.57,1.32,0,2.64-.18,3.95-.57,1.32-.39,2.46-.93,3.21-1.71,1.14-.96,1.71-2.46,1.71-4.55s-.57-3.41-1.71-4.34c-1.71-1.5-3.95-2.27-6.8-2.27-1.32,0-2.66.05-3.95.39-1.58.39-2.84,1.14-3.59,1.89-1.14.93-1.53,2.27-1.53,4.34M96.99,44.87c0-1.5.47-2.74,1.32-3.59.85-.85,2.07-1.14,3.77-1.14,1.53,0,2.74.47,3.59,1.32.85.85,1.32,1.89,1.32,3.41s-.39,2.84-1.32,3.59c-.96.75-2.07,1.32-3.59,1.32-1.71,0-2.87-.52-3.77-1.32-.8-.72-1.32-2.09-1.32-3.59M127.77,44.87c0,2.46-.75,4.16-2.27,5.09-1.32.75-3.21,1.32-5.66,1.32h-4.63c-.75,0-1.21-.05-1.71-.16-.93-.18-1.47-.49-1.99-.8-.67-.41-.96-1.32-.96-2.27v-9.46h9.25c2.46,0,4.34.39,5.66,1.32,1.55.98,2.3,2.69,2.3,4.96M120.22,49.6c1.32,0,2.02-.13,2.53-.34,1.73-.67,2.56-2.12,2.56-4.39,0-1.71-.47-3.21-2.07-3.95-.54-.26-1.14-.39-1.89-.39h-5.3v7.75c0,.57.57.93,1.71,1.14.57.08,1.32.18,2.46.18M143.64,47.51v-8.89h2.46v12.67h-4.16c-.39,0-.78-.1-1.16-.26-.54-.23-.72-.49-1.11-.88l-1.89-1.89-2.84,3.02h-.57c-.39-.03-.98-.05-1.71-.18-1.14-.23-1.86-.59-2.27-.93-.52-.44-.96-1.14-.96-2.07v-9.46h5.48v8.89l3.02-3.02h1.5c.39,0,.8.1,1.16.31.52.28.72.47,1.11.83l1.94,1.86ZM157.63,51.28h6.05v-1.89h-8.3c-.39,0-.78-.05-1.14-.36-.23-.21-.39-.41-.39-.78v-2.84h9.07v-1.89h-9.07v-3.02h9.82v-1.89h-15.3v9.46c0,2.07,1.71,3.02,4.91,3.21h4.34Z"></path><polygon class="e" points="40.12 42.59 26.89 29.39 13.68 42.59 26.89 55.83 36.35 46.58 26.89 37.12 21.41 42.59 26.89 48.07 28.59 46.58 24.51 42.49 26.89 40.14 33.11 46.58 26.89 52.62 16.88 42.59 26.89 32.59 41.05 46.58 26.89 60.35 9.13 42.59 26.89 24.84 44.85 42.59 40.12 42.59"></polygon><polygon class="f" points="94.5 56.22 92.95 58.03 92.41 56.22 91.48 56.22 92.33 58.78 91.84 60.56 92.7 60.56 93.19 58.78 95.44 56.22 94.5 56.22"></polygon><path class="f" d="M99.67,56.76h0c-.13-.18-.31-.34-.54-.44-.23-.1-.52-.16-.85-.16s-.65.05-.96.16c-.28.1-.57.26-.8.44-.23.18-.44.44-.59.7-.16.26-.28.57-.39.9-.08.34-.13.62-.1.9s.08.52.21.72.31.36.54.47.54.18.88.18.65-.05.93-.16.57-.26.8-.47.44-.44.62-.72c.18-.28.31-.57.39-.9.1-.34.13-.65.1-.9-.03-.28-.1-.52-.23-.72M98.92,58.36c-.05.23-.16.44-.26.62-.1.18-.23.34-.36.49-.13.13-.31.23-.47.31-.18.08-.39.13-.62.13-.21,0-.39-.05-.52-.1-.13-.08-.23-.18-.31-.31-.08-.13-.1-.31-.1-.49s.03-.41.08-.62c.05-.23.16-.44.26-.62.1-.18.23-.34.36-.47s.31-.23.47-.28c.18-.08.39-.1.59-.1s.39.03.52.1.23.18.31.28c.08.13.1.28.13.47.03.16-.03.36-.08.59"></path><path class="f" d="M103.73,58.85c-.05.18-.13.34-.21.49-.08.13-.18.23-.31.34-.1.08-.23.16-.36.18-.28.08-.57.08-.78,0-.1-.05-.18-.1-.26-.18-.05-.08-.1-.18-.1-.31-.03-.13,0-.28.05-.47l.72-2.66h-.85l-.75,2.74c-.08.28-.1.54-.08.75s.1.39.23.52.28.23.49.31c.21.08.41.1.67.1s.52-.03.75-.1c.26-.08.47-.18.7-.31.21-.16.39-.34.54-.54.16-.21.28-.47.36-.78l.72-2.66h-.85l-.7,2.58Z"></path><path class="f" d="M108.8,58.6c.16-.08.28-.18.41-.28s.21-.23.31-.39c.08-.13.13-.28.18-.41.05-.21.08-.39.05-.54-.03-.16-.1-.31-.21-.41s-.26-.21-.44-.26-.39-.08-.65-.08h-1.68l-1.19,4.34h.85l.47-1.71h.65l.59,1.71h.98l-.7-1.81c.1-.05.23-.1.36-.16M108.7,57.79c-.05.08-.1.16-.18.21s-.18.1-.28.13-.23.05-.36.05h-.8l.36-1.29h.78c.26,0,.44.05.54.18.1.1.13.26.08.47-.03.08-.08.18-.13.26"></path><path class="f" d="M115.91,58.54c-.05-.1-.13-.18-.21-.23-.08-.05-.18-.1-.28-.16s-.21-.08-.34-.1-.23-.05-.34-.1c-.13-.03-.26-.08-.39-.1-.1-.03-.21-.08-.28-.13-.08-.05-.13-.1-.16-.16s-.03-.13,0-.23c.03-.08.05-.16.1-.21l.16-.16c.08-.05.16-.08.28-.1.1-.03.26-.05.41-.05.13,0,.26.03.36.03.08.03.16.05.21.1s.1.1.1.16c.03.05.03.13.03.23v.08l.85-.13v-.1c0-.18-.03-.31-.08-.44-.05-.13-.13-.26-.23-.34s-.26-.16-.44-.21c-.18-.05-.39-.08-.65-.08-.23,0-.44.03-.65.08-.21.05-.41.13-.59.21-.18.1-.34.23-.47.39s-.23.34-.28.54c-.05.16-.05.28-.05.41s.05.23.08.31c.05.08.1.16.21.23.08.05.18.1.26.16.1.05.21.08.31.1l.08.03c.08.03.16.05.23.08l.41.1c.13.03.23.08.34.13.08.05.16.1.18.18.03.08.05.16,0,.26-.03.1-.08.18-.13.26s-.13.13-.23.18-.21.08-.34.1-.26.05-.41.05c-.18,0-.31-.03-.44-.05-.1-.03-.21-.08-.26-.13s-.1-.13-.13-.18c-.03-.08-.03-.16-.03-.26v-.08l-.85.16v.1c-.03.36.1.67.36.85.23.21.65.28,1.16.28.31,0,.57-.03.8-.1s.47-.16.62-.26c.18-.13.34-.26.44-.41.1-.16.21-.34.26-.52.05-.16.05-.31.05-.44.03-.13,0-.23-.05-.34"></path><path class="f" d="M121.41,56.76h0c-.13-.18-.31-.34-.54-.44-.23-.1-.52-.16-.85-.16s-.65.05-.96.16c-.28.1-.57.26-.8.44s-.44.44-.59.7c-.16.28-.31.57-.39.9s-.13.62-.1.9.08.52.21.72.31.36.54.47.54.18.88.18.65-.05.93-.16.57-.26.8-.47.44-.44.62-.72c.18-.28.31-.59.39-.9.1-.34.13-.65.1-.9-.03-.28-.1-.52-.23-.72M120.66,58.36c-.05.23-.16.44-.26.62h0c-.1.18-.23.34-.36.49-.13.13-.28.23-.47.31-.18.08-.39.13-.62.13-.21,0-.39-.05-.52-.1-.13-.08-.23-.18-.31-.31-.08-.13-.1-.31-.1-.49s.03-.41.08-.62c.05-.23.16-.44.26-.62.1-.18.23-.34.36-.47s.31-.23.47-.28c.18-.08.39-.1.59-.1s.39.03.52.1.23.18.31.28c.08.13.1.28.13.47.03.16,0,.36-.08.59"></path><polygon class="f" points="124.23 56.22 123.4 56.22 122.21 60.56 125.01 60.56 125.21 59.86 123.25 59.86 124.23 56.22"></polygon><path class="f" d="M129.27,56.22h-.9l-2.82,4.34h.88l.75-1.16h1.58l.1,1.16h.88l-.44-4.29-.03-.05ZM128.73,58.7h-1.16l1.01-1.63.16,1.63Z"></path><path class="f" d="M133.87,58.6c.16-.08.28-.18.41-.28s.23-.23.31-.36c.08-.13.13-.28.18-.41.05-.21.08-.39.05-.54-.03-.16-.1-.31-.21-.41s-.26-.21-.44-.26-.39-.1-.65-.1h-1.68l-1.19,4.34h.85l.47-1.71h.65l.59,1.71h.98l-.7-1.81c.1-.05.23-.1.36-.16M132.5,56.89h.78c.26,0,.44.05.54.18.1.1.13.26.08.47-.03.1-.08.18-.13.26s-.1.16-.18.21c-.08.05-.18.1-.28.16-.1.03-.23.05-.36.05h-.8l.36-1.32Z"></path><polygon class="f" points="138.71 58.7 140.75 58.7 140.93 58 138.89 58 139.17 56.91 141.39 56.91 141.6 56.22 138.52 56.22 137.34 60.56 140.54 60.56 140.72 59.86 138.37 59.86 138.71 58.7"></polygon><path class="f" d="M145.35,58.93c-.05.16-.08.34-.13.49l-1.34-3.18-.03-.05h-.9l-1.19,4.34h.78l.75-2.77c.05-.13.08-.28.1-.44l1.34,3.21h.93l1.19-4.34h-.78l-.72,2.74Z"></path><path class="f" d="M149.38,58.93h1.11l-.16.59c-.05.05-.1.08-.18.13s-.18.1-.26.13c-.1.05-.21.08-.34.1s-.23.05-.36.05c-.21,0-.36-.05-.49-.1-.13-.08-.23-.18-.28-.31-.08-.13-.1-.31-.1-.49s.03-.41.1-.62c.08-.23.16-.44.23-.65.1-.18.21-.34.34-.47s.28-.23.44-.28c.16-.08.36-.1.57-.1.13,0,.26.03.36.05s.18.08.23.13c.08.05.1.13.16.21.05.08.08.16.08.26l.03.08.85-.28-.03-.1c-.03-.16-.08-.28-.13-.41s-.16-.23-.28-.34-.26-.18-.44-.23c-.18-.05-.39-.08-.62-.08-.34,0-.65.05-.93.16s-.54.26-.78.44-.41.44-.57.7c-.16.26-.28.57-.36.9-.08.31-.13.62-.13.9s.08.52.18.72c.13.21.28.36.52.47s.52.18.85.18c.21,0,.41-.03.59-.05.18-.05.39-.1.54-.16.18-.08.34-.16.49-.23.16-.1.28-.18.39-.28l.03-.03.44-1.6h-1.91l-.18.62Z"></path><polygon class="f" points="152.22 60.56 153.08 60.56 154.24 56.22 153.39 56.22 152.22 60.56"></polygon><path class="f" d="M158.14,58.93c-.05.16-.08.31-.13.49l-1.34-3.18-.03-.05h-.9l-1.19,4.34h.78l.75-2.77c.05-.13.08-.28.1-.44l1.32,3.15.03.05h.93l1.19-4.34h-.78l-.72,2.74Z"></path><polygon class="f" points="161.01 59.86 161.32 58.7 163.37 58.7 163.57 58 161.5 58 161.81 56.91 164.04 56.91 164.22 56.22 161.14 56.22 159.98 60.56 163.16 60.56 163.37 59.86 161.01 59.86"></polygon><rect class="d" width="173.35" height="85.5"></rect></g></svg>