<svg xmlns="http://www.w3.org/2000/svg" id="b" viewBox="0 0 173.35 85.5"><defs><style>.d{fill:none;}.e{fill:#f48120;}</style></defs><g id="c"><rect class="d" width="173.35" height="85.5"></rect><path class="e" d="M12.52,50.85h15.09c.25,0,.49-.02.73-.05,1.64-.26,2.52-1.49,2.57-2.98.04-1.16.03-2.32,0-3.48-.02-.76-.25-1.45-.77-2.03-.64-.71-1.47-.99-2.39-.99-3.9-.02-7.8,0-11.7,0-.69,0-1.01-.32-1.01-1.01v-1.85c0-.68.33-1.01,1.01-1.02h12.26c.65,0,1.15-.25,1.45-.8.32-.58.58-1.19.86-1.8.03-.07.03-.15.04-.24h-14.57c-.38,0-.76.03-1.13.1-1.49.28-2.37,1.36-2.45,2.7-.07,1.2-.04,2.4,0,3.6.02.71.3,1.34.79,1.87.67.71,1.53.96,2.46.96,3.9.02,7.8,0,11.7,0,.55,0,.88.32.88.87v2.35c0,.7-.27.97-.97.97h-12.39c-.69,0-1.25.27-1.59.89-.27.5-.5,1.03-.75,1.55-.05.11-.08.23-.13.38h0ZM95.8,34.6h-.37c-5.12,0-10.25,0-15.38-.01-.52,0-.85.21-1.08.62-.14.24-.26.48-.35.73-.5,1.44-.62,2.96-.66,4.46-.05,1.72,0,3.43.04,5.15.02,1.09.15,2.18.4,3.24.14.61.33,1.21.73,1.71.19.24.41.35.74.35,4.95-.01,9.89-.01,14.84,0,.36,0,.56-.14.7-.43.08-.16.17-.33.19-.5.13-.79.31-1.59.34-2.38.04-1.47.09-2.94-.13-4.4-.08-.52-.18-1.06-.46-1.52-.14-.22-.31-.33-.59-.33-2.37.01-4.75,0-7.12,0-.55,0-.99.22-1.26.69-.3.52-.53,1.09-.79,1.64-.03.05-.02.12-.04.2h.29c2.34,0,4.68,0,7.02,0,.25,0,.37.09.41.32.02.08.05.16.05.24.04.8.08,1.61.09,2.41,0,.33-.08.65-.14.97-.03.19-.15.26-.35.26h-11.72c-.19,0-.3-.07-.34-.25-.07-.28-.16-.56-.18-.84-.08-1.21-.17-2.43-.19-3.64-.02-1.15.03-2.3.08-3.45.03-.62.1-1.24.2-1.85.09-.56.14-.58.71-.58,3.95,0,7.9,0,11.84,0,.7,0,1.21-.27,1.55-.87.19-.34.37-.68.54-1.02.14-.28.24-.59.37-.94h-.02ZM110.96,43.91s.02-.05.03-.07h.26c1.24,0,2.49-.02,3.73.01.47.01.72-.19.89-.58.06-.15.12-.3.17-.46.32-1.09.31-2.21.33-3.32.02-.97-.05-1.94-.15-2.9-.05-.5-.22-.99-.38-1.46-.09-.27-.27-.52-.64-.52h-14.98c-.2,0-.27.06-.27.27.01.73,0,1.46,0,2.19,0,.24.12.37.36.37h12.8c.48,0,.57.05.62.52.11.97.13,1.93-.03,2.9-.07.44-.12.46-.57.46h-12.88c-.2,0-.31.01-.31.27.01,3,0,6.01,0,9,0,.2.06.28.27.27.64-.01,1.29,0,1.93,0,.23,0,.35-.12.35-.35v-6.37c0-.24.07-.31.31-.31,1.29.01,2.59.01,3.88,0,.21,0,.35.07.49.21,2.09,2.09,4.18,4.18,6.27,6.27.37.37.79.56,1.32.55.94-.02,1.9,0,2.85,0h.31c-2.36-2.35-4.67-4.65-6.97-6.94h0ZM59.31,38.3c.14.13.22.19.28.27,3.02,3.01,6.04,6.03,9.06,9.04.91.91,1.82,1.81,2.72,2.72.36.36.77.55,1.28.53.48-.02.96-.01,1.43,0,.19,0,.26-.06.26-.26v-15.74c0-.22-.08-.26-.28-.26-.71.01-1.42,0-2.13,0-.22,0-.33.11-.33.32v11.87c0,.1-.01.2-.02.36-.13-.11-.2-.18-.28-.25-1.42-1.42-2.85-2.84-4.27-4.26-2.47-2.47-4.95-4.93-7.41-7.4-.44-.44-.94-.67-1.56-.65-.39.02-.79,0-1.19,0-.21,0-.32.11-.32.33v15.59q0,.33.33.33h2.08c.22,0,.33-.11.33-.33v-12.22h0ZM145.02,47.36v-12.39c0-.24-.11-.36-.34-.36h-1.91c-.22,0-.33.11-.33.32v15.64c0,.23.07.3.29.29.45-.02.91-.03,1.36,0,.62.04,1.09-.2,1.52-.63,1.92-1.93,3.85-3.85,5.79-5.78.3-.3.24-.29.54,0,1.96,1.96,3.93,3.92,5.89,5.88.34.34.74.53,1.23.52.49-.02.97,0,1.46,0,.22,0,.34-.11.34-.34v-15.62c0-.23-.06-.3-.29-.29-.62.02-1.25,0-1.88,0-.25,0-.38.12-.38.37v12.04c0,.11-.02.22-.03.33l-.07.03c-2.18-2.18-4.37-4.36-6.6-6.58-2.2,2.19-4.37,4.37-6.59,6.58h0ZM34.87,42.01c0,2.34,0,4.67,0,7.01,0,.3.11.52.33.71.41.37.92.58,1.44.73,1.55.46,3.16.6,4.76.62,1.97.03,3.95-.01,5.93-.09.96-.04,1.92-.23,2.87-.4.66-.12,1.31-.35,1.84-.79.22-.18.41-.38.41-.7v-14.24c0-.2-.07-.25-.26-.25-.71.01-1.42,0-2.13,0-.23,0-.35.12-.35.36v12.74c0,.57-.02.59-.57.72-.03,0-.06.01-.1.01-1.07.09-2.14.26-3.21.27-1.93.02-3.85-.03-5.78-.08-.68-.02-1.35-.14-2.03-.25-.38-.06-.43-.14-.43-.52v-12.9c0-.22-.11-.33-.32-.33h-2.08c-.22,0-.33.11-.33.32v7.08h.01ZM138.28,40.93c-.06,0-.09,0-.12.02-.57.26-1.14.5-1.7.78-.64.32-.9.87-.9,1.57.01,1.46,0,2.93,0,4.39,0,.57-.03.61-.59.72-.02,0-.03,0-.05,0-1.1.09-2.2.25-3.31.28-2.25.05-4.49.08-6.74-.14-.46-.04-.9-.15-1.35-.24-.23-.05-.31-.19-.3-.43.01-.82,0-1.64,0-2.47,0-.09-.01-.19-.02-.31-.75.22-1.4.54-2.02.94-.44.29-.66.7-.66,1.22,0,.57.02,1.13,0,1.7-.02.36.13.59.39.8.41.33.89.52,1.39.67,1.57.46,3.19.59,4.8.62,2.2.04,4.42.1,6.61-.13.98-.1,1.94-.23,2.88-.51.55-.17,1.07-.38,1.48-.8.15-.16.22-.33.22-.55,0-2.62,0-5.25,0-7.87,0-.09,0-.17-.01-.27h0ZM120.52,44.56c.1-.02.17-.02.23-.05.59-.28,1.18-.54,1.75-.85.5-.27.72-.73.72-1.31-.01-1.54,0-3.08,0-4.61,0-.48.01-.49.47-.63.05-.02.11-.04.17-.04,1.03-.09,2.06-.26,3.09-.27,2.36-.04,4.72-.1,7.08.13.43.04.84.14,1.26.23.2.04.29.16.29.38-.02.85,0,1.7,0,2.54v.27c.07-.01.1,0,.13-.02.72-.23,1.4-.54,2.01-.98.39-.28.59-.68.58-1.17,0-.57-.02-1.13,0-1.7.02-.34-.1-.62-.38-.78-.44-.25-.88-.51-1.36-.67-1.5-.48-3.07-.6-4.62-.64-1.86-.04-3.72-.02-5.58.05-1.06.04-2.11.19-3.16.35-.7.1-1.39.3-1.99.68-.38.24-.7.49-.69,1.04.02,2.57.01,5.13.01,7.7v.34h-.01Z"></path><path class="e" d="M12.52,50.85c.05-.15.07-.27.13-.38.25-.52.48-1.04.75-1.55.34-.62.9-.89,1.59-.89h12.39c.69,0,.97-.27.97-.97v-2.35c0-.55-.33-.87-.88-.87-3.9,0-7.8,0-11.7,0-.93,0-1.8-.25-2.46-.96-.49-.53-.78-1.16-.79-1.87-.03-1.2-.06-2.4,0-3.6.07-1.34.96-2.43,2.46-2.69.37-.07.75-.09,1.13-.1,4.76,0,9.51,0,14.27,0h.3c-.02.09-.01.17-.04.24-.28.6-.54,1.21-.86,1.8-.3.56-.81.8-1.45.8-4.01,0-8.01,0-12.02,0h-.25c-.69.01-1.01.34-1.01,1.02v1.85c0,.69.31,1.01,1.01,1.01,3.9,0,7.8,0,11.7,0,.92,0,1.75.29,2.39.99.52.58.76,1.27.77,2.03.03,1.16.04,2.32,0,3.48-.05,1.49-.93,2.72-2.57,2.98-.24.04-.49.05-.73.05h-15.1Z"></path><path class="e" d="M95.8,34.6c-.14.36-.24.66-.37.94-.16.35-.35.69-.54,1.02-.34.59-.85.87-1.55.87-3.95-.01-7.9,0-11.84,0-.57,0-.62.02-.71.58-.09.61-.17,1.23-.2,1.85-.05,1.15-.1,2.3-.08,3.45.02,1.21.11,2.43.19,3.64.02.28.12.56.18.84.04.17.15.25.34.25h11.72c.2,0,.32-.07.35-.26.05-.32.14-.65.14-.97,0-.8-.05-1.61-.09-2.41,0-.08-.03-.16-.05-.24-.04-.23-.16-.32-.41-.32-2.34.01-4.68,0-7.02,0h-.29c.02-.08.01-.15.04-.2.26-.55.49-1.11.79-1.64.26-.47.71-.69,1.26-.69,2.37,0,4.75,0,7.12,0,.28,0,.45.1.59.33.28.47.38.99.46,1.52.23,1.46.17,2.93.13,4.4-.02.8-.2,1.59-.34,2.38-.03.17-.12.34-.19.5-.14.29-.35.43-.7.43-4.95-.01-9.89-.01-14.84,0-.33,0-.55-.11-.74-.35-.4-.5-.59-1.1-.73-1.71-.25-1.07-.38-2.15-.4-3.24-.03-1.72-.08-3.44-.04-5.15.04-1.51.16-3.02.66-4.46.09-.25.21-.5.35-.73.24-.41.56-.62,1.08-.62,5.12.02,10.25.01,15.38.01h.38Z"></path><path class="e" d="M110.96,43.91c2.3,2.29,4.61,4.59,6.97,6.94h-.31c-.95,0-1.9-.02-2.85,0-.54.01-.96-.18-1.32-.55-2.09-2.09-4.18-4.17-6.27-6.27-.14-.14-.28-.22-.49-.21-1.29.01-2.59.01-3.88,0-.24,0-.31.07-.31.31,0,2.12,0,4.24,0,6.37,0,.23-.12.35-.35.35-.64,0-1.29,0-1.93,0-.21,0-.27-.07-.27-.27,0-3,0-6.01,0-9,0-.26.12-.27.31-.27h12.88c.45,0,.49-.03.57-.46.16-.96.14-1.93.03-2.9-.05-.47-.15-.52-.62-.52h-12.8c-.24,0-.36-.12-.36-.37,0-.73,0-1.46,0-2.19,0-.2.07-.27.27-.27h14.98c.37,0,.54.25.64.52.17.48.34.97.38,1.46.09.96.16,1.93.15,2.9-.02,1.11-.01,2.24-.33,3.32-.05.16-.1.31-.17.46-.17.39-.42.59-.89.58-1.24-.03-2.49-.01-3.73-.01h-.26s-.02.05-.03.07h0Z"></path><path class="e" d="M59.31,38.3v12.22c0,.22-.11.33-.33.33h-2.08q-.33,0-.33-.33v-15.59c0-.22.11-.33.32-.33.39,0,.79.01,1.19,0,.62-.02,1.12.2,1.56.65,2.46,2.47,4.94,4.93,7.41,7.4,1.42,1.42,2.85,2.84,4.27,4.26.07.07.15.14.28.25,0-.16.02-.26.02-.36v-11.87c0-.21.11-.32.33-.32.71,0,1.42,0,2.13,0,.19,0,.28.04.28.26,0,5.25,0,10.49,0,15.74,0,.19-.06.26-.26.26-.48-.01-.96-.02-1.43,0-.51.02-.93-.17-1.28-.53-.91-.91-1.82-1.82-2.72-2.72-3.02-3.01-6.04-6.03-9.06-9.04-.07-.07-.15-.14-.28-.27h0Z"></path><path class="e" d="M145.02,47.36c2.22-2.21,4.39-4.38,6.59-6.58,2.24,2.23,4.42,4.41,6.6,6.58l.07-.03c.01-.11.03-.22.03-.33v-12.04c0-.25.13-.37.38-.37.62,0,1.25.01,1.88,0,.23,0,.29.07.29.29,0,2.11,0,4.21,0,6.32v9.3c0,.23-.11.34-.34.34-.49,0-.97-.01-1.46,0-.49.02-.89-.17-1.23-.52-1.96-1.96-3.93-3.92-5.89-5.88-.3-.3-.24-.31-.54,0-1.93,1.93-3.86,3.85-5.79,5.78-.43.43-.9.67-1.52.63-.45-.03-.91-.02-1.36,0-.23,0-.29-.06-.29-.29,0-3.32,0-6.65,0-9.97v-5.67c0-.21.11-.32.33-.32h1.91c.23,0,.34.12.34.36v12.39h0Z"></path><path class="e" d="M34.87,42.01v-7.08c0-.21.11-.32.33-.32h2.08c.21,0,.32.11.32.33v12.9c0,.39.04.47.43.52.67.1,1.35.23,2.03.25,1.93.06,3.85.1,5.78.08,1.07-.01,2.14-.18,3.21-.27.03,0,.07,0,.1-.01.55-.13.57-.16.57-.72v-12.74c0-.23.12-.35.35-.36.71,0,1.42,0,2.13,0,.19,0,.26.05.26.25v14.24c0,.31-.19.52-.41.7-.54.44-1.18.67-1.84.79-.95.18-1.91.36-2.87.4-1.97.08-3.95.13-5.93.09-1.6-.03-3.2-.16-4.76-.62-.52-.16-1.02-.36-1.44-.73-.22-.19-.33-.4-.33-.71.01-2.34,0-4.67,0-7.01h-.01Z"></path><path class="e" d="M138.28,40.93c0,.1.01.19.01.27v7.87c0,.23-.07.39-.22.55-.41.43-.93.64-1.48.8-.94.28-1.91.41-2.88.51-2.2.23-4.41.16-6.61.13-1.62-.03-3.23-.16-4.8-.62-.5-.15-.98-.34-1.39-.67-.26-.2-.4-.45-.39-.8.03-.57,0-1.13,0-1.7,0-.52.23-.94.66-1.22.61-.4,1.27-.72,2.02-.94,0,.12.02.22.02.31,0,.82.01,1.64,0,2.47,0,.24.07.38.3.43.45.09.9.2,1.35.24,2.24.22,4.49.18,6.74.14,1.11-.03,2.21-.18,3.31-.28.02,0,.03,0,.05,0,.56-.11.59-.15.59-.72,0-1.46,0-2.93,0-4.39,0-.7.26-1.25.9-1.57.56-.28,1.13-.52,1.7-.78.03-.01.06,0,.12-.02h0Z"></path><path class="e" d="M120.52,44.56v-.34c0-2.57.01-5.13-.01-7.7,0-.54.31-.8.69-1.04.61-.38,1.3-.58,1.99-.68,1.04-.15,2.1-.31,3.16-.35,1.86-.07,3.72-.09,5.58-.05,1.56.04,3.12.15,4.62.64.48.15.92.41,1.36.67.27.16.39.44.38.78-.02.57-.01,1.13,0,1.7,0,.49-.19.89-.58,1.17-.61.44-1.29.76-2.01.98-.03.01-.06,0-.13.02v-.27c0-.85-.01-1.7,0-2.54,0-.23-.09-.35-.29-.38-.42-.08-.83-.18-1.26-.23-2.36-.24-4.72-.17-7.08-.13-1.03.02-2.06.18-3.09.27-.06,0-.11.03-.17.04-.46.13-.47.15-.47.63,0,1.54,0,3.08,0,4.61,0,.58-.22,1.03-.72,1.31-.57.31-1.17.57-1.75.85-.06.03-.13.03-.23.05h.01Z"></path></g></svg>