<?xml version="1.0" encoding="UTF-8"?> <svg xmlns="http://www.w3.org/2000/svg" viewBox="0 0 99.98 99.98"><defs><style>.cls-1{fill:#2f266f;}.cls-2{fill:none;}</style></defs><g id="Layer_2" data-name="Layer 2"><g id="Layer_1-2" data-name="Layer 1"><path class="cls-1" d="M50,40A12.34,12.34,0,0,0,62.37,27.65c0-4.89-6.57-14.51-10.9-21-.95-1.61-1.95-1.56-2.89,0-4.34,6.45-10.9,16.13-10.9,21A12.33,12.33,0,0,0,50,40m3.73-5.84A7.45,7.45,0,0,0,57.53,28a1.48,1.48,0,0,1,2.95.17,11.12,11.12,0,0,1-1.56,4.95,10.62,10.62,0,0,1-3.73,3.62,1.49,1.49,0,0,1-1.44-2.62"></path><path class="cls-1" d="M33.24,70.89V59.69H35.7v11.2Z"></path><path class="cls-1" d="M42.76,67.53H40.88v3.36H38.42V59.69H43c2.67,0,4.29,1.58,4.29,3.87v0C47.29,66.19,45.27,67.53,42.76,67.53Zm2-3.92c0-1.1-.77-1.7-2-1.7H40.88v3.43h2a1.74,1.74,0,0,0,1.95-1.7Z"></path><path class="cls-1" d="M55.67,62.63a3.46,3.46,0,0,0-2.29-.89c-1.39,0-2.09,1.12-2.25,2.59a3.85,3.85,0,0,1,2.32-.72c2.22,0,3.93,1.23,3.93,3.59a4,4,0,0,1-4.27,3.89,4.21,4.21,0,0,1-3.23-1.21c-.82-.81-1.33-2-1.33-4.25,0-3.48,1.57-6.13,4.91-6.13A5.19,5.19,0,0,1,57,60.73Zm-2.69,3c-1.21,0-1.92.67-1.92,1.63A1.72,1.72,0,0,0,53,69c1.22,0,1.92-.69,1.92-1.66S54.2,65.66,53,65.66Z"></path><path class="cls-1" d="M60,59.69h6.88v2.16H62.07l-.13,1.94a5.17,5.17,0,0,1,1.47-.2c2.21,0,3.93,1.06,3.93,3.61,0,2.38-1.69,3.89-4.26,3.89a5.78,5.78,0,0,1-4.2-1.69l1.49-1.77A3.91,3.91,0,0,0,63,68.84c1.16,0,1.88-.56,1.88-1.56s-.79-1.54-2-1.54a4.9,4.9,0,0,0-1.87.41l-1.42-.94Z"></path><path class="cls-1" d="M34.19,90.09l-2.4-3.58H29.85v3.58H27.39V78.89h5.12c2.64,0,4.23,1.39,4.23,3.7v0a3.48,3.48,0,0,1-2.4,3.47l2.73,4Zm.05-7.38c0-1-.74-1.6-1.94-1.6H29.85v3.22h2.5c1.2,0,1.89-.64,1.89-1.58Z"></path><path class="cls-1" d="M43.65,90.09v-.93a3.31,3.31,0,0,1-2.6,1.09,2.65,2.65,0,0,1-2.94-2.62v0c0-1.88,1.42-2.74,3.46-2.74a6,6,0,0,1,2.09.35v-.14c0-1-.62-1.57-1.84-1.57a6.29,6.29,0,0,0-2.37.46l-.61-1.85a7.56,7.56,0,0,1,3.33-.69c2.66,0,3.83,1.37,3.83,3.7v5Zm0-3.45a3.62,3.62,0,0,0-1.55-.32c-1,0-1.68.41-1.68,1.18v0c0,.66.55,1,1.33,1,1.14,0,1.9-.62,1.9-1.5Z"></path><path class="cls-1" d="M50.91,90.24c-1.49,0-2.5-.59-2.5-2.58V83.59h-1V81.51h1V79.32h2.44v2.19h2v2.08h-2v3.67c0,.56.24.83.78.83a2.48,2.48,0,0,0,1.2-.3v1.95A3.52,3.52,0,0,1,50.91,90.24Z"></path><path class="cls-1" d="M62.54,86.65h-6a2,2,0,0,0,2.1,1.68,2.78,2.78,0,0,0,2.08-.88l1.39,1.24a4.53,4.53,0,0,1-8-2.84v0a4.27,4.27,0,0,1,4.24-4.47c2.86,0,4.18,2.23,4.18,4.66v0A5.86,5.86,0,0,1,62.54,86.65ZM58.4,83.31a1.91,1.91,0,0,0-1.86,1.82h3.67A1.84,1.84,0,0,0,58.4,83.31Z"></path><path class="cls-1" d="M70.5,90.09V88.86a3.17,3.17,0,0,1-2.68,1.39c-2,0-3.9-1.56-3.9-4.43v0c0-2.87,1.87-4.44,3.9-4.44a3.33,3.33,0,0,1,2.68,1.28V78.41h2.43V90.09Zm0-4.3a2.11,2.11,0,1,0-4.18,0v0a2.11,2.11,0,1,0,4.18,0Z"></path><rect class="cls-2" width="99.98" height="99.98"></rect></g></g></svg> 