<svg xmlns="http://www.w3.org/2000/svg" id="Layer_2" data-name="Layer 2" viewBox="0 0 90.29 90.29"><defs><style> .cls-1 { fill: none; } .cls-2 { fill: #fff; } .cls-3 { fill: #47c7ea; } </style></defs><g id="Layer_1-2" data-name="Layer 1"><g><rect class="cls-1" width="90.29" height="90.29"></rect><g><path class="cls-3" d="m67.21,10.67H23.08c-2.28,0-4.14,1.86-4.14,4.14v52.4c0,2.28,1.86,4.14,4.14,4.14h4.14v6.89c0,.76.62,1.38,1.38,1.38s1.38-.62,1.38-1.38v-6.89h2.76v6.89c0,.76.62,1.38,1.38,1.38s1.38-.62,1.38-1.38v-6.89h19.31v6.89c0,.76.62,1.38,1.38,1.38s1.38-.62,1.38-1.38v-6.89h2.76v6.89c0,.76.62,1.38,1.38,1.38s1.38-.62,1.38-1.38v-6.89h4.14c2.28,0,4.14-1.86,4.14-4.14V14.81c0-2.28-1.86-4.14-4.14-4.14Zm-44.13,2.76h44.13c.76,0,1.38.62,1.38,1.38v37.23h-12.5c-.43-3.39-2.44-6.44-5.42-8.16v-19.42c0-3.04-2.47-5.52-5.52-5.52s-5.52,2.47-5.52,5.52v19.41c-3,1.73-4.98,4.77-5.41,8.16h-12.51V14.81c0-.76.62-1.38,1.38-1.38Zm25.61,32.52c2.87,1.37,4.73,4.3,4.73,7.47,0,4.7-3.9,8.39-8.41,8.27-4.33-.07-7.97-3.65-8.13-7.97-.12-3.3,1.74-6.35,4.72-7.77.48-.23.79-.71.79-1.25v-20.25c0-1.52,1.24-2.76,2.76-2.76s2.76,1.24,2.76,2.76v20.25c0,.53.31,1.02.79,1.25Zm18.52,22.63H23.08c-.76,0-1.38-.62-1.38-1.38v-12.41h12.5c.68,5.32,5.31,9.56,10.75,9.65.06,0,.13,0,.19,0,5.67,0,10.26-4.24,10.93-9.65h12.51v12.41c0,.76-.62,1.38-1.38,1.38Z"></path><path class="cls-2" d="m44.17,46.59c-1.9,2.24-4.54,3.45-4.54,6.82,0,3.05,2.47,5.52,5.52,5.52s5.52-2.47,5.52-5.52c0-3.37-2.65-4.6-4.54-6.82-.54-.54-1.41-.54-1.95,0Zm3.73,6.82c0,3.62-5.52,3.61-5.52,0,0-1.74,1.37-2.31,2.76-3.9,1.35,1.54,2.76,2.17,2.76,3.9Z"></path><path class="cls-3" d="m28.6,25.84h4.14c.76,0,1.38-.62,1.38-1.38s-.62-1.38-1.38-1.38h-4.14c-.76,0-1.38.62-1.38,1.38s.62,1.38,1.38,1.38Z"></path><path class="cls-3" d="m28.6,34.11h4.14c.76,0,1.38-.62,1.38-1.38s-.62-1.38-1.38-1.38h-4.14c-.76,0-1.38.62-1.38,1.38s.62,1.38,1.38,1.38Z"></path><path class="cls-3" d="m57.55,25.84h4.14c.76,0,1.38-.62,1.38-1.38s-.62-1.38-1.38-1.38h-4.14c-.76,0-1.38.62-1.38,1.38s.62,1.38,1.38,1.38Z"></path><path class="cls-3" d="m57.55,34.11h4.14c.76,0,1.38-.62,1.38-1.38s-.62-1.38-1.38-1.38h-4.14c-.76,0-1.38.62-1.38,1.38s.62,1.38,1.38,1.38Z"></path></g></g></g></svg>