<?xml version="1.0" encoding="UTF-8"?> <svg xmlns="http://www.w3.org/2000/svg" viewBox="0 0 50.26 50.26"><defs><style>.cls-1{fill:#2f266f;}.cls-2{fill:#fff;}</style></defs><g id="Layer_2" data-name="Layer 2"><g id="Layer_1-2" data-name="Layer 1"><path class="cls-1" d="M25.13,50.26A25.13,25.13,0,1,0,0,25.13,25.13,25.13,0,0,0,25.13,50.26"></path><polygon class="cls-2" points="13.5 26.16 13.5 26.16 13.5 35.9 15.68 38.09 34.59 38.09 36.77 35.9 36.77 26.16 13.5 26.16"></polygon><polygon class="cls-1" points="15.61 28.2 15.61 34.91 16.67 36.04 17.73 36.04 17.73 28.2 15.61 28.2"></polygon><rect class="cls-1" x="19.84" y="28.2" width="2.12" height="7.84"></rect><rect class="cls-1" x="24.07" y="28.2" width="2.12" height="7.84"></rect><rect class="cls-1" x="28.31" y="28.2" width="2.12" height="7.84"></rect><polygon class="cls-1" points="32.54 28.2 32.54 36.04 33.59 36.04 34.65 34.91 34.65 28.2 32.54 28.2"></polygon><polygon class="cls-2" points="13.5 24.11 13.5 24.11 13.5 14.36 15.68 12.18 34.59 12.18 36.77 14.36 36.77 24.11 13.5 24.11"></polygon><polygon class="cls-1" points="15.61 22.06 15.61 15.36 16.67 14.22 17.73 14.22 17.73 22.06 15.61 22.06"></polygon><rect class="cls-1" x="19.84" y="14.22" width="2.12" height="7.84"></rect><rect class="cls-1" x="24.07" y="14.22" width="2.12" height="7.84"></rect><rect class="cls-1" x="28.31" y="14.22" width="2.12" height="7.84"></rect><polygon class="cls-1" points="32.54 22.06 32.54 14.22 33.59 14.22 34.65 15.36 34.65 22.06 32.54 22.06"></polygon></g></g></svg> 