<svg xmlns="http://www.w3.org/2000/svg" id="b" viewBox="0 0 173.35 85.5"><defs><style>.d{fill:none;}.e{fill-rule:evenodd;}.e,.f{fill:#404041;}</style></defs><g id="c"><path class="f" d="M111.95,15.14h-1.98v9.95h9.09c.99-.41,1.53-1.13,1.73-1.96h-8.84v-7.99h0Z"></path><path class="f" d="M136.64,17.13h7.5c1.04-.2,1.82-1.11,2.03-1.99h-11.57c.22.88,1,1.79,2.04,1.99h0Z"></path><path class="f" d="M90.37,17.1h0c1.04-.3,1.92-1.09,2.13-1.96h-11v5.87h9v2.06h-7.06c-1.11.31-2.04,1.04-2.51,2.02h.57s10.94,0,10.94,0v-6.02h-9v-1.97h6.93Z"></path><polygon class="f" points="134.91 25.09 134.91 25.09 136.86 25.09 136.86 21.09 143.96 21.09 143.96 25.09 145.91 25.09 145.91 19.09 134.91 19.08 134.91 25.09 134.91 25.09"></polygon><path class="f" d="M55.61,17.12h7.58c1.05-.2,1.84-1.11,2.06-1.99h-11.69c.22.88,1.01,1.79,2.06,1.99h0Z"></path><path class="f" d="M55.61,25.09h7.58c1.05-.21,1.84-1.11,2.06-1.99h-11.69c.22.88,1.01,1.79,2.06,1.99h0Z"></path><path class="f" d="M25.71,15.13v.02c.23.87,1,1.76,2.05,1.98h3.19l.16.06v7.87h1.99v-7.87l.18-.06h3.19c1.07-.27,1.82-1.11,2.04-1.98v-.02h-12.81Z"></path><path class="f" d="M55.61,21.05h7.58c1.05-.2,1.84-1.11,2.06-1.99h-11.69c.22.88,1.01,1.79,2.06,1.99h0Z"></path><path class="f" d="M87.75,50.44c.63,0,1.13-.15,1.5-.45.37-.3.56-.7.56-1.21v-.03c0-.54-.18-.95-.54-1.23-.36-.28-.87-.42-1.53-.42h-2.56v3.34h2.58ZM83.44,45.53h4.45c.63,0,1.18.09,1.67.26.49.17.89.42,1.21.73.27.27.47.59.61.95.14.36.21.75.21,1.19v.03c0,.41-.06.77-.18,1.1-.12.33-.28.61-.49.86-.21.25-.46.46-.75.64-.29.17-.61.31-.96.4l2.7,3.75h-2.07l-2.46-3.45h-2.21v3.45h-1.74v-9.9h0Z"></path><path class="f" d="M29.6,50.68c.66,0,1.19-.17,1.57-.5.38-.33.58-.76.58-1.28v-.03c0-.59-.19-1.03-.58-1.33-.39-.3-.91-.45-1.56-.45h-2.03v3.58h2.03ZM25.84,45.53h3.9c.58,0,1.1.08,1.56.23.47.16.86.38,1.19.67.33.29.58.64.75,1.05.17.41.26.86.26,1.36v.03c0,.56-.1,1.04-.31,1.46-.21.42-.49.77-.85,1.05-.36.28-.78.5-1.26.64-.48.15-1,.22-1.55.22h-1.97v3.18h-1.73v-9.9h0Z"></path><path class="f" d="M42.88,54.01c.49,0,.94-.09,1.35-.28.41-.18.76-.43,1.05-.75.29-.32.52-.69.68-1.11.17-.43.25-.88.25-1.36v-.03c0-.48-.08-.94-.25-1.37-.16-.43-.4-.8-.69-1.12-.3-.32-.65-.57-1.07-.76-.42-.19-.87-.28-1.36-.28s-.94.09-1.35.28c-.41.18-.76.43-1.05.75-.29.32-.52.69-.68,1.11-.17.42-.25.88-.25,1.36v.03c0,.48.08.94.25,1.37.16.43.4.8.69,1.12.3.32.65.57,1.07.76.42.19.87.28,1.36.28h0ZM42.86,55.61c-.77,0-1.47-.13-2.1-.4-.63-.27-1.18-.63-1.63-1.1-.45-.46-.81-1-1.07-1.62-.26-.62-.38-1.28-.38-1.98v-.03c0-.7.13-1.36.38-1.98.26-.62.62-1.16,1.08-1.63.46-.47,1.01-.84,1.65-1.11.63-.27,1.34-.41,2.1-.41s1.47.13,2.1.4c.63.27,1.18.63,1.63,1.1.45.46.81,1,1.07,1.62.26.62.38,1.28.38,1.98v.03c0,.7-.13,1.36-.38,1.98-.26.62-.62,1.16-1.08,1.63-.46.47-1.01.84-1.65,1.11-.63.27-1.34.41-2.1.41h0Z"></path><polygon class="f" points="51.71 45.53 53.59 45.53 55.96 52.88 58.39 45.5 59.87 45.5 62.3 52.88 64.67 45.53 66.5 45.53 63.04 55.51 61.54 55.51 59.1 48.39 56.67 55.51 55.16 55.51 51.71 45.53 51.71 45.53"></polygon><polygon class="f" points="71.12 45.53 78.52 45.53 78.52 47.1 72.86 47.1 72.86 49.65 77.88 49.65 77.88 51.22 72.86 51.22 72.86 53.87 78.6 53.87 78.6 55.44 71.12 55.44 71.12 45.53 71.12 45.53"></polygon><polygon class="f" points="96 45.53 96.83 45.53 99.95 54.35 102.85 45.5 103.42 45.5 106.33 54.35 109.45 45.53 110.22 45.53 106.61 55.51 106.02 55.51 103.11 46.91 100.2 55.51 99.61 55.51 96 45.53 96 45.53"></polygon><path class="f" d="M120.69,52l-2.62-5.73-2.64,5.73h5.26ZM117.72,45.46h.71l4.65,9.97h-.81l-1.27-2.77h-5.89l-1.27,2.77h-.77l4.65-9.97h0Z"></path><polygon class="f" points="127.97 45.53 128.71 45.53 128.71 54.77 134.52 54.77 134.52 55.44 127.97 55.44 127.97 45.53 127.97 45.53"></polygon><polygon class="f" points="139.59 45.53 140.33 45.53 140.33 54.77 146.14 54.77 146.14 55.44 139.59 55.44 139.59 45.53 139.59 45.53"></polygon><polygon class="e" points="25.77 34.78 146.23 34.78 146.23 35.57 25.77 35.57 25.77 34.78 25.77 34.78"></polygon><rect class="d" x="25.57" y="64.07" width="122.21" height="6.3"></rect><path class="f" d="M30.73,69.46c-.16.12-.33.22-.51.31-.18.09-.37.15-.58.2-.21.05-.44.07-.69.07-.4,0-.77-.08-1.11-.23-.34-.15-.63-.35-.88-.62-.25-.26-.44-.57-.59-.92-.14-.35-.21-.73-.21-1.13v-.02c0-.4.07-.77.21-1.13.14-.35.34-.66.59-.93.25-.27.55-.47.89-.63.34-.15.72-.23,1.13-.23.25,0,.48.02.68.06s.39.1.57.18c.17.08.34.18.49.29.15.11.3.23.45.37l-.3.31c-.25-.24-.52-.43-.82-.59-.3-.16-.66-.24-1.08-.24-.34,0-.65.06-.94.19-.29.13-.54.31-.75.53-.21.23-.38.5-.5.8-.12.31-.18.63-.18.99v.02c0,.35.06.68.18.99s.29.58.5.8c.21.23.46.41.75.54.29.13.6.2.94.2.41,0,.76-.08,1.06-.23.3-.15.59-.37.88-.65l.28.27c-.15.14-.3.28-.46.4Z"></path><path class="f" d="M33.95,64.32h4v.39h-3.59v2.21h3.22v.39h-3.22v2.26h3.63v.39h-4.04v-5.63Z"></path><path class="f" d="M43.21,67.61h-1.84v2.33h-.42v-5.63h2.36c.31,0,.58.04.83.12.25.08.46.19.63.33.17.14.31.31.41.51.1.2.14.41.14.65v.02c0,.24-.04.45-.12.63-.08.19-.2.34-.35.48-.15.13-.32.24-.52.33s-.42.14-.66.17l1.86,2.4h-.53l-1.79-2.33ZM44.49,65.03c-.28-.22-.68-.33-1.19-.33h-1.92v2.53h1.9c.24,0,.45-.03.66-.09.2-.06.37-.14.52-.25.14-.11.26-.24.34-.4s.12-.34.12-.54v-.02c0-.38-.14-.68-.42-.9Z"></path><path class="f" d="M50.36,69.94h-.42v-5.24h-1.96v-.39h4.34v.39h-1.96v5.24Z"></path><path class="f" d="M55.26,64.32h.42v5.63h-.42v-5.63Z"></path><path class="f" d="M59.44,67.01h3.18v.39h-3.18v2.55h-.42v-5.63h3.96v.39h-3.55v2.31Z"></path><path class="f" d="M65.97,64.32h.42v5.63h-.42v-5.63Z"></path><path class="f" d="M69.72,64.32h4v.39h-3.59v2.21h3.22v.39h-3.22v2.26h3.63v.39h-4.04v-5.63Z"></path><path class="f" d="M81.37,68.24c-.14.34-.35.64-.62.89s-.58.45-.95.6c-.36.14-.77.22-1.21.22h-1.87v-5.63h1.87c.45,0,.85.07,1.21.21.37.14.68.34.95.59s.47.55.62.89c.14.34.22.71.22,1.11v.02c0,.4-.07.77-.22,1.11ZM80.98,66.19c-.12-.29-.29-.55-.51-.77s-.49-.39-.8-.52-.67-.19-1.06-.19h-1.46v4.86h1.46c.39,0,.75-.06,1.06-.19s.58-.3.8-.51c.22-.22.39-.47.51-.76.12-.29.18-.61.18-.95v-.02c0-.33-.06-.65-.18-.94Z"></path><path class="f" d="M88.71,64.32h.42v5.63h-.42v-5.63Z"></path><path class="f" d="M92.87,64.94v5h-.4v-5.63h.39l3.88,4.9v-4.9h.4v5.63h-.31l-3.96-5Z"></path><path class="f" d="M104.06,69.11c-.09.19-.22.35-.39.49s-.36.24-.59.31-.48.11-.75.11c-.46,0-.86-.07-1.22-.22-.36-.15-.71-.37-1.04-.68l.27-.31c.31.28.62.49.93.63s.67.21,1.09.21c.21,0,.4-.03.58-.08.18-.06.33-.13.45-.23.12-.1.22-.22.29-.35s.1-.29.1-.45v-.02c0-.15-.02-.28-.07-.4-.05-.12-.13-.23-.25-.32-.12-.1-.28-.18-.49-.26-.2-.08-.47-.15-.79-.21-.68-.14-1.16-.33-1.46-.58-.29-.25-.44-.58-.44-1v-.02c0-.21.05-.4.14-.58.09-.18.22-.34.38-.47.16-.13.35-.24.57-.31s.46-.11.72-.11c.41,0,.77.06,1.06.17.29.11.58.28.87.51l-.26.33c-.27-.23-.54-.39-.81-.49s-.56-.14-.87-.14c-.21,0-.4.03-.57.08s-.31.13-.43.23c-.12.1-.21.21-.28.34-.06.13-.1.26-.1.41v.02c0,.15.02.29.07.41.04.12.13.23.25.33.12.1.29.19.5.27.21.08.49.16.82.23.65.13,1.13.32,1.42.57.29.24.43.57.43.99v.02c0,.22-.05.43-.14.62Z"></path><path class="f" d="M109.17,69.94h-.42v-5.24h-1.96v-.39h4.34v.39h-1.96v5.24Z"></path><path class="f" d="M118.01,68.37h-3.32l-.72,1.58h-.43l2.62-5.67h.4l2.62,5.67h-.46l-.71-1.58ZM114.86,67.99h2.97l-1.48-3.26-1.49,3.26Z"></path><path class="f" d="M121.98,64.32h.42v5.24h3.3v.39h-3.72v-5.63Z"></path><path class="f" d="M128.57,64.32h.42v5.24h3.3v.39h-3.72v-5.63Z"></path><path class="f" d="M135.17,64.32h4v.39h-3.59v2.21h3.22v.39h-3.22v2.26h3.63v.39h-4.04v-5.63Z"></path><path class="f" d="M144.43,67.61h-1.84v2.33h-.42v-5.63h2.36c.31,0,.58.04.83.12.25.08.46.19.63.33.17.14.31.31.41.51.1.2.14.41.14.65v.02c0,.24-.04.45-.12.63-.08.19-.2.34-.35.48-.15.13-.32.24-.52.33s-.42.14-.66.17l1.86,2.4h-.53l-1.79-2.33ZM145.7,65.03c-.28-.22-.68-.33-1.19-.33h-1.92v2.53h1.9c.24,0,.45-.03.66-.09.2-.06.37-.14.52-.25.14-.11.26-.24.34-.4s.12-.34.12-.54v-.02c0-.38-.14-.68-.42-.9Z"></path><rect class="d" width="173.35" height="85.5"></rect></g></svg>