<svg xmlns="http://www.w3.org/2000/svg" id="Layer_2" data-name="Layer 2" viewBox="0 0 90.29 90.29"><defs><style> .cls-1 { fill: none; } .cls-2 { fill: #fff; } .cls-3 { fill: #47c7ea; } </style></defs><g id="Layer_1-2" data-name="Layer 1"><g><rect class="cls-1" width="90.29" height="90.29"></rect><g><path class="cls-3" d="m66.57,11.17H22.55c-2.28,0-4.13,1.85-4.13,4.13v52.27c0,2.28,1.85,4.13,4.13,4.13h5.5v4.13c0,1.52,1.23,2.75,2.75,2.75h5.5c.5,0,.97-.15,1.38-.38.41.24.87.38,1.38.38h5.5c1.52,0,2.75-1.23,2.75-2.75v-4.13h2.75v4.13c0,1.52,1.23,2.75,2.75,2.75h5.5c1.52,0,2.75-1.23,2.75-2.75v-4.13h5.5c2.28,0,4.13-1.85,4.13-4.13V15.3c0-2.28-1.85-4.13-4.13-4.13ZM30.8,75.83v-4.13h5.5v4.13h-5.5Zm13.76,0h-5.5v-4.13h5.5v4.13Zm13.76,0h-5.5v-4.13h5.5v4.13Zm9.63-8.25c0,.76-.62,1.38-1.38,1.38H22.55c-.76,0-1.38-.62-1.38-1.38V15.3c0-.76.62-1.38,1.38-1.38h44.02c.76,0,1.38.62,1.38,1.38v52.27Z"></path><path class="cls-3" d="m54.19,44.19h-19.26c-2.28,0-4.13,1.85-4.13,4.13v11c0,2.28,1.85,4.13,4.13,4.13h19.26c2.28,0,4.13-1.85,4.13-4.13v-11c0-2.28-1.85-4.13-4.13-4.13Zm-19.26,2.75h19.26c.76,0,1.38.62,1.38,1.38v4.13h-22.01v-4.13c0-.76.62-1.38,1.38-1.38Zm19.26,13.76h-19.26c-.76,0-1.38-.62-1.38-1.38v-4.13h22.01v4.13c0,.76-.62,1.38-1.38,1.38Z"></path><path class="cls-2" d="m44.56,34.56c3.03,0,5.5-2.47,5.5-5.5s-2.47-5.5-5.5-5.5-5.5,2.47-5.5,5.5,2.47,5.5,5.5,5.5Zm0-8.25c1.52,0,2.75,1.23,2.75,2.75s-1.23,2.75-2.75,2.75-2.75-1.23-2.75-2.75,1.23-2.75,2.75-2.75Z"></path><path class="cls-2" d="m44.56,22.18c.76,0,1.38-.62,1.38-1.38v-2.75c0-.76-.62-1.38-1.38-1.38s-1.38.62-1.38,1.38v2.75c0,.76.62,1.38,1.38,1.38Z"></path><path class="cls-2" d="m43.18,37.31v2.75c0,.76.62,1.38,1.38,1.38s1.38-.62,1.38-1.38v-2.75c0-.76-.62-1.38-1.38-1.38s-1.38.62-1.38,1.38Z"></path><path class="cls-2" d="m51.44,29.06c0,.76.62,1.38,1.38,1.38h2.75c.76,0,1.38-.62,1.38-1.38s-.62-1.38-1.38-1.38h-2.75c-.76,0-1.38.62-1.38,1.38Z"></path><path class="cls-2" d="m33.56,30.43h2.75c.76,0,1.38-.62,1.38-1.38s-.62-1.38-1.38-1.38h-2.75c-.76,0-1.38.62-1.38,1.38s.62,1.38,1.38,1.38Z"></path><path class="cls-2" d="m51.37,24.19l1.95-1.95c.54-.54.54-1.41,0-1.95-.54-.54-1.41-.54-1.95,0l-1.95,1.95c-.54.54-.54,1.41,0,1.95.54.54,1.41.54,1.95,0Z"></path><path class="cls-2" d="m37.75,33.92l-1.95,1.95c-.54.54-.54,1.41,0,1.95.54.54,1.41.54,1.95,0l1.95-1.95c.54-.54.54-1.41,0-1.95-.54-.54-1.41-.54-1.95,0Z"></path><path class="cls-2" d="m49.42,33.92c-.54.54-.54,1.41,0,1.95l1.95,1.95c.54.54,1.41.54,1.95,0,.54-.54.54-1.41,0-1.95l-1.95-1.95c-.54-.54-1.41-.54-1.95,0Z"></path><path class="cls-2" d="m37.75,24.19c.54.54,1.41.54,1.95,0,.54-.54.54-1.41,0-1.95l-1.95-1.95c-.54-.54-1.41-.54-1.95,0-.54.54-.54,1.41,0,1.95l1.95,1.95Z"></path></g></g></g></svg>