<svg xmlns="http://www.w3.org/2000/svg" id="b" viewBox="0 0 173.35 85.5"><defs><style>.d{fill:none;}.e{fill:#ce1c24;}.f{fill:#fff;}.g{fill:#005480;}</style></defs><g id="c"><path class="f" d="M46.77,68.42V26.04c0-4.94,4.02-8.96,8.96-8.96h70.84v42.38c0,4.94-4.02,8.96-8.96,8.96H46.77Z"></path><path class="f" d="M49.41,26.04v39.75h68.21c3.49,0,6.32-2.83,6.32-6.32V19.71H55.73c-3.49,0-6.32,2.83-6.32,6.32Z"></path><path class="g" d="M114.92,43.32c4.06-.26,7.12-.29,9.02-.27v-23.33H55.73c-3.49,0-6.32,2.83-6.32,6.32v37.57c10.38-6.52,23.04-11.97,36.87-15.67,11.28-3.02,21.81-4.18,28.64-4.61Z"></path><path class="e" d="M87.1,50.99c-13.18,3.53-25.25,8.67-35.21,14.8h65.73c3.49,0,6.32-2.83,6.32-6.32v-13.17c-6.23-.1-20.8.4-36.84,4.69Z"></path><path class="f" d="M63.15,32.72c-.52-.43-.89-.65-2.12-1.18-.63-.3-1.85-.76-1.87-1.77,0-.74.65-1.2,1.35-1.2,1.09,0,1.77,1.03,1.92,1.24l1.81-2.03c-.2-.22-.78-.89-1.63-1.29-.89-.41-1.85-.46-2.14-.46-.65,0-2.46.09-3.6,1.74-.22.33-.67,1.05-.67,2.14,0,1.63.98,2.55,1.44,2.92.57.44,1.22.79,1.88,1.13.5.22,1.35.57,1.7,1.11.15.22.22.46.22.74,0,.89-.74,1.52-1.59,1.52-1.07,0-1.81-.83-2.42-1.52l-1.88,2.07c.22.22,1.05,1.09,2.09,1.48.89.33,1.92.37,2.2.37.35,0,1.42-.04,2.38-.55.46-.24.79-.55.92-.68.46-.43,1.26-1.35,1.26-2.97s-.76-2.35-1.26-2.77Z"></path><path class="f" d="M76.37,26.37l-1.74,5.14c-.21.67-.44,1.33-.66,2-.18.63-.35,1.24-.53,1.87-.09-.37-.18-.74-.28-1.11-.23-.79-.5-1.55-.74-2.33l-1.86-5.56h-2.8l-1.75,13.04h2.6l.66-5.99c.07-.63.14-1.26.19-1.88.02-.5.04-.98.04-1.48.11.41.19.79.32,1.18.14.55.32,1.09.51,1.63l2.27,6.54h1.7l2.07-6.13c.35-1.09.69-2.2.99-3.31,0,.44,0,.89.02,1.33.04.61.11,1.22.16,1.83l.74,6.28h2.64l-1.77-13.04h-2.78Z"></path><path class="f" d="M90.01,26.37h-2.85l-4.84,13.04h2.87l.91-2.64h5.12l.96,2.64h2.9l-5.07-13.04ZM86.93,34.31c.3-.85.58-1.7.86-2.55.21-.63.56-1.68.7-2.31.05-.26.09-.54.12-.79.12.91.24,1.33.8,3.01.3.87.61,1.76.91,2.64h-3.39Z"></path><rect class="d" width="173.35" height="85.5"></rect></g></svg>