<?xml version="1.0" encoding="UTF-8"?> <svg xmlns="http://www.w3.org/2000/svg" viewBox="0 0 50.26 50.26"><defs><style>.cls-1{fill:#2f266f;}.cls-2{fill:#fff;}</style></defs><g id="Layer_2" data-name="Layer 2"><g id="Layer_1-2" data-name="Layer 1"><path class="cls-1" d="M25.13,50.26A25.13,25.13,0,1,0,0,25.13,25.13,25.13,0,0,0,25.13,50.26"></path><path class="cls-2" d="M33.74,20.34a.51.51,0,0,0-.46-.3h-6l6-9.4a.53.53,0,0,0,0-.52.52.52,0,0,0-.45-.26H24.62a.5.5,0,0,0-.45.28L16.53,25.41a.51.51,0,0,0,.46.74h5.23L16.52,39.7a.51.51,0,0,0,.2.63.52.52,0,0,0,.27.07.51.51,0,0,0,.39-.18L33.67,20.88a.53.53,0,0,0,.07-.54"></path></g></g></svg> 