<?xml version="1.0" encoding="UTF-8"?> <svg xmlns="http://www.w3.org/2000/svg" viewBox="0 0 99.98 99.98"><defs><style>.cls-1,.cls-2{fill:#2f266f;}.cls-2{font-size:16px;font-family:Gotham-Bold, Gotham;font-weight:700;letter-spacing:-0.01em;}.cls-3{letter-spacing:0em;}.cls-4{fill:none;}</style></defs><g id="Layer_2" data-name="Layer 2"><g id="Layer_1-2" data-name="Layer 1"><path class="cls-1" d="M50,40A12.34,12.34,0,0,0,62.37,27.65c0-4.89-6.57-14.51-10.9-21-.95-1.61-1.95-1.56-2.89,0-4.34,6.45-10.9,16.13-10.9,21A12.33,12.33,0,0,0,50,40m3.73-5.84A7.45,7.45,0,0,0,57.53,28a1.48,1.48,0,0,1,2.95.17,11.12,11.12,0,0,1-1.56,4.95,10.62,10.62,0,0,1-3.73,3.62,1.49,1.49,0,0,1-1.44-2.62"></path><text class="cls-2" transform="translate(31.78 70.89)">IP65<tspan class="cls-3"><tspan x="-5.74" y="19.2">Rated</tspan></tspan></text><rect class="cls-4" width="99.98" height="99.98"></rect></g></g></svg> 