<?xml version="1.0" encoding="UTF-8"?> <svg xmlns="http://www.w3.org/2000/svg" viewBox="0 0 99.98 99.98"><defs><style>.cls-1{fill:#2f266f;}.cls-2{fill:none;}</style></defs><g id="Layer_2" data-name="Layer 2"><g id="Layer_1-2" data-name="Layer 1"><path class="cls-1" d="M48.49,7.28a19.53,19.53,0,0,0-11.92,4.94l5.13,5.14a12.34,12.34,0,0,1,6.79-2.81Z"></path><path class="cls-1" d="M40.08,19l-5.14-5.14A19.55,19.55,0,0,0,30,25.77h7.27A12.25,12.25,0,0,1,40.08,19"></path><path class="cls-1" d="M62,25.77h7.27a19.55,19.55,0,0,0-5-11.92L59.2,19A12.25,12.25,0,0,1,62,25.77"></path><path class="cls-1" d="M62,28.07a12.13,12.13,0,0,1-1.27,4.44c.59.9,1.07,1.66,1.4,2.17a3.44,3.44,0,0,1-.48,4.3,3.84,3.84,0,0,1-.94.67l1.19,1.19a1.14,1.14,0,0,0,.82.34,1.12,1.12,0,0,0,.81-.34,19.53,19.53,0,0,0,5.74-12.77Z"></path><path class="cls-1" d="M37.26,28.07H30a19.56,19.56,0,0,0,5.73,12.77,1.16,1.16,0,0,0,.82.34,1.14,1.14,0,0,0,.82-.34l3.49-3.49a1.15,1.15,0,0,0,0-1.63,12.35,12.35,0,0,1-3.59-7.65"></path><path class="cls-1" d="M62.71,12.22A19.48,19.48,0,0,0,50.79,7.28v7.27a12.23,12.23,0,0,1,6.78,2.81Z"></path><path class="cls-1" d="M52.2,24.38a3.62,3.62,0,1,0-5.12,5.12c1.78,1.78,10.54,7.37,11.53,8a1.15,1.15,0,0,0,1.59-1.59c-.63-1-6.22-9.75-8-11.53"></path><path class="cls-1" d="M39.75,70.89V66.4H35.2v4.49H32.74V59.69H35.2v4.43h4.55V59.69h2.46v11.2Z"></path><path class="cls-1" d="M44.29,61.37V59.21h2.56v2.16Zm.06,9.52V62.31h2.44v8.58Z"></path><path class="cls-1" d="M52.51,73.49a8.09,8.09,0,0,1-3.79-.9l.83-1.82a5.66,5.66,0,0,0,2.9.78c1.66,0,2.45-.8,2.45-2.34V68.8a3.36,3.36,0,0,1-2.8,1.39,3.77,3.77,0,0,1-3.81-4v0a3.78,3.78,0,0,1,3.81-4,3.48,3.48,0,0,1,2.77,1.28V62.31H57.3V69C57.3,72.19,55.7,73.49,52.51,73.49Zm2.39-7.34a2.09,2.09,0,0,0-4.18,0v0a2.09,2.09,0,0,0,4.18,0Z"></path><path class="cls-1" d="M64.5,70.89V66.11C64.5,65,64,64.36,63,64.36s-1.52.59-1.52,1.75v4.78H59.07V59.21h2.44v4.32A3,3,0,0,1,64,62.15c1.84,0,2.91,1.22,2.91,3.19v5.55Z"></path><path class="cls-1" d="M5.26,86.73H3.39v3.36H.92V78.89H5.5c2.67,0,4.29,1.58,4.29,3.87v0C9.79,85.39,7.77,86.73,5.26,86.73Zm2-3.92c0-1.1-.77-1.7-2-1.7H3.39v3.43H5.34a1.74,1.74,0,0,0,2-1.7Z"></path><path class="cls-1" d="M18.92,86.65H13a2,2,0,0,0,2.1,1.68,2.78,2.78,0,0,0,2.08-.88l1.39,1.24a4.29,4.29,0,0,1-3.5,1.6,4.29,4.29,0,0,1-4.48-4.44v0a4.27,4.27,0,0,1,4.24-4.47C17.64,81.35,19,83.58,19,86v0A5.86,5.86,0,0,1,18.92,86.65Zm-4.14-3.34a1.91,1.91,0,0,0-1.86,1.82h3.67A1.84,1.84,0,0,0,14.78,83.31Z"></path><path class="cls-1" d="M25.4,83.9c-1.61,0-2.61,1-2.61,3v3.17H20.36V81.51h2.43v1.73a2.67,2.67,0,0,1,2.74-1.89V83.9Z"></path><path class="cls-1" d="M30.35,80.35c-.56,0-.88.28-.88.92v.34h2v2H29.5v6.5H27.07v-6.5h-1v-2h1v-.54c0-1.89.94-2.75,2.65-2.75a5.23,5.23,0,0,1,1.73.24v2A3.26,3.26,0,0,0,30.35,80.35Z"></path><path class="cls-1" d="M36.57,90.29a4.46,4.46,0,0,1-4.63-4.44v0a4.51,4.51,0,0,1,4.66-4.47,4.46,4.46,0,0,1,4.63,4.44v0A4.51,4.51,0,0,1,36.57,90.29Zm2.26-4.47a2.29,2.29,0,0,0-2.26-2.37,2.2,2.2,0,0,0-2.22,2.34v0a2.28,2.28,0,0,0,2.25,2.37,2.2,2.2,0,0,0,2.23-2.34Z"></path><path class="cls-1" d="M47.63,83.9c-1.62,0-2.61,1-2.61,3v3.17H42.58V81.51H45v1.73a2.65,2.65,0,0,1,2.73-1.89V83.9Z"></path><path class="cls-1" d="M59.53,90.09V85.31c0-1.16-.51-1.75-1.42-1.75s-1.47.59-1.47,1.75v4.78H54.2V85.31c0-1.16-.51-1.75-1.42-1.75s-1.47.59-1.47,1.75v4.78H48.87V81.51h2.44v1.22a3.05,3.05,0,0,1,2.52-1.38,2.58,2.58,0,0,1,2.42,1.36,3.53,3.53,0,0,1,2.82-1.36c1.81,0,2.9,1.09,2.9,3.16v5.58Z"></path><path class="cls-1" d="M68.7,90.09v-.93a3.28,3.28,0,0,1-2.59,1.09,2.66,2.66,0,0,1-3-2.62v0c0-1.88,1.43-2.74,3.46-2.74a6.1,6.1,0,0,1,2.1.35v-.14c0-1-.63-1.57-1.85-1.57a6.24,6.24,0,0,0-2.36.46l-.61-1.85a7.49,7.49,0,0,1,3.33-.69c2.65,0,3.82,1.37,3.82,3.7v5Zm0-3.45a3.66,3.66,0,0,0-1.55-.32c-1,0-1.69.41-1.69,1.18v0c0,.66.55,1,1.33,1,1.14,0,1.91-.62,1.91-1.5Z"></path><path class="cls-1" d="M78.17,90.09V85.31c0-1.16-.54-1.75-1.47-1.75s-1.52.59-1.52,1.75v4.78H72.74V81.51h2.44v1.22a3,3,0,0,1,2.51-1.38c1.84,0,2.91,1.22,2.91,3.19v5.55Z"></path><path class="cls-1" d="M86.36,90.29a4.38,4.38,0,0,1-4.46-4.44v0a4.4,4.4,0,0,1,4.49-4.47,4.24,4.24,0,0,1,3.43,1.44L88.33,84.4a2.49,2.49,0,0,0-2-1,2.19,2.19,0,0,0-2.08,2.34v0a2.2,2.2,0,0,0,2.17,2.37,2.71,2.71,0,0,0,2-.91l1.43,1.44A4.34,4.34,0,0,1,86.36,90.29Z"></path><path class="cls-1" d="M99,86.65h-6a2,2,0,0,0,2.1,1.68,2.81,2.81,0,0,0,2.08-.88l1.39,1.24a4.53,4.53,0,0,1-8-2.84v0a4.28,4.28,0,0,1,4.24-4.47c2.87,0,4.18,2.23,4.18,4.66v0C99.05,86.28,99,86.43,99,86.65Zm-4.15-3.34A1.9,1.9,0,0,0,93,85.13h3.66A1.83,1.83,0,0,0,94.87,83.31Z"></path><rect class="cls-2" width="99.98" height="99.98"></rect></g></g></svg> 