<svg xmlns="http://www.w3.org/2000/svg" xmlns:xlink="http://www.w3.org/1999/xlink" id="b" viewBox="0 0 540.43 57.65"><defs><style>.f,.g{fill:none;}.h{fill:url(#e);}.g{stroke:#44c5e9;stroke-miterlimit:10;}.i{fill:#ce1c24;}.j{fill:#3e3a39;}.k{clip-path:url(#d);}.l{fill:#002e6e;}</style><clipPath id="d"><path class="f" d="M380.13,53.7c.08.14.45.36,1.09.56.25.08.45.12.61.15.37.06.47.08.79.12-.22-.05-.37-.12-.69-.31-.41-.24-.56-.32-.89-.46-.3-.12-.51-.18-.66-.19-.25-.03-.3.05-.25.13M383.05,54.1s0,.04.01.06c.22.75,1.62.34,1.87-.12.13-.24-.03-.4-.1-.47-.16-.12-.35-.18-.55-.21-.63-.08-1.31.3-1.24.74M375.53,51.61c.05.23.53.68,1.48,1.2,1.06.57,2.36,1.01,2.56.98,0,0,0-.02,0-.03-.03-.04-1.49-1.28-2.82-1.98-.46-.22-.75-.31-.93-.33-.32-.04-.3.14-.29.17M386.84,53.98c-.78.49-.7.52-.64.54.33.11,3.64-.46,3.78-1.34-.03-.11-.14-.18-.33-.2-.52-.06-1.58.23-2.81,1M379.5,52c.05.16.15.33.29.51.85,1.06,2.64,1.63,2.75.36.03-.3-.06-.88-.91-1.44-.37-.2-.72-.31-1.02-.35-.8-.1-1.31.31-1.11.93M395,52.25c-.62.08-1.57.49-3.47,1.3-.53.23-1.12.32-1.6.68.16.15,4.15-.76,5.29-1.79.05-.05.15-.18-.02-.2-.04,0-.11,0-.19,0M385.23,52.19c-.27,1.23,1.06,1.57,2.54.64.16-.1,1.55-1.01.81-1.89-.23-.19-.51-.3-.81-.34-1.03-.13-2.32.56-2.54,1.58M370.24,48.56c.1.31.65.96,1.67,1.72,1.31.98,2.99,1.81,2.92,1.51-.05-.2-1.84-2.01-3.4-3.04-.51-.31-.8-.43-.98-.45-.28-.03-.23.18-.21.25M374.21,48.7c.05.23.19.6.6,1.08,1.1,1.32,3.25,2.4,3.36,1.11.04-.48-.27-1.65-1.75-2.65-.49-.29-.91-.44-1.24-.48-.76-.09-1.09.36-.97.93M391.77,51.62c-.2.21-1.12,1.24-.24,1.25,1.17.02,4.4-1.6,4.27-2.77-.08-.18-.25-.28-.48-.31-.83-.1-2.47.68-3.55,1.82M381.04,49.35c.45,1.82,3.14,2.55,4.16.68.21-.38.57-1.37-.58-2.29-.43-.28-.86-.43-1.28-.48-1.43-.18-2.61.85-2.3,2.09M365.37,44.51c.04.31.67,1.25,1.77,2.37,1.15,1.18,2.43,2.16,2.59,2.05.02-.27-2.29-2.94-3.48-4.02-.39-.34-.66-.52-.78-.53-.07,0-.1.03-.09.13M401.12,48.59c-.69.28-1.87,1.05-3.16,2.05-1.68,1.31-1.44,1.35-1.35,1.36.49.07,4.18-1.84,5.06-3.24.08-.18.06-.27-.07-.29-.1-.01-.26.03-.48.12M368.46,44.57c.07.44.35,1.01.75,1.56,1.13,1.55,3.29,3.01,3.44,1.73.07-.62-.5-2.32-2.2-3.67-.52-.37-.93-.54-1.24-.58-.63-.08-.85.41-.75.95M389.36,48.74c-.45,1.49.82,2.4,2.77,1.34,1.16-.63,2.46-2.08,1.61-3.19-.28-.25-.61-.39-.97-.44-1.32-.16-3,.95-3.4,2.29M375.04,45.07c.03.14.09.33.14.47.82,2.1,3.73,3.23,4.63,1.3.08-.18.75-1.77-1.23-3.26-.54-.34-1.06-.53-1.53-.58-1.36-.17-2.28.76-2.02,2.07M397.62,47.73c-.69,1.06-.81,2.05.34,1.8,1.53-.34,4.18-2.61,3.9-3.98-.11-.24-.3-.36-.55-.39-.96-.12-2.74,1.13-3.68,2.57M384.52,44.93c.06,2.19,2.98,3.3,4.79,1.23.59-.68,1.23-2.15-.11-3.35-.44-.31-.91-.48-1.38-.54-1.69-.21-3.34,1.09-3.3,2.67M363.41,39.52c.01.56.3,1.4.77,2.25,1,1.79,2.64,3.27,2.85,2.3.14-.65-.57-2.95-2.11-4.59-.46-.44-.78-.61-1-.64-.51-.06-.5.65-.5.69M406.94,43.26c-.49.22-1.7,1.44-2.86,2.9-.38.47-1.56,1.99-1.11,1.89.58-.13,3.36-2.86,4.13-4.48.04-.12.12-.33,0-.35-.03,0-.08,0-.15.04M368.81,40.15c.03.23.12.57.21.82.83,2.22,3.41,3.69,4.3,1.95.42-.81.42-2.68-1.35-4.23-.53-.4-1.03-.6-1.47-.66-1.15-.14-1.88.77-1.69,2.11M394.64,43.97c-.53,2,1.05,2.97,2.96,1.81,1.41-.85,2.75-2.87,1.75-4.23-.3-.29-.65-.45-1.03-.5-1.44-.18-3.23,1.24-3.68,2.92M377.93,40.28c.44,2.76,4.21,3.78,5.68,1.54.51-.77.9-2.46-.84-3.88-.59-.39-1.18-.61-1.74-.67-1.89-.23-3.39,1.19-3.1,3.02M360.22,33.76c-.1.45.17,1.77.63,3.13.63,1.83,1.43,3.23,1.61,2.81.2-.44-.57-3.54-1.55-5.44-.11-.19-.37-.65-.55-.67-.06,0-.11.04-.14.17M403.42,42.47c-.72,1.69-.39,2.68.72,2.18,1.36-.62,3.4-3.36,3.01-4.97-.12-.27-.3-.41-.53-.44-.89-.11-2.45,1.46-3.2,3.23M389.36,39.41c-.11,2.54,2.8,3.66,4.79,1.84,1.04-.95,1.83-2.96.31-4.44-.46-.35-.95-.54-1.44-.6-1.8-.22-3.58,1.32-3.66,3.2M363.54,34.62c0,.38.06.79.17,1.21.62,2.42,2.5,3.84,3.35,2.52.6-.93.53-3.32-.95-5.08-.44-.44-.84-.66-1.2-.7-.84-.1-1.4.77-1.37,2.05M371.24,34.99c.4,2.8,3.47,4.15,5.06,2.22.75-.91,1.23-3.02-.67-4.79-.55-.42-1.1-.64-1.61-.71-1.71-.21-3.05,1.33-2.77,3.28M400.08,38.04c-.37,2.28,1.13,3.45,2.88,2.24,1.36-.95,2.63-3.49,1.44-5.17-.31-.32-.65-.49-1.01-.54-1.39-.17-2.98,1.52-3.3,3.47M382.51,34.14c.13,2.89,3.62,4.22,5.66,2.16,1.02-1.03,1.61-3.22-.26-4.89-.55-.4-1.13-.62-1.69-.69-1.99-.24-3.79,1.38-3.7,3.41M360.49,27.88c-.09.31-.28,1.18-.18,2.45.18,2.32,1.14,3.86,1.83,2.95.62-.81.83-3.71-.08-5.74-.26-.49-.51-.7-.72-.72-.41-.05-.72.56-.86,1.06M365.75,28.95c0,.1,0,.23,0,.33.07,2.66,2.2,4.24,3.73,2.78,1.18-1.12,1.48-3.77.12-5.51-.44-.45-.89-.68-1.33-.73-1.3-.16-2.44,1.25-2.52,3.13M394.57,32.93c-.04,2.8,2.68,4.1,4.61,2.21,1.31-1.28,1.68-3.68.15-5.22-.44-.35-.9-.54-1.35-.6-1.74-.21-3.39,1.54-3.41,3.61M375.44,28.34c0,3.06,3.49,4.55,5.57,2.38,1.02-1.07,1.61-3.35-.29-5.08-.57-.42-1.16-.65-1.72-.72-1.91-.23-3.56,1.35-3.55,3.41M359.51,25.9s0-.04,0-.05c0,.09-.02.17-.02.26l.02-.2ZM360,22.74c-.06.35-.13.74-.2,1.14.06-.4.13-.79.2-1.14-.13.62-.25,1.28-.35,1.98-.04.29-.08.57-.11.85-.01.11-.02.22-.04.32l-.02.2c0,.1-.02.2-.02.3-.1,1.41.01,1.54.06,1.59.42-.17,1.07-4.3,1.1-6.08,0-.41-.02-.57-.1-.66-.08.03-.22.08-.54,1.5M387.75,27.33c.09,2.89,3.32,4.36,5.32,2.42,1.14-1.11,1.69-3.54-.25-5.22-.52-.37-1.05-.57-1.57-.63-1.9-.23-3.57,1.41-3.51,3.43M362.55,22.85c-.05.19-.11.44-.14.63-.39,2.38.64,4,1.92,3.05,1.12-.83,2.15-3.69,1.3-5.65-.25-.44-.54-.65-.85-.69-.87-.11-1.84,1.19-2.24,2.66M369.92,22.57c-.37,2.64,1.9,4.22,3.93,2.73,1.5-1.11,2.16-3.58.78-5.22-.44-.42-.91-.64-1.38-.7-1.57-.19-3.09,1.45-3.33,3.19M380.75,21.74c-.11,2.71,3.23,4.24,5.34,2.44,1.36-1.17,1.66-3.42-.08-4.93-.51-.36-1.03-.55-1.56-.62-1.87-.23-3.63,1.25-3.71,3.11M363.44,15.49c-.53.53-1.16,1.57-1.6,2.66-.74,1.8-.8,3.23-.14,3,.86-.3,2.52-3.48,2.63-5.41,0-.42-.12-.59-.27-.61-.17-.02-.41.15-.62.36M366.73,17.22c-.81,2.13.24,3.64,1.94,2.79,1.57-.79,2.91-3.37,2.19-5.04-.23-.38-.54-.57-.88-.62-1.13-.14-2.66,1.33-3.24,2.87M375.3,16.49c-.58,2.34,1.77,3.82,3.92,2.46,1.55-.98,2.28-3.17.93-4.66-.39-.34-.82-.52-1.26-.58-1.56-.19-3.22,1.25-3.59,2.77M366.06,10.85c-1.6,1.95-1.85,2.25-2.46,3.24-.35.59-.83,1.37-1.15,1.97,0,.01-.01.03-.02.05q.1-.08,3.38-4.82c.2-.29.26-.37.31-.47-.01,0-.03.02-.05.03M367.27,11.31c-.35.35-.73.79-1.01,1.18-1.08,1.53-1.2,2.81-.24,2.63,1.3-.25,3.53-2.99,3.73-4.59,0-.34-.13-.5-.33-.52-.54-.07-1.59.75-2.15,1.31M372.36,11.81c-.98,1.69-.14,3.03,1.57,2.5,1.88-.58,3.38-2.94,2.77-4.36-.19-.3-.47-.46-.79-.5-1.12-.14-2.82,1.09-3.55,2.36M368.47,8.56c-1.37,1.21-2.1,2.21-1.74,2.18.6-.05,3.69-2.83,4.59-3.82.19-.22.23-.29.23-.37,0,0-.02-.01-.04-.01-.3-.04-1.7.84-3.04,2.02M372.6,7.53c-.14.11-.32.26-.45.38-1.31,1.21-1.38,2.15-.56,2.15,1.38,0,4.04-2.35,4.42-3.63.03-.25-.08-.37-.29-.39-.65-.08-2.2.76-3.12,1.49M374.48,4.93c-1.45.76-2.26,1.52-1.91,1.6.72.17,5.3-2.62,5.34-2.65.18-.13.21-.15.24-.21-.01-.01-.04-.02-.07-.03-.41-.05-2.19.55-3.6,1.29"></path></clipPath><radialGradient id="e" cx="1812.57" cy="424.99" fx="1812.57" fy="424.99" r=".41" gradientTransform="translate(-25099.5 -108655.93) rotate(90) scale(59.96 -59.96)" gradientUnits="userSpaceOnUse"><stop offset="0" stop-color="#44c5e9"></stop><stop offset="1" stop-color="#2f266f"></stop></radialGradient></defs><g id="c"><path class="j" d="M83.7,29.56h11.29v11.02c-3.17.28-6.38.59-9.27.59-6.94,0-11.57-1.15-14.19-3.49-1.74-1.47-2.62-3.76-2.62-6.97s.87-5.23,2.62-6.66c2.62-2.62,7.25-3.76,14.19-3.76,2.89,0,6.06.28,9.27.87v2.89c-2.02-.59-4.36-.87-6.94-.87-3.17,0-5.51.59-6.97,1.47-2.02,1.15-3.17,3.17-3.17,6.06,0,3.76,1.51,6.26,4.04,7.25,1.78.67,4.28.63,4.87.59,1.7-.08,2.73-.32,3.53-.59.4-.16.59-.59.59-1.15v-4.32h-7.25v-2.93ZM96.74,30.71c0,3.17.87,5.51,2.62,6.97,1.15,1.15,2.89,2.02,5.23,2.62,2.02.59,4.04.87,5.79.87,2.02,0,4.04-.36,5.79-.87,2.3-.67,4.04-1.43,5.19-2.62,1.74-1.47,2.62-3.76,2.62-6.97s-.87-5.23-2.62-6.66c-2.62-2.3-6.06-3.49-10.42-3.49-2.02,0-4.08.08-6.06.59-2.42.59-4.36,1.74-5.51,2.89-1.74,1.43-2.62,3.49-2.62,6.66M105.73,30.71c0-2.3.71-4.2,2.02-5.51,1.31-1.31,3.17-1.74,5.79-1.74,2.34,0,3.96.67,5.51,2.02,1.39,1.23,2.02,2.89,2.02,5.23s-.59,4.36-2.02,5.51c-1.43,1.15-3.17,2.02-5.51,2.02-2.62,0-4.4-.79-5.79-2.02-1.23-1.11-2.02-3.21-2.02-5.51M125.98,30.71c0,3.17.59,5.51,2.34,6.97,1.15,1.15,2.89,2.02,5.23,2.62,2.02.59,4.04.87,5.79.87,2.02,0,4.04-.28,6.06-.87,2.02-.59,3.76-1.43,4.91-2.62,1.74-1.47,2.62-3.76,2.62-6.97s-.87-5.23-2.62-6.66c-2.62-2.3-6.06-3.49-10.42-3.49-2.02,0-4.08.08-6.06.59-2.42.59-4.36,1.74-5.51,2.89-1.74,1.43-2.34,3.49-2.34,6.66M134.7,30.71c0-2.3.71-4.2,2.02-5.51,1.31-1.31,3.17-1.74,5.79-1.74,2.34,0,4.2.71,5.51,2.02,1.31,1.31,2.02,2.89,2.02,5.23s-.59,4.36-2.02,5.51c-1.47,1.15-3.17,2.02-5.51,2.02-2.62,0-4.4-.79-5.79-2.02-1.23-1.11-2.02-3.21-2.02-5.51M181.9,30.71c0,3.76-1.15,6.38-3.49,7.81-2.02,1.15-4.91,2.02-8.68,2.02h-7.09c-1.15,0-1.86-.08-2.62-.24-1.43-.28-2.26-.75-3.05-1.23-1.03-.63-1.47-2.02-1.47-3.49v-14.5h14.19c3.76,0,6.66.59,8.68,2.02,2.38,1.51,3.53,4.12,3.53,7.61M170.33,37.96c2.02,0,3.09-.2,3.88-.52,2.66-1.03,3.92-3.25,3.92-6.74,0-2.62-.71-4.91-3.17-6.06-.83-.4-1.74-.59-2.89-.59h-8.12v11.89c0,.87.87,1.43,2.62,1.74.87.12,2.02.28,3.76.28M206.23,34.75v-13.63h3.76v19.42h-6.38c-.59,0-1.19-.16-1.78-.4-.83-.36-1.11-.75-1.7-1.35l-2.89-2.89-4.36,4.64h-.87c-.59-.04-1.51-.08-2.62-.28-1.74-.36-2.85-.91-3.49-1.43-.79-.67-1.47-1.74-1.47-3.17v-14.5h8.4v13.63l4.64-4.64h2.3c.59,0,1.23.16,1.78.48.79.44,1.11.71,1.7,1.27l2.97,2.85ZM227.67,40.54h9.27v-2.89h-12.72c-.59,0-1.19-.08-1.74-.55-.36-.32-.59-.63-.59-1.19v-4.36h13.91v-2.89h-13.91v-4.64h15.06v-2.89h-23.46v14.5c0,3.17,2.62,4.64,7.53,4.91h6.66Z"></path><polygon class="i" points="47.52 27.23 27.23 6.97 6.97 27.23 27.23 47.52 41.73 33.33 27.23 18.82 18.82 27.23 27.23 35.63 29.84 33.33 23.58 27.07 27.23 23.46 36.78 33.33 27.23 42.6 11.89 27.23 27.23 11.89 48.94 33.33 27.23 54.45 0 27.23 27.23 0 54.77 27.23 47.52 27.23"></polygon><polygon class="j" points="130.9 48.11 128.52 50.88 127.69 48.11 126.26 48.11 127.57 52.03 126.81 54.77 128.12 54.77 128.87 52.03 132.32 48.11 130.9 48.11"></polygon><path class="j" d="M138.82,48.94h0c-.2-.28-.48-.52-.83-.67-.36-.16-.79-.24-1.31-.24s-.99.08-1.47.24c-.44.16-.87.4-1.23.67-.36.28-.67.67-.91,1.07-.24.4-.44.87-.59,1.39-.12.52-.2.95-.16,1.39.04.44.12.79.32,1.11s.48.55.83.71.83.28,1.35.28.99-.08,1.43-.24.87-.4,1.23-.71.67-.67.95-1.11c.28-.44.48-.87.59-1.39.16-.52.2-.99.16-1.39-.04-.44-.16-.79-.36-1.11M137.67,51.4c-.08.36-.24.67-.4.95-.16.28-.36.52-.55.75-.2.2-.48.36-.71.48-.28.12-.59.2-.95.2-.32,0-.59-.08-.79-.16-.2-.12-.36-.28-.48-.48-.12-.2-.16-.48-.16-.75s.04-.63.12-.95c.08-.36.24-.67.4-.95.16-.28.36-.52.55-.71s.48-.36.71-.44c.28-.12.59-.16.91-.16s.59.04.79.16c.2.12.36.28.48.44.12.2.16.44.2.71.04.24-.04.55-.12.91"></path><path class="j" d="M145.04,52.15c-.08.28-.2.52-.32.75-.12.2-.28.36-.48.52-.16.12-.36.24-.55.28-.44.12-.87.12-1.19,0-.16-.08-.28-.16-.4-.28-.08-.12-.16-.28-.16-.48-.04-.2,0-.44.08-.71l1.11-4.08h-1.31l-1.15,4.2c-.12.44-.16.83-.12,1.15s.16.59.36.79.44.36.75.48c.32.12.63.16,1.03.16s.79-.04,1.15-.16c.4-.12.71-.28,1.07-.48.32-.24.59-.52.83-.83.24-.32.44-.71.55-1.19l1.11-4.08h-1.31l-1.07,3.96Z"></path><path class="j" d="M152.81,51.76c.24-.12.44-.28.63-.44s.32-.36.48-.59c.12-.2.2-.44.28-.63.08-.32.12-.59.08-.83-.04-.24-.16-.48-.32-.63s-.4-.32-.67-.4-.59-.12-.99-.12h-2.58l-1.82,6.66h1.31l.71-2.62h.99l.91,2.62h1.51l-1.07-2.77c.16-.08.36-.16.55-.24M152.65,50.53c-.08.12-.16.24-.28.32s-.28.16-.44.2-.36.08-.55.08h-1.23l.55-1.98h1.19c.4,0,.67.08.83.28.16.16.2.4.12.71-.04.12-.12.28-.2.4"></path><path class="j" d="M163.71,51.68c-.08-.16-.2-.28-.32-.36-.12-.08-.28-.16-.44-.24s-.32-.12-.52-.16-.36-.08-.52-.16c-.2-.04-.4-.12-.59-.16-.16-.04-.32-.12-.44-.2-.12-.08-.2-.16-.24-.24s-.04-.2,0-.36c.04-.12.08-.24.16-.32l.24-.24c.12-.08.24-.12.44-.16.16-.04.4-.08.63-.08.2,0,.4.04.55.04.12.04.24.08.32.16s.16.16.16.24c.04.08.04.2.04.36v.12l1.31-.2v-.16c0-.28-.04-.48-.12-.67-.08-.2-.2-.4-.36-.52s-.4-.24-.67-.32c-.28-.08-.59-.12-.99-.12-.36,0-.67.04-.99.12-.32.08-.63.2-.91.32-.28.16-.52.36-.71.59-.2.24-.36.52-.44.83-.08.24-.08.44-.08.63s.08.36.12.48c.08.12.16.24.32.36.12.08.28.16.4.24.16.08.32.12.48.16l.12.04c.12.04.24.08.36.12l.63.16c.2.04.36.12.52.2.12.08.24.16.28.28.04.12.08.24,0,.4-.04.16-.12.28-.2.4s-.2.2-.36.28-.32.12-.52.16-.4.08-.63.08c-.28,0-.48-.04-.67-.08-.16-.04-.32-.12-.4-.2s-.16-.2-.2-.28c-.04-.12-.04-.24-.04-.4v-.12l-1.31.24v.16c-.04.55.16,1.03.55,1.31.36.32.99.44,1.78.44.48,0,.87-.04,1.23-.16s.71-.24.95-.4c.28-.2.52-.4.67-.63.16-.24.32-.52.4-.79.08-.24.08-.48.08-.67.04-.2,0-.36-.08-.52"></path><path class="j" d="M172.15,48.94h0c-.2-.28-.48-.52-.83-.67-.36-.16-.79-.24-1.31-.24s-.99.08-1.47.24c-.44.16-.87.4-1.23.67s-.67.67-.91,1.07c-.24.44-.48.87-.59,1.39-.12.52-.2.95-.16,1.39.04.44.12.79.32,1.11.2.32.48.55.83.71.36.16.83.28,1.35.28s.99-.08,1.43-.24.87-.4,1.23-.71.67-.67.95-1.11c.28-.44.48-.91.59-1.39.16-.52.2-.99.16-1.39-.04-.44-.16-.79-.36-1.11M171,51.4c-.08.36-.24.67-.4.95h0c-.16.28-.36.52-.55.75-.2.2-.44.36-.71.48-.28.12-.59.2-.95.2-.32,0-.59-.08-.79-.16-.2-.12-.36-.28-.48-.48-.12-.2-.16-.48-.16-.75s.04-.63.12-.95c.08-.36.24-.67.4-.95.16-.28.36-.52.55-.71s.48-.36.71-.44c.28-.12.59-.16.91-.16s.59.04.79.16c.2.12.36.28.48.44.12.2.16.44.2.71.04.24,0,.55-.12.91"></path><polygon class="j" points="176.47 48.11 175.2 48.11 173.38 54.77 177.66 54.77 177.98 53.7 174.96 53.7 176.47 48.11"></polygon><path class="j" d="M184.2,48.11h-1.39l-4.32,6.66h1.35l1.15-1.78h2.42l.16,1.78h1.35l-.67-6.58-.04-.08ZM183.36,51.91h-1.78l1.55-2.5.24,2.5Z"></path><path class="j" d="M191.25,51.76c.24-.12.44-.28.63-.44s.36-.36.48-.55c.12-.2.2-.44.28-.63.08-.32.12-.59.08-.83-.04-.24-.16-.48-.32-.63s-.4-.32-.67-.4-.59-.16-.99-.16h-2.58l-1.82,6.66h1.31l.71-2.62h.99l.91,2.62h1.51l-1.07-2.77c.16-.08.36-.16.55-.24M189.15,49.14h1.19c.4,0,.67.08.83.28.16.16.2.4.12.71-.04.16-.12.28-.2.4s-.16.24-.28.32c-.12.08-.28.16-.44.24-.16.04-.36.08-.55.08h-1.23l.55-2.02Z"></path><polygon class="j" points="198.66 51.91 201.79 51.91 202.07 50.84 198.94 50.84 199.38 49.18 202.78 49.18 203.1 48.11 198.38 48.11 196.56 54.77 201.48 54.77 201.75 53.7 198.15 53.7 198.66 51.91"></polygon><path class="j" d="M208.85,52.27c-.08.24-.12.52-.2.75l-2.06-4.87-.04-.08h-1.39l-1.82,6.66h1.19l1.15-4.24c.08-.2.12-.44.16-.67l2.06,4.91h1.43l1.82-6.66h-1.19l-1.11,4.2Z"></path><path class="j" d="M215.03,52.27h1.7l-.24.91c-.08.08-.16.12-.28.2s-.28.16-.4.2c-.16.08-.32.12-.52.16s-.36.08-.55.08c-.32,0-.55-.08-.75-.16-.2-.12-.36-.28-.44-.48-.12-.2-.16-.48-.16-.75s.04-.63.16-.95c.12-.36.24-.67.36-.99.16-.28.32-.52.52-.71s.44-.36.67-.44c.24-.12.55-.16.87-.16.2,0,.4.04.55.08s.28.12.36.2c.12.08.16.2.24.32.08.12.12.24.12.4l.04.12,1.31-.44-.04-.16c-.04-.24-.12-.44-.2-.63s-.24-.36-.44-.52-.4-.28-.67-.36c-.28-.08-.59-.12-.95-.12-.52,0-.99.08-1.43.24s-.83.4-1.19.67-.63.67-.87,1.07c-.24.4-.44.87-.55,1.39-.12.48-.2.95-.2,1.39s.12.79.28,1.11c.2.32.44.55.79.71s.79.28,1.31.28c.32,0,.63-.04.91-.08.28-.08.59-.16.83-.24.28-.12.52-.24.75-.36.24-.16.44-.28.59-.44l.04-.04.67-2.46h-2.93l-.28.95Z"></path><polygon class="j" points="219.39 54.77 220.7 54.77 222.48 48.11 221.17 48.11 219.39 54.77"></polygon><path class="j" d="M228.46,52.27c-.08.24-.12.48-.2.75l-2.06-4.87-.04-.08h-1.39l-1.82,6.66h1.19l1.15-4.24c.08-.2.12-.44.16-.67l2.02,4.83.04.08h1.43l1.82-6.66h-1.19l-1.11,4.2Z"></path><polygon class="j" points="232.86 53.7 233.34 51.91 236.47 51.91 236.79 50.84 233.61 50.84 234.09 49.18 237.5 49.18 237.78 48.11 233.06 48.11 231.28 54.77 236.15 54.77 236.47 53.7 232.86 53.7"></polygon><path class="l" d="M411.23,17.57v8.56c0,7.25,7.44,6.86,7.44,6.86h34.14v-6.76s-32.05,0-32.05,0c-2.14,0-2.19-2-2.19-2v-2.48h34.09v-4.18,1.33-4.18h-34.09v-2.48s.05-1.99,2.19-1.99h32.05V3.49h-34.14s-7.44-.39-7.44,6.86v8.56-1.33Z"></path><path class="l" d="M462.28,32.99v-11.23h34.09v-4.18,1.33-4.18h-34.09v-2.48s.05-1.99,2.19-1.99h32.05V3.49h-34.14s-7.44-.39-7.44,6.86v8.56-1.33,15.43l7.34-.02Z"></path><path class="l" d="M540.41,21.51l.02,4.94c0,6.84-7.84,6.53-7.84,6.53h-33.73v-6.9h32.84c1.7,0,1.54-1.19,1.54-1.19v-1.96c0-1.42-1.56-1.3-1.56-1.3h-25.38s-8.52.55-8.52-6.38v-4.48c0-7.57,7.41-7.29,7.41-7.29h34.2v6.76s-32.75,0-32.75,0c-1.83,0-1.55,1.57-1.55,1.57v1.5s-.28,1.46,1.67,1.46h26.34s7.25-.25,7.32,6.74"></path><g class="k"><rect class="h" x="358.87" y="4.91" width="50.25" height="49.54" transform="translate(307.71 407.2) rotate(-83)"></rect></g><path class="l" d="M431.13,40.6v3.25h-15.45c-.54,0-.8.17-.8.51v1.08c0,.34.27.51.8.51h11.69c2.8,0,4.2,1.11,4.2,3.34v1.91c0,2.26-1.41,3.39-4.22,3.39h-15.45v-3.25h15.45c.52,0,.79-.16.79-.49v-1.14c0-.34-.26-.51-.79-.51h-11.69c-2.81,0-4.22-1-4.22-2.99v-2.2c0-2.27,1.41-3.41,4.23-3.41h15.45Z"></path><path class="l" d="M443.32,54.59c-3.51,0-5.27-1.48-5.27-4.44v-5.09c0-2.97,1.75-4.46,5.27-4.46h10.81c3.51,0,5.27,1.49,5.27,4.46v5.09c0,2.96-1.76,4.44-5.27,4.44h-10.81ZM443.32,43.85c-1.22,0-1.84.4-1.84,1.21v5.09c0,.79.61,1.19,1.84,1.19h10.81c1.22,0,1.84-.4,1.84-1.19v-5.09c0-.8-.61-1.21-1.84-1.21h-10.81Z"></path><path class="l" d="M470.16,54.59c-2.81,0-4.22-1.13-4.22-3.39v-10.6h3.43v10.08c0,.44.26.66.79.66h15.25v3.25h-15.25Z"></path><path class="l" d="M507.58,51.84h-11.35l-1.54,2.75h-3.95l7.33-12.81c.1-.2.21-.37.32-.52.11-.15.24-.27.39-.37.15-.1.33-.17.54-.23s.47-.08.79-.08h3.53c.97,0,1.68.39,2.13,1.17l7.31,12.82h-3.94l-1.57-2.75ZM497.88,48.76h8.01l-2.43-4.27c-.13-.23-.27-.4-.43-.5-.16-.1-.32-.15-.48-.15h-1.35c-.37,0-.68.22-.93.66l-2.4,4.25Z"></path><path class="l" d="M518.75,40.6h16.85c2.69,0,4.04,1.14,4.04,3.41v1.26c0,2.37-1.35,3.55-4.04,3.55h-1.17l5.79,5.77h-4.72l-5.43-5.6h-7.88v5.6h-3.43v-13.99ZM522.18,43.85v2.24h13.52c.45,0,.68-.19.68-.56v-1.13c0-.36-.26-.55-.79-.55h-13.42Z"></path><line class="g" x1="285.08" y1="14.39" x2="314.81" y2="44.12"></line><line class="g" x1="314.81" y1="14.39" x2="285.08" y2="44.12"></line></g></svg>