<?xml version="1.0" encoding="UTF-8"?> <svg xmlns="http://www.w3.org/2000/svg" viewBox="0 0 99.98 99.98"><defs><style>.cls-1,.cls-2{fill:#2f266f;}.cls-2{font-size:16px;font-family:Gotham-Bold, Gotham;font-weight:700;letter-spacing:-0.03em;}.cls-3{letter-spacing:-0.02em;}.cls-4{fill:none;}</style></defs><g id="Layer_2" data-name="Layer 2"><g id="Layer_1-2" data-name="Layer 1"><path class="cls-1" d="M63,37.12H60.23V34.94H40.17v2.18H37.35a1.14,1.14,0,0,0,0,2.28H63a1.14,1.14,0,1,0,0-2.28"></path><path class="cls-1" d="M68.54,5.5H31.85a1.1,1.1,0,0,0-1.1,1.1V31.27a1.09,1.09,0,0,0,1.1,1.09H68.54a1.1,1.1,0,0,0,1.11-1.09V6.6a1.11,1.11,0,0,0-1.11-1.1M51.32,29a1.14,1.14,0,1,1-2.27-.29,1.17,1.17,0,0,1,1-1A1.15,1.15,0,0,1,51.32,29M50.2,24.26a1.14,1.14,0,1,1,1.13-1.14,1.14,1.14,0,0,1-1.13,1.14M54.09,21a1.15,1.15,0,0,1-.81.33,1.13,1.13,0,0,1-.8-.33,3.24,3.24,0,0,0-4.57,0,1.13,1.13,0,0,1-1.61,0,1.15,1.15,0,0,1,0-1.61,5.51,5.51,0,0,1,7.79,0,1.15,1.15,0,0,1,0,1.61M57,18a1.15,1.15,0,0,1-1.61,0A7.38,7.38,0,0,0,45,18a1.14,1.14,0,0,1-1.61-1.61,9.65,9.65,0,0,1,13.65,0A1.13,1.13,0,0,1,57,18"></path><text class="cls-2" transform="translate(19.36 70.89)">Remote<tspan class="cls-3"><tspan x="-11.81" y="19.2">Monitoring</tspan></tspan></text><rect class="cls-4" width="99.98" height="99.98"></rect></g></g></svg> 