<?xml version="1.0" encoding="UTF-8"?> <svg xmlns="http://www.w3.org/2000/svg" viewBox="0 0 50.26 50.26"><defs><style>.cls-1{fill:#2f266f;}.cls-2{fill:#fff;}</style></defs><g id="Layer_2" data-name="Layer 2"><g id="Layer_1-2" data-name="Layer 1"><path class="cls-1" d="M25.13,50.26A25.13,25.13,0,1,0,0,25.13,25.13,25.13,0,0,0,25.13,50.26"></path><path class="cls-2" d="M27.08,37.69a4.16,4.16,0,0,1-2.78-7.27.82.82,0,0,0,.28-.62V15.08a2.5,2.5,0,1,1,5,0V29.8a.85.85,0,0,0,.27.62,4.16,4.16,0,0,1-2.77,7.27m4.16-22.61a4.17,4.17,0,1,0-8.33,0V29.45a5.84,5.84,0,1,0,8.33,0Z"></path><path class="cls-2" d="M27.08,34.36a.85.85,0,0,1-.84-.84.84.84,0,0,1,.84-.83.83.83,0,0,1,.83.83.84.84,0,0,1-.83.84m.83-3.19V21.74a.83.83,0,0,0-.83-.83.84.84,0,0,0-.84.83v9.43a2.51,2.51,0,1,0,1.67,0"></path><path class="cls-2" d="M33.74,15.91h1.67a.83.83,0,0,0,.83-.83.84.84,0,0,0-.83-.84H33.74a.84.84,0,0,0-.83.84.83.83,0,0,0,.83.83"></path><path class="cls-2" d="M33.74,19.24h.84a.83.83,0,1,0,0-1.66h-.84a.83.83,0,0,0,0,1.66"></path><path class="cls-2" d="M35.41,20.91H33.74a.83.83,0,0,0-.83.83.84.84,0,0,0,.83.84h1.67a.84.84,0,0,0,.83-.84.83.83,0,0,0-.83-.83"></path><path class="cls-2" d="M33.74,25.91h.84a.83.83,0,0,0,.83-.83.84.84,0,0,0-.83-.84h-.84a.84.84,0,0,0-.83.84.83.83,0,0,0,.83.83"></path><path class="cls-2" d="M35.41,27.58H33.74a.83.83,0,0,0,0,1.66h1.67a.83.83,0,0,0,0-1.66"></path><path class="cls-2" d="M18.71,28.93l-.8.8v-8a.83.83,0,0,0-.83-.83.84.84,0,0,0-.84.83v8l-.8-.8a.83.83,0,0,0-1.18,1.18l2.23,2.22a.81.81,0,0,0,1.17,0l2.23-2.22a.83.83,0,0,0-1.18-1.18"></path></g></g></svg> 