<svg xmlns="http://www.w3.org/2000/svg" id="b" viewBox="0 0 173.35 85.5"><defs><style>.d{fill:none;}.e{fill:#565c60;}.e,.f{fill-rule:evenodd;}.f{fill:#d57830;}</style></defs><g id="c"><path class="f" d="M24.22,55.76c-4.97,0-9.5-2.85-11.65-7.37-.37-.78-.04-1.72.75-2.09.78-.37,1.72-.04,2.09.75,1.68,3.54,5.3,5.73,9.21,5.57,3.64-.15,6.86-2.29,8.41-5.58.37-.78,1.31-1.12,2.09-.75.78.37,1.12,1.31.75,2.09-2.06,4.35-6.32,7.18-11.13,7.38-.18,0-.36.01-.54.01h0Z"></path><path class="f" d="M35.32,44.18H13.1c-.87,0-1.57-.7-1.57-1.57s.7-1.57,1.57-1.57h20.52c-.76-4.62-4.79-8.15-9.62-8.15-3.64,0-6.95,2-8.64,5.23-.4.77-1.35,1.07-2.12.66-.77-.4-1.06-1.35-.66-2.12,2.23-4.26,6.61-6.91,11.42-6.91,7.09,0,12.88,5.77,12.89,12.86,0,.42-.16.82-.46,1.11-.29.3-.69.46-1.11.46h0Z"></path><path class="e" d="M55.84,48.58h-8.24v-4.56h5.85c.78,0,1.42-.64,1.42-1.42s-.64-1.42-1.42-1.42h-5.85v-3.94h7.64c.78,0,1.42-.64,1.42-1.42s-.64-1.42-1.42-1.42h-9.06c-.79,0-1.42.64-1.42,1.42v14.18c0,.78.64,1.42,1.42,1.42h9.66c.78,0,1.42-.64,1.42-1.42s-.64-1.42-1.42-1.42h0Z"></path><path class="e" d="M155.89,48.58h-8.24v-4.56h5.85c.78,0,1.42-.64,1.42-1.42s-.64-1.42-1.42-1.42h-5.85v-3.94h7.64c.78,0,1.42-.64,1.42-1.42s-.64-1.42-1.42-1.42h-9.06c-.78,0-1.42.64-1.42,1.42v14.18c0,.78.64,1.42,1.42,1.42h9.66c.78,0,1.42-.64,1.42-1.42s-.64-1.42-1.42-1.42h0Z"></path><path class="e" d="M116.97,44.67l2.2-5.2,2.2,5.2h-4.39ZM126.46,49.44l-1.64-3.9s0-.01,0-.02l-4.33-10.27s-.01-.03-.02-.04c-.01-.02-.02-.05-.04-.07-.01-.02-.02-.04-.03-.06-.01-.02-.02-.04-.04-.06-.01-.02-.03-.04-.04-.06-.01-.02-.03-.04-.04-.05-.02-.02-.03-.04-.05-.05-.02-.02-.03-.03-.05-.05-.02-.02-.03-.03-.05-.05-.02-.02-.03-.03-.05-.05-.02-.01-.04-.03-.05-.04-.02-.01-.04-.03-.06-.04-.02-.01-.04-.02-.06-.04-.02-.01-.04-.02-.06-.03-.02-.01-.05-.02-.07-.03-.02,0-.03-.02-.05-.02,0,0,0,0,0,0-.03-.01-.05-.02-.08-.03-.02,0-.04-.01-.06-.02-.02,0-.04-.01-.06-.02-.1-.03-.2-.04-.3-.04-.02,0-.03,0-.05,0-.01,0-.02,0-.03,0-.11,0-.22.02-.32.05-.02,0-.04,0-.05.01-.02,0-.04.01-.06.02-.02,0-.05.02-.07.03,0,0,0,0,0,0-.02,0-.03.02-.05.02-.02.01-.04.02-.07.03-.02.01-.04.02-.06.04-.02.01-.04.02-.06.03-.02.01-.04.03-.06.04-.02.01-.03.02-.05.04-.02.02-.04.03-.06.05-.02.01-.03.03-.05.04-.02.02-.03.03-.05.05-.02.02-.03.03-.04.05-.01.02-.03.04-.04.06-.01.02-.03.04-.04.06-.01.02-.03.04-.04.06-.01.02-.02.04-.03.06-.01.02-.02.05-.04.07,0,.01-.01.03-.02.04l-4.33,10.27s0,.01,0,.02l-1.64,3.89c-.3.72.03,1.56.76,1.86.18.08.37.11.55.11.55,0,1.08-.33,1.31-.87l1.28-3.03h6.79l1.28,3.03c.23.54.76.87,1.31.87.18,0,.37-.04.55-.11.72-.31,1.06-1.14.76-1.86h0Z"></path><path class="e" d="M73.36,51.42h-.36c-.44,0-.85-.2-1.12-.55l-8.83-11.31v10.44c0,.78-.64,1.42-1.42,1.42s-1.42-.64-1.42-1.42v-14.18c0-.78.64-1.42,1.42-1.42h.3c.44,0,.85.2,1.12.55l8.89,11.39v-10.52c0-.78.64-1.42,1.42-1.42s1.42.64,1.42,1.42v14.18c0,.78-.64,1.42-1.42,1.42h0Z"></path><path class="e" d="M107.41,34.39c-.78,0-1.42.64-1.42,1.42v5.36h-8.1v-5.36c0-.78-.64-1.42-1.42-1.42s-1.42.64-1.42,1.42v6.78h0v7.4c0,.78.64,1.42,1.42,1.42s1.42-.64,1.42-1.42v-5.98h8.1v5.98c0,.78.64,1.42,1.42,1.42s1.42-.64,1.42-1.42v-14.18c0-.78-.64-1.42-1.42-1.42h0Z"></path><path class="e" d="M134.97,51.73c-2.14,0-4.34-.85-5.86-2.36-.56-.55-.56-1.45,0-2.01.55-.56,1.45-.56,2.01,0,1.51,1.51,3.81,1.8,5.29,1.31.65-.21,1.45-.67,1.6-1.62.12-.8-.31-1.55-2.82-2.63-.23-.1-.44-.19-.61-.27-.12-.06-.35-.15-.59-.25-1.59-.64-4.9-1.97-4.84-5.03.04-1.87,1.17-3.44,3.03-4.19,2.6-1.05,5.88-.33,7.98,1.76.56.55.56,1.45,0,2.01-.55.56-1.45.56-2.01,0-1.46-1.46-3.58-1.68-4.91-1.14-.82.33-1.24.87-1.26,1.61-.02,1.1,1.98,1.91,3.06,2.34.31.13.58.23.81.35.1.05.27.12.46.2,1.51.65,5.04,2.17,4.51,5.67-.28,1.83-1.56,3.24-3.52,3.89-.74.24-1.53.36-2.33.36h0Z"></path><path class="e" d="M82.1,42.17h4.41c1.61,0,2.66-.97,2.66-2.47s-1.04-2.47-2.66-2.47h-4.41v4.94h0ZM80.67,51.42c-.78,0-1.42-.64-1.42-1.42v-14.18c0-.78.64-1.42,1.42-1.42h5.83c3.19,0,5.5,2.23,5.5,5.31s-2.31,5.31-5.5,5.31h-4.41v4.98c0,.78-.64,1.42-1.42,1.42h0Z"></path><path class="e" d="M160.5,50.07c.2,0,.42.01.42-.25,0-.21-.17-.24-.33-.24h-.33v.5h.24ZM160.27,50.92h-.21v-1.52h.58c.34,0,.49.15.49.42s-.18.39-.35.42l.42.67h-.23l-.41-.67h-.29v.67h0ZM161.6,50.16c0-.62-.46-1.11-1.07-1.11s-1.07.49-1.07,1.11.46,1.11,1.07,1.11,1.07-.49,1.07-1.11h0ZM161.81,50.16c0,.7-.57,1.28-1.28,1.28s-1.28-.57-1.28-1.28.57-1.28,1.28-1.28,1.28.58,1.28,1.28h0Z"></path><rect class="d" width="173.35" height="85.5"></rect></g></svg>