<?xml version="1.0" encoding="UTF-8"?> <svg xmlns="http://www.w3.org/2000/svg" xmlns:xlink="http://www.w3.org/1999/xlink" id="Layer_2" data-name="Layer 2" viewBox="0 0 506.05 59.71"><defs><style> .cls-1, .cls-2 { fill: none; } .cls-3 { clip-path: url(#clippath); } .cls-4 { fill: #002e6e; } .cls-5 { fill: #231f20; } .cls-6 { fill: #44acc8; } .cls-7 { fill: url(#New_Gradient_Swatch_1); } .cls-2 { stroke: #44c5e9; stroke-miterlimit: 10; } </style><clipPath id="clippath"><path class="cls-1" d="m345.74,51.76c.08.14.45.36,1.09.56.25.08.45.12.61.15.37.06.47.08.79.12-.22-.05-.37-.12-.69-.31-.41-.24-.56-.32-.89-.46-.3-.12-.51-.18-.66-.19-.25-.03-.3.05-.25.13m2.92.4s0,.04.01.06c.22.75,1.62.34,1.87-.12.13-.24-.03-.4-.1-.47-.16-.12-.35-.18-.55-.21-.63-.08-1.31.3-1.24.74m-7.52-2.49c.05.23.53.68,1.48,1.2,1.06.57,2.36,1.01,2.56.98,0,0,0-.02,0-.03-.03-.04-1.49-1.28-2.82-1.98-.46-.22-.75-.31-.93-.33-.32-.04-.3.14-.29.17m11.31,2.37c-.78.49-.7.52-.64.54.33.11,3.64-.46,3.78-1.34-.03-.11-.14-.18-.33-.2-.52-.06-1.58.23-2.81,1m-7.34-1.97c.05.16.15.33.29.51.85,1.06,2.64,1.63,2.75.36.03-.3-.06-.88-.91-1.44-.37-.2-.72-.31-1.02-.35-.8-.1-1.31.31-1.11.93m15.5.24c-.62.08-1.57.49-3.47,1.3-.53.23-1.12.32-1.6.68.16.15,4.15-.76,5.29-1.79.05-.05.15-.18-.02-.2-.04,0-.11,0-.19,0m-9.77-.06c-.27,1.23,1.06,1.57,2.54.64.16-.1,1.55-1.01.81-1.89-.23-.19-.51-.3-.81-.34-1.03-.13-2.32.56-2.54,1.58m-14.99-3.63c.1.31.65.96,1.67,1.72,1.31.98,2.99,1.81,2.92,1.51-.05-.2-1.84-2.01-3.4-3.04-.51-.31-.8-.43-.98-.45-.28-.03-.23.18-.21.25m3.97.14c.05.23.19.6.6,1.08,1.1,1.32,3.25,2.4,3.36,1.11.04-.48-.27-1.65-1.75-2.65-.49-.29-.91-.44-1.24-.48-.76-.09-1.09.36-.97.93m17.56,2.92c-.2.21-1.12,1.24-.24,1.25,1.17.02,4.4-1.6,4.27-2.77-.08-.18-.25-.28-.48-.31-.83-.1-2.47.68-3.55,1.82m-10.73-2.27c.45,1.82,3.14,2.55,4.16.68.21-.38.57-1.37-.58-2.29-.43-.28-.86-.43-1.28-.48-1.43-.18-2.61.85-2.3,2.09m-15.67-4.84c.04.31.67,1.25,1.77,2.37,1.15,1.18,2.43,2.16,2.59,2.05.02-.27-2.29-2.94-3.48-4.02-.39-.34-.66-.52-.78-.53-.07,0-.1.03-.09.13m35.75,4.08c-.69.28-1.87,1.05-3.16,2.05-1.68,1.31-1.44,1.35-1.35,1.36.49.07,4.18-1.84,5.06-3.24.08-.18.06-.27-.07-.29-.1-.01-.26.03-.48.12m-32.66-4.01c.07.44.35,1.01.75,1.56,1.13,1.55,3.29,3.01,3.44,1.73.07-.62-.5-2.32-2.2-3.67-.52-.37-.93-.54-1.24-.58-.63-.08-.85.41-.75.95m20.9,4.17c-.45,1.49.82,2.4,2.77,1.34,1.16-.63,2.46-2.08,1.61-3.19-.28-.25-.61-.39-.97-.44-1.32-.16-3,.95-3.4,2.29m-14.33-3.67c.03.14.09.33.14.47.82,2.1,3.73,3.23,4.63,1.3.08-.18.75-1.77-1.23-3.26-.54-.34-1.06-.53-1.53-.58-1.36-.17-2.28.76-2.02,2.07m22.59,2.65c-.69,1.06-.81,2.05.34,1.8,1.53-.34,4.18-2.61,3.9-3.98-.11-.24-.3-.36-.55-.39-.96-.12-2.74,1.13-3.68,2.57m-13.1-2.79c.06,2.19,2.98,3.3,4.79,1.23.59-.68,1.23-2.15-.11-3.35-.44-.31-.91-.48-1.38-.54-1.69-.21-3.34,1.09-3.3,2.67m-21.11-5.42c.01.56.3,1.4.77,2.25,1,1.79,2.64,3.27,2.85,2.3.14-.65-.57-2.95-2.11-4.59-.46-.44-.78-.61-1-.64-.51-.06-.5.65-.5.69m43.53,3.75c-.49.22-1.7,1.44-2.86,2.9-.38.47-1.56,1.99-1.11,1.89.58-.13,3.36-2.86,4.13-4.48.04-.12.12-.33,0-.35-.03,0-.08,0-.15.04m-38.14-3.11c.03.23.12.57.21.82.83,2.22,3.41,3.69,4.3,1.95.42-.81.42-2.68-1.35-4.23-.53-.4-1.03-.6-1.47-.66-1.15-.14-1.88.77-1.69,2.11m25.84,3.82c-.53,2,1.05,2.97,2.96,1.81,1.41-.85,2.75-2.87,1.75-4.23-.3-.29-.65-.45-1.03-.5-1.44-.18-3.23,1.24-3.68,2.92m-16.72-3.69c.44,2.76,4.21,3.78,5.68,1.54.51-.77.9-2.46-.84-3.88-.59-.39-1.18-.61-1.74-.67-1.89-.23-3.39,1.19-3.1,3.02m-17.7-6.52c-.1.45.17,1.77.63,3.13.63,1.83,1.43,3.23,1.61,2.81.2-.44-.57-3.54-1.55-5.44-.11-.19-.37-.65-.55-.67-.06,0-.11.04-.14.17m43.19,8.71c-.72,1.69-.39,2.68.72,2.18,1.36-.62,3.4-3.36,3.01-4.97-.12-.27-.3-.41-.53-.44-.89-.11-2.45,1.46-3.2,3.23m-14.05-3.06c-.11,2.54,2.8,3.66,4.79,1.84,1.04-.95,1.83-2.96.31-4.44-.46-.35-.95-.54-1.44-.6-1.8-.22-3.58,1.32-3.66,3.2m-25.82-4.79c0,.38.06.79.17,1.21.62,2.42,2.5,3.84,3.35,2.52.6-.93.53-3.32-.95-5.08-.44-.44-.84-.66-1.2-.7-.84-.1-1.4.77-1.37,2.05m7.7.36c.4,2.8,3.47,4.15,5.06,2.22.75-.91,1.23-3.02-.67-4.79-.55-.42-1.1-.64-1.61-.71-1.71-.21-3.05,1.33-2.77,3.28m28.84,3.05c-.37,2.28,1.13,3.45,2.88,2.24,1.36-.95,2.63-3.49,1.44-5.17-.31-.32-.65-.49-1.01-.54-1.39-.17-2.98,1.52-3.3,3.47m-17.57-3.9c.13,2.89,3.62,4.22,5.66,2.16,1.02-1.03,1.61-3.22-.26-4.89-.55-.4-1.13-.62-1.69-.69-1.99-.24-3.79,1.38-3.7,3.41m-22.02-6.26c-.09.31-.28,1.18-.18,2.45.18,2.32,1.14,3.86,1.83,2.95.62-.81.83-3.71-.08-5.74-.26-.49-.51-.7-.72-.72-.41-.05-.72.56-.86,1.06m5.26,1.07c0,.1,0,.23,0,.33.07,2.66,2.2,4.24,3.73,2.78,1.18-1.12,1.48-3.77.12-5.51-.44-.45-.89-.68-1.33-.73-1.3-.16-2.44,1.25-2.52,3.13m28.82,3.98c-.04,2.8,2.68,4.1,4.61,2.21,1.31-1.28,1.68-3.68.15-5.22-.44-.35-.9-.54-1.35-.6-1.74-.21-3.39,1.54-3.41,3.61m-19.13-4.59c0,3.06,3.49,4.55,5.57,2.38,1.02-1.07,1.61-3.35-.29-5.08-.57-.42-1.16-.65-1.72-.72-1.91-.23-3.56,1.35-3.55,3.41m-15.93-2.44s0-.04,0-.05c0,.09-.02.17-.02.26l.02-.2Zm.49-3.15c-.06.35-.13.74-.2,1.14.06-.4.13-.79.2-1.14-.13.62-.25,1.28-.35,1.98-.04.29-.08.57-.11.85-.01.11-.02.22-.04.32l-.02.2c0,.1-.02.2-.02.3-.1,1.41.01,1.54.06,1.59.42-.17,1.07-4.3,1.1-6.08,0-.41-.02-.57-.1-.66-.08.03-.22.08-.54,1.5m27.75,4.58c.09,2.89,3.32,4.36,5.32,2.42,1.14-1.11,1.69-3.54-.25-5.22-.52-.37-1.05-.57-1.57-.63-1.9-.23-3.57,1.41-3.51,3.43m-25.2-4.48c-.05.19-.11.44-.14.63-.39,2.38.64,4,1.92,3.05,1.12-.83,2.15-3.69,1.3-5.65-.25-.44-.54-.65-.85-.69-.87-.11-1.84,1.19-2.24,2.66m7.36-.28c-.37,2.64,1.9,4.22,3.93,2.73,1.5-1.11,2.16-3.58.78-5.22-.44-.42-.91-.64-1.38-.7-1.57-.19-3.09,1.45-3.33,3.19m10.83-.83c-.11,2.71,3.23,4.24,5.34,2.44,1.36-1.17,1.66-3.42-.08-4.93-.51-.36-1.03-.55-1.56-.62-1.87-.23-3.63,1.25-3.71,3.11m-17.3-6.25c-.53.53-1.16,1.57-1.6,2.66-.74,1.8-.8,3.23-.14,3,.86-.3,2.52-3.48,2.63-5.41,0-.42-.12-.59-.27-.61-.17-.02-.41.15-.62.36m3.29,1.73c-.81,2.13.24,3.64,1.94,2.79,1.57-.79,2.91-3.37,2.19-5.04-.23-.38-.54-.57-.88-.62-1.13-.14-2.66,1.33-3.24,2.87m8.57-.73c-.58,2.34,1.77,3.82,3.92,2.46,1.55-.98,2.28-3.17.93-4.66-.39-.34-.82-.52-1.26-.58-1.56-.19-3.22,1.25-3.59,2.77m-9.24-5.64c-1.6,1.95-1.85,2.25-2.46,3.24-.35.59-.83,1.37-1.15,1.97,0,.01-.01.03-.02.05q.1-.08,3.38-4.82c.2-.29.26-.37.31-.47-.01,0-.03.02-.05.03m1.21.47c-.35.35-.73.79-1.01,1.18-1.08,1.53-1.2,2.81-.24,2.63,1.3-.25,3.53-2.99,3.73-4.59,0-.34-.13-.5-.33-.52-.54-.07-1.59.75-2.15,1.31m5.1.5c-.98,1.69-.14,3.03,1.57,2.5,1.88-.58,3.38-2.94,2.77-4.36-.19-.3-.47-.46-.79-.5-1.12-.14-2.82,1.09-3.55,2.36m-3.89-3.26c-1.37,1.21-2.1,2.21-1.74,2.18.6-.05,3.69-2.83,4.59-3.82.19-.22.23-.29.23-.37,0,0-.02-.01-.04-.01-.3-.04-1.7.84-3.04,2.02m4.13-1.02c-.14.11-.32.26-.45.38-1.31,1.21-1.38,2.15-.56,2.15,1.38,0,4.04-2.35,4.42-3.63.03-.25-.08-.37-.29-.39-.65-.08-2.2.76-3.12,1.49m1.88-2.6c-1.45.76-2.26,1.52-1.91,1.6.72.17,5.3-2.62,5.34-2.65.18-.13.21-.15.24-.21-.01-.01-.04-.02-.07-.03-.41-.05-2.19.55-3.6,1.29"></path></clipPath><radialGradient id="New_Gradient_Swatch_1" data-name="New Gradient Swatch 1" cx="220.92" cy="355.75" fx="220.92" fy="355.75" r=".41" gradientTransform="translate(-20982.01 -13218.99) rotate(90) scale(59.96 -59.96)" gradientUnits="userSpaceOnUse"><stop offset="0" stop-color="#44c5e9"></stop><stop offset="1" stop-color="#2f266f"></stop></radialGradient></defs><g id="Layer_1-2" data-name="Layer 1"><g><g><g><g><path class="cls-4" d="m376.85,15.63v8.56c0,7.25,7.44,6.86,7.44,6.86h34.14v-6.76s-32.05,0-32.05,0c-2.14,0-2.19-2-2.19-2v-2.48h34.09v-4.18,1.33-4.18h-34.09v-2.48s.05-1.99,2.19-1.99h32.05V1.55h-34.14s-7.44-.39-7.44,6.86v8.56-1.33Z"></path><path class="cls-4" d="m427.9,31.05v-11.23h34.09v-4.18,1.33-4.18h-34.09v-2.48s.05-1.99,2.19-1.99h32.05V1.55h-34.14s-7.44-.39-7.44,6.86v8.56-1.33,15.43l7.34-.02Z"></path><path class="cls-4" d="m506.03,19.57l.02,4.94c0,6.84-7.84,6.53-7.84,6.53h-33.73v-6.9h32.84c1.7,0,1.54-1.19,1.54-1.19v-1.96c0-1.42-1.56-1.3-1.56-1.3h-25.38s-8.52.55-8.52-6.38v-4.48c0-7.57,7.41-7.29,7.41-7.29h34.2v6.76s-32.75,0-32.75,0c-1.83,0-1.55,1.57-1.55,1.57v1.5s-.28,1.46,1.67,1.46h26.34s7.25-.25,7.32,6.74"></path></g><g class="cls-3"><rect class="cls-7" x="324.49" y="2.97" width="50.25" height="49.54" transform="translate(279.45 371.37) rotate(-83)"></rect></g></g><g><path class="cls-4" d="m396.75,38.65v3.25h-15.45c-.54,0-.8.17-.8.51v1.08c0,.34.27.51.8.51h11.69c2.8,0,4.2,1.11,4.2,3.34v1.91c0,2.26-1.41,3.39-4.22,3.39h-15.45v-3.25h15.45c.52,0,.79-.16.79-.49v-1.14c0-.34-.26-.51-.79-.51h-11.69c-2.81,0-4.22-1-4.22-2.99v-2.2c0-2.27,1.41-3.41,4.23-3.41h15.45Z"></path><path class="cls-4" d="m408.94,52.65c-3.51,0-5.27-1.48-5.27-4.44v-5.09c0-2.97,1.75-4.46,5.27-4.46h10.81c3.51,0,5.27,1.49,5.27,4.46v5.09c0,2.96-1.76,4.44-5.27,4.44h-10.81Zm0-10.74c-1.22,0-1.84.4-1.84,1.21v5.09c0,.79.61,1.19,1.84,1.19h10.81c1.22,0,1.84-.4,1.84-1.19v-5.09c0-.8-.61-1.21-1.84-1.21h-10.81Z"></path><path class="cls-4" d="m435.77,52.65c-2.81,0-4.22-1.13-4.22-3.39v-10.6h3.43v10.08c0,.44.26.66.79.66h15.25v3.25h-15.25Z"></path><path class="cls-4" d="m473.19,49.9h-11.35l-1.54,2.75h-3.95l7.33-12.81c.1-.2.21-.37.32-.52.11-.15.24-.27.39-.37.15-.1.33-.17.54-.23s.47-.08.79-.08h3.53c.97,0,1.68.39,2.13,1.17l7.31,12.82h-3.94l-1.57-2.75Zm-9.69-3.08h8.01l-2.43-4.27c-.13-.23-.27-.4-.43-.5-.16-.1-.32-.15-.48-.15h-1.35c-.37,0-.68.22-.93.66l-2.4,4.25Z"></path><path class="cls-4" d="m484.37,38.65h16.85c2.69,0,4.04,1.14,4.04,3.41v1.26c0,2.37-1.35,3.55-4.04,3.55h-1.17l5.79,5.77h-4.72l-5.43-5.6h-7.88v5.6h-3.43v-13.99Zm3.43,3.25v2.24h13.52c.45,0,.68-.19.68-.56v-1.13c0-.36-.26-.55-.79-.55h-13.42Z"></path></g></g><g><polygon class="cls-5" points="0 40.52 19.02 0 41.66 0 37.86 8.1 25.14 8.11 21.65 15.56 33.67 15.56 29.87 23.67 17.84 23.67 13.73 32.42 26.5 32.42 22.7 40.52 0 40.52"></polygon><path class="cls-5" d="m96.59,13.42c2.5-3.24,5.16-3.64,8.05-3.62l-4.15,8.72c-.87-.02-1.02,0-1.9,0-1.8,0-4.25,1.44-5.58,3.92l-8.51,18.07h-8.69l14.2-30.25h8.1l-1.52,3.16Z"></path><path class="cls-5" d="m133,6.9l2.49-5.3h8.71s-2.5,5.31-2.5,5.31h-8.7Zm-15.78,33.62l14.2-30.25h8.7s-14.2,30.25-14.2,30.25h-8.7Z"></path><polygon class="cls-5" points="142.65 10.26 162.51 10.25 159.35 16.98 142.36 33.71 152.35 33.71 149.13 40.56 128.5 40.56 131.81 33.51 148.62 17.02 139.47 17.03 142.65 10.26"></polygon><path class="cls-5" d="m73.54,21.32l1.24-2.66c.68-1.34,1.17-3.62-.95-3.65-2.45-.03-3.7,2.41-4.48,4.12l-1.02,2.19h5.21Zm-7.79,5.48l-2.49,5.3c-.79,1.67-.74,3.32,1.15,3.32,2.74,0,3.4-2.02,5.15-5.38h8.54c-4.53,9.18-7.93,11.45-16.58,11.52-7.25.05-9.32-3.59-5.92-11.48l4.74-10.04c3.66-7.78,9.04-10.22,15.79-10.24,6.49-.01,8.59,5.16,6.11,10.57l-2.9,6.44h-13.6Z"></path><path class="cls-5" d="m173.28,21.32l1.24-2.66c.68-1.34,1.17-3.62-.95-3.65-2.45-.03-3.7,2.41-4.48,4.12l-1.02,2.19h5.21Zm-7.79,5.48l-2.49,5.3c-.79,1.67-.73,3.32,1.15,3.32,2.74,0,3.4-2.02,5.15-5.38h8.54c-4.53,9.18-7.92,11.45-16.58,11.52-7.25.05-9.32-3.59-5.92-11.48l4.74-10.04c3.66-7.78,9.05-10.22,15.8-10.24,6.49-.01,8.59,5.16,6.11,10.57l-2.89,6.44h-13.6Z"></path><path class="cls-5" d="m106.3,28.27c-1.18,2.71-2.41,5.06.22,4.98,1.6-.05,2.92-1.73,4.45-4.83l3.42-7.34c1.51-3.34,1.59-4.79-.2-4.78-1.72.02-3.07,1.7-4.63,4.84l-3.26,7.13Zm-6.36,11.38c-4.01-.05-5.69-3.51-1.69-12.45l3.93-8.34c4.24-7.98,8.85-9.16,12.44-9.14,2.26,0,4.2.69,4.25,3.71l1.46-3.16h8.09s-14.48,30.85-14.48,30.85c-3.32,7.08-6.04,10.58-15.6,10.65-6.56.04-9.54-3.97-6.9-9.58h8.05c-.96,2.8-.76,3.6,1.19,3.64,2.2.04,3.4-1.31,4.36-3.25l2.82-5.82c-2.48,1.93-5.3,3.18-7.93,2.9"></path><path class="cls-5" d="m46.58,13.23c1.91-2.32,4.89-3.58,7.62-3.57,4.97.03,6.17,4.23,4.24,8.34l-10.41,22.51h-8.6s9.84-21.26,9.84-21.26c.54-1.4,1.22-3.42-.96-3.39-1.55.01-3.29,1.86-4.02,3.43l-9.97,21.23h-8.7l14.2-30.25h8.1l-1.34,2.97Z"></path><path class="cls-5" d="m195.9,13.43c2.5-3.24,4.4-3.23,8.05-3.62l-4.15,8.72c-.87-.03-1.02,0-1.89,0-1.82,0-4.26,1.44-5.59,3.92l-8.5,18.07h-8.69l14.2-30.25h8.1l-1.52,3.15Z"></path><path class="cls-5" d="m193.64,37.68c0,1.39-.93,2.32-2.04,2.32h0c-1.13,0-2.05-.93-2.05-2.32,0-1.39.91-2.31,2.05-2.31,1.11,0,2.04.92,2.04,2.3m.83,0c0-1.9-1.36-3.01-2.87-3.01-1.52,0-2.87,1.11-2.87,3.02,0,1.9,1.36,3.01,2.88,3,1.52,0,2.87-1.11,2.86-3.02m-3.35-.29v-.78h.46c.25,0,.59.03.59.36,0,.36-.17.42-.47.42h-.58Zm0,.55h.31l.71,1.36h.78s-.79-1.42-.79-1.42c.41-.03.74-.25.74-.85,0-.74-.47-.98-1.27-.98h-1.15v3.24s.66,0,.66,0v-1.36Z"></path><path class="cls-6" d="m117.32,59.69c-1.84,0-3.52-.15-5.04-.45-.49-.09-.62-.31-.38-.67l.9-1.41c.22-.31.55-.43,1.02-.35,1.38.3,2.72.45,4.02.45,1.02,0,1.79-.08,2.3-.25.51-.17.85-.46,1.03-.87.17-.4.15-.7-.07-.88-.22-.18-.73-.36-1.54-.51l-1.1-.18c-1.48-.26-2.47-.7-2.96-1.32-.49-.62-.5-1.45-.04-2.49.93-2.09,3.4-3.14,7.39-3.14,1.44,0,2.78.09,4.01.29.48.08.61.3.38.67l-.9,1.39c-.2.34-.54.45-1,.35-.99-.19-1.99-.29-3.01-.29-.96,0-1.68.08-2.16.23-.48.15-.8.4-.96.75-.17.38-.11.67.16.86.27.19.87.37,1.8.54l1.17.2c2.68.48,3.55,1.74,2.63,3.78-.99,2.22-3.54,3.33-7.66,3.33"></path><path class="cls-6" d="m132.16,57.19c.9,0,1.62-.17,2.17-.5.54-.34.99-.9,1.35-1.7l1.09-2.49c.76-1.61.16-2.42-1.81-2.42-.91,0-1.64.17-2.18.5-.54.33-.97.89-1.31,1.67l-1.11,2.5c-.72,1.62-.12,2.44,1.8,2.44m-.84,2.52c-2.25,0-3.79-.44-4.62-1.32-.84-.88-.89-2.14-.17-3.79l1.19-2.65c.66-1.48,1.65-2.57,2.97-3.28,1.32-.71,3.01-1.07,5.07-1.07,2.28,0,3.83.43,4.67,1.29.84.86.9,2.1.18,3.71l-1.2,2.72c-.66,1.49-1.66,2.59-2.99,3.31-1.33.72-3.03,1.08-5.11,1.08"></path><path class="cls-6" d="m143.67,56.97h6.66c.25,0,.42.05.53.16.1.11.12.25.03.43l-.66,1.48c-.14.32-.44.49-.91.49h-9.85c-.25,0-.42-.05-.53-.16-.1-.11-.11-.25-.03-.43l4.72-10.68c.16-.32.46-.49.91-.49h2.37c.25,0,.42.05.53.16.1.11.11.25.03.43l-3.81,8.62Z"></path><path class="cls-6" d="m160.45,52.82l-1.96,2.32h3.81l.08-2.32c.03-.94.13-1.72.29-2.33l.07-.25h-.37c-.33.6-.97,1.47-1.92,2.59m5.58-4.55v10.67c0,.39-.28.59-.82.59h-2.42c-.48,0-.71-.17-.69-.5l.08-1.6h-5.6l-1.4,1.7c-.24.27-.56.4-.96.4h-2.72c-.28,0-.46-.06-.55-.18-.09-.12-.04-.27.14-.46l9.47-10.73c.24-.26.55-.39.96-.39h3.81c.45,0,.68.17.69.5"></path><path class="cls-6" d="m177.9,52.1l.25-.59c.42-.94-.04-1.41-1.37-1.41h-2.34l-1.42,3.24h2.35c1.31,0,2.16-.41,2.54-1.24m-2.43-4.33h2.04c1.95,0,3.31.35,4.07,1.06.76.71.86,1.7.3,2.99l-.25.57c-.78,1.77-2.42,2.75-4.94,2.94l-.09.22c.76.07,1.24.41,1.45,1.04l.66,2.32c.06.19.01.34-.12.45-.14.11-.35.17-.62.17h-2.65c-.45,0-.7-.15-.75-.45l-.46-2.44c-.07-.35-.21-.59-.4-.73-.2-.14-.5-.21-.9-.21h-.86l-1.46,3.34c-.16.32-.46.49-.91.49h-2.32c-.25,0-.42-.05-.53-.16-.1-.11-.11-.25-.03-.43l4.72-10.68c.16-.32.46-.49.91-.49h3.14Z"></path></g><g><line class="cls-2" x1="250.69" y1="12.45" x2="280.43" y2="42.18"></line><line class="cls-2" x1="280.43" y1="12.45" x2="250.69" y2="42.18"></line></g></g></g></svg> 