<svg xmlns="http://www.w3.org/2000/svg" id="Layer_2" data-name="Layer 2" viewBox="0 0 90.29 90.29"><defs><style> .cls-1 { fill: none; } .cls-2 { fill: #fff; } .cls-3 { fill: #47c7ea; } </style></defs><g id="Layer_1-2" data-name="Layer 1"><g><rect class="cls-1" width="90.29" height="90.29"></rect><g><path class="cls-3" d="m84.17,81.73h-3.25v-29.27c0-.35-.11-.69-.33-.98l-14.63-19.51c-.25-.34-.77-.65-1.3-.65H25.63c-.51,0-.99.24-1.3.65l-14.63,19.51c-.12.16-.33.61-.33.98v29.27h-3.25c-.9,0-1.63.73-1.63,1.63s.73,1.63,1.63,1.63h78.04c.9,0,1.63-.73,1.63-1.63s-.73-1.63-1.63-1.63Zm-6.5-11.38h-6.5v-4.88h6.5v4.88Zm0-8.13h-8.13c-.9,0-1.63.73-1.63,1.63v8.13c0,.9.73,1.63,1.63,1.63h8.13v8.13h-16.26v-17.89c0-.9-.73-1.63-1.63-1.63h-8.13v-9.21l13.01-17.34,13.01,17.34v9.21Zm-43.9-11.38l4.88-6.5h5.69l-4.88,6.5h-5.69Zm-9.76,0l4.88-6.5h5.69l-4.88,6.5h-5.69Zm-9.76,0l4.88-6.5h5.69l-4.88,6.5h-5.69Zm27.64-16.26l-4.88,6.5h-5.69l4.88-6.5h5.69Zm9.76,0l-4.88,6.5h-5.69l4.88-6.5h5.69Zm9.76,0l-4.88,6.5h-5.69l4.88-6.5h5.69Zm-13.01,9.76h5.69l-4.88,6.5h-5.69l4.88-6.5Zm3.25,21.14h6.5v16.26h-6.5v-16.26Zm-25.2-30.89h5.69l-4.88,6.5h-5.69l4.88-6.5Zm-13.82,19.51h35.77v27.64H12.63v-27.64Z"></path><path class="cls-2" d="m11,18.32c0,3.59,2.92,6.5,6.5,6.5s6.5-2.92,6.5-6.5-2.92-6.5-6.5-6.5-6.5,2.92-6.5,6.5Zm6.5-3.25c1.79,0,3.25,1.46,3.25,3.25s-1.46,3.25-3.25,3.25-3.25-1.46-3.25-3.25,1.46-3.25,3.25-3.25Z"></path><path class="cls-2" d="m19.13,8.56v-1.63c0-.9-.73-1.63-1.63-1.63s-1.63.73-1.63,1.63v1.63c0,.9.73,1.63,1.63,1.63s1.63-.73,1.63-1.63Z"></path><path class="cls-2" d="m15.88,28.07v1.63c0,.9.73,1.63,1.63,1.63s1.63-.73,1.63-1.63v-1.63c0-.9-.73-1.63-1.63-1.63s-1.63.73-1.63,1.63Z"></path><path class="cls-2" d="m28.88,19.94c.9,0,1.63-.73,1.63-1.63s-.73-1.63-1.63-1.63h-1.63c-.9,0-1.63.73-1.63,1.63s.73,1.63,1.63,1.63h1.63Z"></path><path class="cls-2" d="m6.12,16.69c-.9,0-1.63.73-1.63,1.63s.73,1.63,1.63,1.63h1.63c.9,0,1.63-.73,1.63-1.63s-.73-1.63-1.63-1.63h-1.63Z"></path><path class="cls-2" d="m10.6,9.12c-.64-.63-1.67-.64-2.3,0-.63.64-.63,1.66,0,2.3l1.15,1.15c.64.64,1.67.63,2.3,0,.63-.64.63-1.66,0-2.3l-1.15-1.15Z"></path><path class="cls-2" d="m23.25,24.07c-.63.64-.63,1.66,0,2.3l1.15,1.15c.64.64,1.67.63,2.3,0,.63-.64.63-1.66,0-2.3l-1.15-1.15c-.64-.63-1.67-.64-2.3,0Z"></path><path class="cls-2" d="m24.4,9.12l-1.15,1.15c-.64.63-.64,1.66,0,2.3.63.63,1.66.64,2.3,0l1.15-1.15c.64-.63.64-1.66,0-2.3-.64-.64-1.67-.64-2.3,0Z"></path><path class="cls-2" d="m9.46,24.06l-1.15,1.15c-.64.63-.64,1.66,0,2.3.63.63,1.66.64,2.3,0l1.15-1.15c.64-.63.64-1.66,0-2.3-.64-.64-1.67-.64-2.3,0Z"></path><path class="cls-2" d="m34.49,67.27l-5.05-2.52,2.52-5.05c.4-.8.08-1.78-.73-2.18-.8-.4-1.78-.08-2.18.73l-3.25,6.5c-.4.8-.08,1.78.73,2.18l5.05,2.52-2.52,5.05c-.4.8-.08,1.78.73,2.18.79.4,1.78.08,2.18-.73l3.25-6.5c.4-.8.08-1.78-.73-2.18Z"></path></g></g></g></svg>