<svg xmlns="http://www.w3.org/2000/svg" id="Layer_2" data-name="Layer 2" viewBox="0 0 90.29 90.29"><defs><style> .cls-1 { fill: none; } .cls-2 { fill: #fff; } .cls-3 { fill: #47c7ea; } </style></defs><g id="Layer_1-2" data-name="Layer 1"><g><rect class="cls-1" width="90.29" height="90.29"></rect><g><path class="cls-3" d="m76.51,9.5H13.78c-2.36,0-4.28,1.92-4.28,4.28v54.17c0,2.36,1.92,4.28,4.28,4.28h18.2l16.81,8.4c.95.47,2.06-.22,2.06-1.28v-7.13h25.66c2.36,0,4.28-1.92,4.28-4.28V13.78c0-2.36-1.92-4.28-4.28-4.28Zm1.43,58.45c0,.79-.64,1.43-1.43,1.43h-27.09c-.79,0-1.43.64-1.43,1.43v6.25l-15.04-7.52c-.2-.1-.42-.15-.64-.15H13.78c-.79,0-1.43-.64-1.43-1.43V13.78c0-.79.64-1.43,1.43-1.43h62.73c.79,0,1.43.64,1.43,1.43v54.17Z"></path><path class="cls-3" d="m71.81,20.49c.56-.56.56-1.46,0-2.02-.56-.56-1.46-.56-2.02,0l-9.68,9.68-4.4-4.4,3.27-3.27c.56-.56.56-1.46,0-2.02-.56-.56-1.46-.56-2.02,0l-3.27,3.27-3.27-3.27c-.56-.56-1.46-.56-2.02,0-.56.56-.56,1.46,0,2.02l9.68,9.68-8.68,8.68-4.69-4.69c-.56-.56-1.46-.56-2.02,0-.56.56-.56,1.46,0,2.02l4.69,4.69-12.95,12.95-3.27-3.27c-.56-.56-1.46-.56-2.02,0-.56.56-.56,1.46,0,2.02l3.27,3.27-5.41,5.41c-.56.56-.56,1.46,0,2.02.56.56,1.46.56,2.02,0l16.1-16.1,6.54,6.54-7.55,7.55c-.56.56-.56,1.46,0,2.02.56.56,1.46.56,2.02,0l7.55-7.55,7.55,7.55c.56.56,1.46.56,2.02,0,.56-.56.56-1.46,0-2.02l-3.27-3.27,6.54-6.54,3.27,3.27c.56.56,1.46.56,2.02,0,.56-.56.56-1.46,0-2.02l-7.55-7.55,7.55-7.55c.56-.56.56-1.46,0-2.02-.56-.56-1.46-.56-2.02,0l-7.55,7.55-6.54-6.54,16.1-16.1Zm-7.3,28.93l-6.54,6.54-10.81-10.81,6.54-6.54,10.81,10.81Z"></path><path class="cls-2" d="m29.04,45.17l8.06-8.06c2.42-2.42,3.76-5.65,3.76-9.07,0-7.09-5.74-12.83-12.83-12.83s-12.83,5.74-12.83,12.83c0,3.43,1.33,6.65,3.76,9.07l8.06,8.06c.56.56,1.46.56,2.02,0Zm-10.99-17.14c0-5.52,4.46-9.98,9.98-9.98s9.98,4.46,9.98,9.98c0,2.67-1.04,5.17-2.92,7.06l-7.06,7.06-7.06-7.06c-1.89-1.89-2.92-4.39-2.92-7.06Z"></path><path class="cls-2" d="m33.74,28.04c0-3.14-2.56-5.7-5.7-5.7s-5.7,2.56-5.7,5.7,2.56,5.7,5.7,5.7,5.7-2.56,5.7-5.7Zm-8.55,0c0-1.57,1.28-2.85,2.85-2.85s2.85,1.28,2.85,2.85-1.28,2.85-2.85,2.85-2.85-1.28-2.85-2.85Z"></path></g></g></g></svg>