<svg xmlns="http://www.w3.org/2000/svg" id="b" viewBox="0 0 173.35 85.5"><defs><style>.d{fill:none;}.e{fill:#c32027;}</style></defs><g id="c"><path d="M89.25,47.54h2.82v6.27h-2.82v-6.27ZM144.71,47.55h2.82v6.27h-2.82v-6.27ZM127.11,49.48v-1.58c-.76-.39-1.88-.65-3.39-.65-3.01,0-3.41,1.29-3.41,1.95,0,1.11.68,1.62,1.81,2.02,1.33.47,2.44.31,2.44.87,0,.16-.21.33-.78.33-1.17,0-2.41-.45-3.22-.94v1.74c1.03.5,2.31.81,3.35.81,2.32,0,3.58-.93,3.58-2.16s-.96-1.71-2.53-2.09c-1.01-.24-1.67-.24-1.67-.63,0-.21.28-.38.83-.38.96,0,2.05.29,2.98.7M162.07,49.48v-1.58c-.76-.39-1.88-.65-3.39-.65-3.01,0-3.41,1.29-3.41,1.95,0,1.11.68,1.62,1.81,2.02,1.33.47,2.44.31,2.44.87,0,.16-.22.33-.78.33-1.17,0-2.41-.45-3.22-.94v1.74c1.04.5,2.31.81,3.35.81,2.32,0,3.57-.93,3.57-2.16s-.95-1.71-2.53-2.09c-1.01-.24-1.67-.24-1.67-.63,0-.21.28-.38.83-.38.96,0,2.05.29,2.98.7M115.45,54c2.75,0,3.79-1.08,3.79-2.69v-3.76h-2.72v3.92c0,.49-.56.9-1.07.9s-1.07-.41-1.07-.9v-3.92h-2.72v3.76c0,1.62,1.04,2.69,3.79,2.69M154.23,53.81v-1.34h-2.79v-1.33h2.39v-1.29h-2.39v-.98h2.79v-1.33h-5.48v6.27h5.48ZM128.23,48.94h1.82v4.87h2.86v-4.87h1.83v-1.39h-6.51v1.39ZM101.6,53.81v-6.27h-2.87v2.9l-2.3-2.9h-3.15v6.27h2.87v-3.05l2.36,3.05h3.09ZM81.26,49.92l-1.33-2.37h-2.62l2.53,4.06v2.21h2.86v-2.26l2.5-4.01h-2.62l-1.33,2.37ZM74.81,53.81l2.29-6.27h-2.65l-1.35,3.96-1.34-3.96h-2.65l2.29,6.27h3.41ZM64.43,47.55l-2.29,6.27h2.68l.21-.74h2.08l.21.74h2.68l-2.3-6.27h-3.27ZM65.37,51.86l.69-2.42.69,2.42h-1.39ZM61.68,53.81v-1.34h-2.79v-1.33h2.39v-1.29h-2.39v-.98h2.79v-1.33h-5.47v6.26h5.47ZM106.65,53.81c2.78,0,4.13-1.31,4.13-3.14,0-2.06-1.7-3.13-3.99-3.13h-3.98v6.27h3.84ZM106.32,52.05h-.65v-2.98h.55c.96,0,1.49.6,1.49,1.56,0,.74-.63,1.42-1.39,1.42M135.84,47.55v6.27h3.03v-2.02l1.88,2.03h3.36l-2.5-2.46c1.09-.04,1.96-.77,1.96-1.85,0-1.27-.98-1.95-2.15-1.95h-5.58,0ZM139.84,50.33h-.97v-1.58h1.02c.37,0,.77.28.77.82,0,.48-.38.76-.83.76M52.15,47.55v2.19h-2.01v-2.19h-2.85v6.27h2.85v-2.25h2.01v2.25h2.85v-6.27h-2.85ZM64.57,35.44h4.91v10.27h-4.91v-10.27ZM56.99,35.44l-1.78,3.6-1.78-3.6h-4.73l-1.42,10.27h4.59l.41-4.29,2.93,4.29,2.92-4.29.41,4.29h4.59l-1.42-10.27h-4.73ZM81.33,35.44h-10.42v2.8h2.85v7.46h4.72v-7.46h2.85v-2.8ZM93.78,39.53v-2.96c-1.7-.82-3.72-1.34-5.64-1.34-3.61,0-5.58,1.22-5.58,3.24,0,1.74,1.09,2.41,2.94,3.11,2.14.81,3.5.4,3.5,1.06,0,.26-.08.45-.91.45-1.93,0-3.79-.77-5.12-1.53v3.06c1.71.78,3.82,1.28,5.54,1.28,2.32,0,5.6-.54,5.6-3.28,0-1.91-1.64-2.9-3.87-3.41-1.67-.38-2.79-.26-2.79-.87,0-.31.43-.43,1.17-.43,1.58,0,3.81.75,5.16,1.62M123.42,35.44h4.91v10.27h-4.91v-10.27ZM157.55,35.44h4.91v10.27h-4.91v-10.27ZM141.21,39.53v-2.96c-1.7-.82-3.72-1.34-5.64-1.34-3.61,0-5.58,1.22-5.58,3.24,0,1.74,1.09,2.41,2.94,3.11,2.14.81,3.5.4,3.5,1.06,0,.26-.08.45-.91.45-1.93,0-3.78-.77-5.12-1.53v3.06c1.71.78,3.82,1.28,5.54,1.28,2.32,0,5.6-.54,5.6-3.28,0-1.91-1.64-2.9-3.87-3.41-1.67-.38-2.79-.26-2.79-.87,0-.31.43-.43,1.17-.43,1.58,0,3.81.75,5.16,1.62M101.96,45.89c3.19,0,6.35-1.29,6.35-4.26v-6.19h-4.79v6.3c0,.84-.67,1.53-1.56,1.53s-1.56-.7-1.56-1.53v-6.3h-4.79v6.19c0,2.97,3.16,4.26,6.35,4.26M118.1,45.71c2.84,0,3.79-1.32,3.79-2.73s-.77-2.21-1.86-2.63c.82-.4,1.28-1.22,1.28-2.12,0-1.66-1.49-2.78-3.08-2.78h-8.21v10.27h8.09ZM116.18,37.62c.55,0,.85.39.85.82,0,.48-.39.77-.83.77h-1.21v-1.58h1.2ZM116.19,43.13h-1.21v-1.56h1.26c.4,0,.82.29.82.78,0,.43-.35.78-.86.78M150.86,35.44v3.62h-2.79v-3.62h-4.88v10.27h4.88v-3.66h2.79v3.66h4.88v-10.27h-4.88Z"></path><path class="e" d="M26.8,44.63l5.3-9.18-5.3-9.19-5.3,9.18,5.3,9.19ZM26.8,44.63l5.3,9.18h10.61l-5.3-9.18h-10.6ZM26.8,44.63h-10.61l-5.3,9.18h10.61l5.3-9.18Z"></path><rect class="d" width="173.35" height="85.5"></rect></g></svg>