<?xml version="1.0" encoding="UTF-8"?> <svg xmlns="http://www.w3.org/2000/svg" viewBox="0 0 99.98 99.98"><defs><style>.cls-1{fill:#2f266f;}.cls-2{fill:none;}</style></defs><g id="Layer_2" data-name="Layer 2"><g id="Layer_1-2" data-name="Layer 1"><path class="cls-1" d="M63,37.12H60.23V34.94H40.17v2.18H37.35a1.14,1.14,0,0,0,0,2.28H63a1.14,1.14,0,1,0,0-2.28"></path><path class="cls-1" d="M68.54,5.5H31.85a1.1,1.1,0,0,0-1.1,1.1V31.27a1.09,1.09,0,0,0,1.1,1.09H68.54a1.1,1.1,0,0,0,1.11-1.09V6.6a1.11,1.11,0,0,0-1.11-1.1M51.32,29a1.14,1.14,0,1,1-2.27-.29,1.17,1.17,0,0,1,1-1A1.15,1.15,0,0,1,51.32,29M50.2,24.26a1.14,1.14,0,1,1,1.13-1.14,1.14,1.14,0,0,1-1.13,1.14M54.09,21a1.15,1.15,0,0,1-.81.33,1.13,1.13,0,0,1-.8-.33,3.24,3.24,0,0,0-4.57,0,1.13,1.13,0,0,1-1.61,0,1.15,1.15,0,0,1,0-1.61,5.51,5.51,0,0,1,7.79,0,1.15,1.15,0,0,1,0,1.61M57,18a1.15,1.15,0,0,1-1.61,0A7.38,7.38,0,0,0,45,18a1.14,1.14,0,0,1-1.61-1.61,9.65,9.65,0,0,1,13.65,0A1.13,1.13,0,0,1,57,18"></path><path class="cls-1" d="M27.51,70.89l-2.4-3.58H23.17v3.58H20.71V59.69h5.12c2.64,0,4.23,1.39,4.23,3.7v0a3.48,3.48,0,0,1-2.4,3.47l2.73,4Zm0-7.38c0-1-.74-1.6-1.94-1.6H23.17v3.22h2.5c1.2,0,1.89-.64,1.89-1.58Z"></path><path class="cls-1" d="M39.59,67.45h-6a2,2,0,0,0,2.1,1.68,2.79,2.79,0,0,0,2.08-.88l1.39,1.23a4.53,4.53,0,0,1-8-2.83v0a4.28,4.28,0,0,1,4.25-4.47c2.86,0,4.17,2.23,4.17,4.66v0A5.93,5.93,0,0,1,39.59,67.45Zm-4.14-3.34a1.91,1.91,0,0,0-1.86,1.82h3.66A1.83,1.83,0,0,0,35.45,64.11Z"></path><path class="cls-1" d="M51.69,70.89V66.11c0-1.16-.51-1.75-1.43-1.75s-1.47.59-1.47,1.75v4.78H46.36V66.11c0-1.16-.51-1.75-1.43-1.75s-1.47.59-1.47,1.75v4.78H41V62.31h2.43v1.22A3.07,3.07,0,0,1,46,62.15a2.58,2.58,0,0,1,2.42,1.36,3.53,3.53,0,0,1,2.81-1.36c1.81,0,2.9,1.09,2.9,3.16v5.58Z"></path><path class="cls-1" d="M60,71.09a4.46,4.46,0,0,1-4.63-4.44v0a4.65,4.65,0,0,1,9.29,0v0A4.51,4.51,0,0,1,60,71.09Zm2.25-4.47A2.28,2.28,0,0,0,60,64.25a2.2,2.2,0,0,0-2.23,2.34v0A2.29,2.29,0,0,0,60.07,69a2.2,2.2,0,0,0,2.22-2.34Z"></path><path class="cls-1" d="M69,71c-1.49,0-2.5-.6-2.5-2.58V64.39h-1V62.31h1V60.12h2.44v2.19h2v2.08h-2v3.67c0,.56.24.83.78.83a2.48,2.48,0,0,0,1.2-.3v2A3.52,3.52,0,0,1,69,71Z"></path><path class="cls-1" d="M80.26,67.45h-6a2,2,0,0,0,2.1,1.68,2.78,2.78,0,0,0,2.08-.88l1.39,1.23a4.52,4.52,0,0,1-8-2.83v0a4.27,4.27,0,0,1,4.24-4.47c2.86,0,4.18,2.23,4.18,4.66v0A5.86,5.86,0,0,1,80.26,67.45Zm-4.14-3.34a1.91,1.91,0,0,0-1.86,1.82h3.67A1.84,1.84,0,0,0,76.12,64.11Z"></path><path class="cls-1" d="M17.66,90.09V82.78L14.5,87.56h-.06l-3.12-4.73v7.26H8.9V78.89h2.66l2.94,4.74,2.95-4.74h2.66v11.2Z"></path><path class="cls-1" d="M26.34,90.29a4.46,4.46,0,0,1-4.62-4.44v0a4.51,4.51,0,0,1,4.66-4.47A4.46,4.46,0,0,1,31,85.79v0A4.51,4.51,0,0,1,26.34,90.29Zm2.26-4.47a2.28,2.28,0,0,0-2.26-2.37,2.2,2.2,0,0,0-2.22,2.34v0a2.28,2.28,0,0,0,2.26,2.37,2.2,2.2,0,0,0,2.22-2.34Z"></path><path class="cls-1" d="M37.78,90.09V85.31c0-1.16-.54-1.75-1.47-1.75s-1.52.59-1.52,1.75v4.78H32.36V81.51h2.43v1.22a3,3,0,0,1,2.51-1.38c1.84,0,2.92,1.22,2.92,3.19v5.55Z"></path><path class="cls-1" d="M42,80.57V78.41h2.56v2.16ZM42,90.09V81.51h2.43v8.58Z"></path><path class="cls-1" d="M49.25,90.24c-1.49,0-2.49-.59-2.49-2.58V83.59h-1V81.51h1V79.32h2.43v2.19h2v2.08h-2v3.67c0,.56.24.83.78.83a2.48,2.48,0,0,0,1.2-.3v1.95A3.52,3.52,0,0,1,49.25,90.24Z"></path><path class="cls-1" d="M56.81,90.29a4.46,4.46,0,0,1-4.63-4.44v0a4.51,4.51,0,0,1,4.66-4.47,4.45,4.45,0,0,1,4.62,4.44v0A4.5,4.5,0,0,1,56.81,90.29Zm2.25-4.47a2.28,2.28,0,0,0-2.25-2.37,2.2,2.2,0,0,0-2.23,2.34v0a2.28,2.28,0,0,0,2.26,2.37,2.2,2.2,0,0,0,2.22-2.34Z"></path><path class="cls-1" d="M67.86,83.9c-1.61,0-2.61,1-2.61,3v3.17H62.82V81.51h2.43v1.73A2.67,2.67,0,0,1,68,81.35V83.9Z"></path><path class="cls-1" d="M69.16,80.57V78.41h2.56v2.16Zm.06,9.52V81.51h2.43v8.58Z"></path><path class="cls-1" d="M79,90.09V85.31c0-1.16-.55-1.75-1.48-1.75S76,84.15,76,85.31v4.78H73.54V81.51H76v1.22a3,3,0,0,1,2.52-1.38c1.84,0,2.91,1.22,2.91,3.19v5.55Z"></path><path class="cls-1" d="M87,92.69a8.06,8.06,0,0,1-3.79-.9L84,90a5.66,5.66,0,0,0,2.9.78c1.66,0,2.45-.8,2.45-2.34V88a3.39,3.39,0,0,1-2.81,1.39,3.77,3.77,0,0,1-3.81-4v0a3.78,3.78,0,0,1,3.81-4,3.46,3.46,0,0,1,2.77,1.28V81.51h2.44v6.65C91.74,91.39,90.13,92.69,87,92.69Zm2.39-7.33a2,2,0,0,0-2.1-2,2,2,0,0,0-2.08,2v0a2,2,0,0,0,2.08,2,2,2,0,0,0,2.1-2Z"></path><rect class="cls-2" width="99.98" height="99.98"></rect></g></g></svg> 