<svg xmlns="http://www.w3.org/2000/svg" id="Layer_2" data-name="Layer 2" viewBox="0 0 90.29 90.29"><defs><style> .cls-1 { fill: none; } .cls-2 { fill: #fff; } .cls-3 { fill: #47c7ea; } </style></defs><g id="Layer_1-2" data-name="Layer 1"><g><rect class="cls-1" width="90.29" height="90.29"></rect><g><path class="cls-3" d="m12.74,80.2c0,.76.61,1.37,1.37,1.37h62.87c.76,0,1.37-.61,1.37-1.37,0-.76-.61-1.37-1.37-1.37h-1.37V31c0-.76-.61-1.37-1.37-1.37h-.3s-3.84-15.36-3.84-15.36c-.15-.61-.7-1.04-1.33-1.04h-21.87c-.63,0-1.17.43-1.33,1.04l-3.84,15.36h-.3c-.76,0-1.37.61-1.37,1.37v6.83h-23.23c-.76,0-1.37.61-1.37,1.37v39.63h-1.37c-.76,0-1.37.61-1.37,1.37Zm27.33-39.63v38.27h-21.87v-38.27h21.87Zm21.29-16.4l.46,5.47h-7.96s.46-5.47.46-5.47h7.05Zm-6.83-2.73l.46-5.47h5.69s.46,5.47.46,5.47h-6.6Zm-9.98,8.2l1.37-5.47h5.65s-.46,5.47-.46,5.47h-6.56Zm3.42-13.67h4.28s-.46,5.47-.46,5.47h-5.19s1.37-5.47,1.37-5.47Zm21.1,5.47h-5.19s-.46-5.47-.46-5.47h4.28s1.37,5.47,1.37,5.47Zm2.05,8.2h-6.56s-.46-5.47-.46-5.47h5.65s1.37,5.47,1.37,5.47Zm1.75,49.2h-30.07v-46.47h30.07v46.47Z"></path><path class="cls-3" d="m45.54,39.2v32.8c0,.76.61,1.37,1.37,1.37h21.87c.76,0,1.37-.61,1.37-1.37v-32.8c0-.76-.61-1.37-1.37-1.37h-21.87c-.76,0-1.37.61-1.37,1.37Zm13.67,9.57h8.2v5.47h-8.2v-5.47Zm-2.73,5.47h-8.2v-5.47h8.2v5.47Zm10.93,8.2h-8.2v-5.47h8.2v5.47Zm-10.93,0h-8.2v-5.47h8.2v5.47Zm-8.2-21.87h8.2v5.47h-8.2v-5.47Zm19.13,0v5.47h-8.2v-5.47h8.2Zm0,30.07h-8.2v-5.47h8.2v5.47Zm-19.13,0v-5.47h8.2v5.47h-8.2Z"></path><path class="cls-3" d="m34.61,72v-24.6c0-.76-.61-1.37-1.37-1.37h-8.2c-.76,0-1.37.61-1.37,1.37v24.6c0,.76.61,1.37,1.37,1.37h8.2c.76,0,1.37-.61,1.37-1.37Zm-8.2-10.93h5.47v4.1h-5.47v-4.1Zm0-6.83h5.47v4.1h-5.47v-4.1Zm0,16.4v-2.73h5.47v2.73h-5.47Zm5.47-21.87v2.73h-5.47v-2.73h5.47Z"></path></g><g><path class="cls-2" d="m16.57,19.94c0,3.59,2.92,6.5,6.5,6.5s6.5-2.92,6.5-6.5-2.92-6.5-6.5-6.5-6.5,2.92-6.5,6.5Zm6.5-3.25c1.79,0,3.25,1.46,3.25,3.25s-1.46,3.25-3.25,3.25-3.25-1.46-3.25-3.25,1.46-3.25,3.25-3.25Z"></path><path class="cls-2" d="m24.7,10.19v-1.63c0-.9-.73-1.63-1.63-1.63s-1.63.73-1.63,1.63v1.63c0,.9.73,1.63,1.63,1.63s1.63-.73,1.63-1.63Z"></path><path class="cls-2" d="m21.45,29.7v1.63c0,.9.73,1.63,1.63,1.63s1.63-.73,1.63-1.63v-1.63c0-.9-.73-1.63-1.63-1.63s-1.63.73-1.63,1.63Z"></path><path class="cls-2" d="m34.45,21.57c.9,0,1.63-.73,1.63-1.63s-.73-1.63-1.63-1.63h-1.63c-.9,0-1.63.73-1.63,1.63s.73,1.63,1.63,1.63h1.63Z"></path><path class="cls-2" d="m11.69,18.32c-.9,0-1.63.73-1.63,1.63s.73,1.63,1.63,1.63h1.63c.9,0,1.63-.73,1.63-1.63s-.73-1.63-1.63-1.63h-1.63Z"></path><path class="cls-2" d="m16.17,10.74c-.64-.63-1.67-.64-2.3,0-.63.64-.63,1.66,0,2.3l1.15,1.15c.64.64,1.67.63,2.3,0,.63-.64.63-1.66,0-2.3l-1.15-1.15Z"></path><path class="cls-2" d="m28.82,25.69c-.63.64-.63,1.66,0,2.3l1.15,1.15c.64.64,1.67.63,2.3,0,.63-.64.63-1.66,0-2.3l-1.15-1.15c-.64-.63-1.67-.64-2.3,0Z"></path><path class="cls-2" d="m29.97,10.74l-1.15,1.15c-.64.63-.64,1.66,0,2.3.63.63,1.66.64,2.3,0l1.15-1.15c.64-.63.64-1.66,0-2.3-.64-.64-1.67-.64-2.3,0Z"></path><path class="cls-2" d="m15.03,25.69l-1.15,1.15c-.64.63-.64,1.66,0,2.3.63.63,1.66.64,2.3,0l1.15-1.15c.64-.63.64-1.66,0-2.3-.64-.64-1.67-.64-2.3,0Z"></path></g></g></g></svg>