<svg xmlns="http://www.w3.org/2000/svg" id="b" viewBox="0 0 173.35 85.5"><defs><style>.d{fill:none;}.e{fill:#ce1c24;}</style></defs><g id="c"><path class="e" d="M77.36,20.23c-.78-.69-2.05-1.11-3.3-1.11-2.99,0-5.43,2.35-5.44,5.4,0,2.99,2.45,5.36,5.44,5.37,1.68,0,3.14-.67,4.13-1.87v-2.97c-.53.92-1.6,2.1-2.57,2.51-.49.2-.99.33-1.57.33-1.87,0-3.41-1.45-3.41-3.36,0-1.76,1.42-3.39,3.41-3.39.93,0,1.77.39,2.39.99.64.62,1.64,1.92,2.12,2.44,1.22,1.31,2.97,2.13,4.89,2.13,3.69.01,6.69-2.98,6.69-6.66s-3-6.76-6.69-6.76c-2.15,0-4.03,1.12-5.26,2.69v4.01c.94-2.55,2.62-4.58,5.26-4.58s4.6,2.1,4.59,4.64c0,2.54-2.05,4.59-4.59,4.59-1.13,0-2.18-.41-2.98-1.09-.99-.78-2.09-2.42-3.12-3.28"></path><path class="e" d="M33.47,31.38h14.79v4.12s-.76-1.62-2.36-1.63h-6.84v7.11h7.42v3.77s-.24-1.2-2.03-1.2h-5.39v9.71c0,1.43,1.55,2.28,1.55,2.28h-7.04s1.48-.74,1.48-2.28v-19.34c0-1.62-1.57-2.53-1.57-2.53"></path><path class="e" d="M70.64,31.39h7.52s-1.69.8-1.69,2.1v22.65c0,7.66-7.68,8.91-8.08,8.89.65-.42,3.84-3.14,3.86-8.89v-22.65c0-1.23-1.61-2.1-1.61-2.1"></path><path class="e" d="M79.22,31.39h7.54s-1.68.8-1.68,2.14v19.73c0,1.41,1.68,2.29,1.68,2.29h-7.54s1.67-.87,1.67-2.29v-19.73c0-1.33-1.67-2.14-1.67-2.14"></path><path class="e" d="M88.28,31.38h16.6l-1.41,4.39s-.42-1.84-2.02-1.84h-3.45v19.32c0,1.22,1.62,2.28,1.62,2.28h-7.39s1.6-.95,1.6-2.28v-19.32h-4.16c-1.18,0-2.87,2.21-2.87,2.21l1.48-4.75"></path><path class="e" d="M132.61,31.39h7.27s-1.55.83-1.55,2.13v14.62c-.01,5.94-4.94,7.77-8.35,7.77s-8.71-1.85-8.7-7.77v-14.62c0-1.31-1.6-2.13-1.6-2.13h7.48s-1.67.8-1.67,2.13v14.62c0,3.12,2.07,5.16,4.49,5.16s4.27-2.12,4.27-5.16v-14.62c0-1.31-1.64-2.13-1.64-2.13"></path><path class="e" d="M61.92,31.39h7.41s-1.57.86-1.57,2.16c0,0,0,14.59,0,14.59,0,5.97-5.16,7.85-8.61,7.85s-8.7-1.9-8.7-7.85v-14.59c0-1.31-1.52-2.16-1.52-2.16h7.48s-1.73.85-1.73,2.16v14.59c0,3.09,2.05,5.22,4.47,5.23,2.42.01,4.37-2.17,4.37-5.23v-14.59c0-1.31-1.59-2.16-1.59-2.16"></path><path class="e" d="M117.45,35.25s-1.05-1.84-4.08-1.85c-3.04,0-4.68,1.59-4.69,3.65,0,2.34,1.75,3.22,4.48,4.53,2.59,1.24,6.48,2.96,6.47,7.28-.01,3.88-3.45,7.11-9.61,7.11-1.9,0-4.52-.62-4.52-.62l-1.41-4.64c1.3,1.27,3.61,2.63,6,2.63s5.41-1.52,5.41-3.97c0-4.72-10.99-3.93-10.99-11.83,0-2.72,1.89-6.65,8.45-6.65,2.13,0,4.5.62,4.5.62v3.73"></path><rect class="d" width="173.35" height="85.5"></rect></g></svg>