<svg xmlns="http://www.w3.org/2000/svg" id="b" viewBox="0 0 173.35 85.5"><defs><style>.d{fill:none;}.e{fill:#ce1c24;}.f{fill:#fff;}</style></defs><g id="c"><path class="e" d="M86.67,17.8c-34.97,0-63.34,7.89-63.34,17.62s28.37,17.57,63.34,17.57,63.35-7.89,63.35-17.57-28.37-17.62-63.35-17.62"></path><path class="f" d="M76.94,41.72h-9.62c-.98,0-1.79-.81-1.79-1.79,0-.28.03-.55.13-.75l2.9-6.23h0c.27-.68.67-1.18,1.21-1.56.57-.34,1.21-.51,2.02-.54h9.55c1.01,0,1.82.81,1.82,1.83,0,.27-.06.54-.2.78h.03l-2.86,6.2c-.61,1.26-1.82,2.03-3.2,2.07"></path><path class="e" d="M78.53,33.69h-6.12c-.17,0-.34.07-.44.14-.1.07-.2.17-.27.3l-1.92,4.17c-.07.17-.07.3,0,.41.07.1.2.13.37.17h6.16c.27,0,.51-.17.64-.45l1.95-4.16s.03-.11.03-.17c0-.2-.17-.41-.4-.41"></path><polyline class="f" points="104.92 26.75 108.62 26.75 107.31 29.59 103.57 29.59"></polyline><path class="f" d="M46.25,34.23l-3.5,7.49h-8.72l6.59-14.3c.61-1.29,1.89-2.1,3.27-2.1h14.84l-1.35,2.85h-12.45c-.54.03-1.08.34-1.32.88l-4.54,9.83h1.31l2.76-5.97c.61-1.25,1.85-2.06,3.26-2.1h9.76l-1.31,2.85h-7.74c-.37,0-.71.23-.88.58"></path><path class="f" d="M59.48,33.79c-.14.1-.27.24-.34.41l-3.47,7.52h-3.74l4.08-8.81h.03c.61-1.28,1.88-2.1,3.3-2.1h9.39l-1.35,2.85h-7.41c-.2,0-.37.06-.5.14"></path><path class="f" d="M92.19,41.72l3.47-7.42v-.17c0-.24-.17-.41-.4-.41h-6.6l-3.7,8h-3.7l5.01-10.84h11.79c1.01,0,1.85.81,1.85,1.8,0,.27-.06.54-.17.78l-3.84,8.27"></path><polyline class="f" points="97.98 41.72 103.03 30.81 106.74 30.81 101.69 41.72"></polyline><path class="f" d="M119.59,39.61c-.61,1.29-1.82,2.07-3.19,2.1h-9.73c-1.01,0-1.82-.81-1.82-1.83,0-.28.04-.51.14-.75l2.93-6.3.97-2.1h3.68l-3.4,7.52c-.06.16-.06.3,0,.41.03.06.17.16.34.16h6.22c.31,0,.54-.16.68-.44l3.5-7.65h3.74l-4.04,8.87"></path><path class="f" d="M138.77,33.62h-10.5c-.2,0-.33.04-.47.1-.14.07-.2.2-.27.34l-.37.78h8.21c1.01,0,1.82.81,1.82,1.83,0,.3-.04.51-.17.78l-.2.44-.81,1.69c-.57,1.28-1.82,2.14-3.23,2.14h-12.55l1.34-2.89h10.61c.27,0,.5-.16.64-.44l.37-.78h-8.22c-1.01,0-1.82-.81-1.82-1.82,0-.28.06-.55.2-.81h0s1.01-2.17,1.01-2.17c.27-.68.67-1.19,1.21-1.53.57-.33,1.24-.5,2.08-.54h12.46"></path><path class="e" d="M34.13,66.34c.44.24.91.36,1.26.36.64,0,.85-.33.85-.7,0-.41-.37-.63-.74-.81l-.37-.17c-.74-.35-1.09-.79-1.09-1.59,0-1.11.97-1.72,2.05-1.72.51,0,.99.07,1.35.2l-.05,1.11c-.34-.18-.77-.31-1.15-.31-.41,0-.77.2-.77.61,0,.35.24.53.62.7l.36.16c.73.33,1.22.75,1.22,1.72,0,1.08-.87,1.81-2.13,1.81-.5,0-1.02-.06-1.46-.24"></path><polyline class="e" points="40.07 67.6 40.07 61.78 41.46 61.78 41.46 64.07 42.77 64.07 42.77 61.78 44.17 61.78 44.17 67.6 42.77 67.6 42.77 65.16 41.46 65.16 41.46 67.6"></polyline><rect class="e" x="46.85" y="61.79" width="1.39" height="5.81"></rect><polyline class="e" points="50.91 67.6 50.91 61.78 54.15 61.78 54.15 62.84 52.29 62.84 52.29 64.15 54.06 64.15 54.06 65.18 52.29 65.18 52.29 67.6"></polyline><polyline class="e" points="56.89 67.6 56.89 62.87 55.65 62.87 55.65 61.78 59.5 61.78 59.5 62.87 58.27 62.87 58.27 67.6"></polyline><rect class="e" x="61.66" y="61.79" width="1.39" height="5.81"></rect><polyline class="e" points="65.72 67.6 65.72 61.78 67.5 61.78 68.94 66.02 68.94 61.78 70.11 61.78 70.11 67.6 68.33 67.6 66.9 63.37 66.9 67.6"></polyline><path class="e" d="M76.89,67.39c-.53.23-1.28.31-1.85.31-1.81,0-2.67-1.21-2.67-3s1.13-3,2.92-3c.65,0,1.06.11,1.44.24l-.05,1.12c-.37-.18-.69-.33-1.28-.33-1.06,0-1.59.89-1.59,1.97,0,.98.34,1.97,1.39,1.97.16,0,.3-.03.42-.09v-1.34h-.67v-.98h1.94"></path><polyline class="e" points="84.53 67.6 84.53 62.87 83.29 62.87 83.29 61.78 87.14 61.78 87.14 62.87 85.91 62.87 85.91 67.6"></polyline><polyline class="e" points="89.13 67.6 89.13 61.78 90.52 61.78 90.52 64.07 91.83 64.07 91.83 61.78 93.23 61.78 93.23 67.6 91.83 67.6 91.83 65.16 90.52 65.16 90.52 67.6"></polyline><polyline class="e" points="95.91 67.6 95.91 61.78 99.25 61.78 99.25 62.84 97.28 62.84 97.28 64.09 99.11 64.09 99.11 65.13 97.28 65.13 97.28 66.54 99.33 66.54 99.33 67.6"></polyline><polyline class="e" points="106.68 67.6 106.68 61.78 108.07 61.78 108.07 66.51 109.88 66.51 109.88 67.6"></polyline><rect class="e" x="111.89" y="61.79" width="1.39" height="5.81"></rect><polyline class="e" points="115.95 67.6 115.95 61.78 117.94 61.78 118.83 65.65 119.78 61.78 121.77 61.78 121.77 67.6 120.43 67.6 120.43 63 119.28 67.6 118.28 67.6 117.13 63 117.13 67.6"></polyline><rect class="e" x="124.47" y="61.79" width="1.38" height="5.81"></rect><polyline class="e" points="129.42 67.6 129.42 62.87 128.18 62.87 128.18 61.78 132.03 61.78 132.03 62.87 130.8 62.87 130.8 67.6"></polyline><path class="e" d="M133.8,66.34c.44.24.91.36,1.25.36.64,0,.85-.33.85-.7,0-.41-.38-.63-.74-.81l-.37-.17c-.74-.35-1.09-.79-1.09-1.59,0-1.11.97-1.72,2.05-1.72.51,0,.99.07,1.35.2l-.05,1.11c-.34-.18-.77-.31-1.15-.31-.41,0-.77.2-.77.61,0,.35.24.53.62.7l.36.16c.73.33,1.22.75,1.22,1.72,0,1.08-.87,1.81-2.13,1.81-.5,0-1.02-.06-1.46-.24"></path><rect class="d" width="173.35" height="85.5"></rect></g></svg>