<svg xmlns="http://www.w3.org/2000/svg" id="Layer_2" data-name="Layer 2" viewBox="0 0 90.29 90.29"><defs><style> .cls-1 { fill: none; } .cls-2 { fill: #fff; } .cls-3 { fill: #47c7ea; } </style></defs><g id="Layer_1-2" data-name="Layer 1"><g><g><path class="cls-3" d="m44.1,16.57l-3.82-1.64c-2.52-1.08-5.32.77-5.32,3.51v12.08l-5.09,4.07-5.09-4.07v-12.08c0-2.74-2.81-4.59-5.32-3.51l-3.82,1.64c-1.41.6-2.32,1.98-2.32,3.51v16.37c0,1.02.4,1.98,1.12,2.7l6.52,6.52v25.16c0,1.02.4,1.98,1.12,2.7l2.33,2.33c.72.72,1.68,1.12,2.7,1.12h5.53c1.02,0,1.98-.4,2.7-1.12l2.33-2.33c.72-.72,1.12-1.68,1.12-2.7v-25.16l6.52-6.52c.72-.72,1.12-1.68,1.12-2.7v-16.37c0-1.53-.91-2.91-2.32-3.51Zm-.23,19.88c0,.33-.14.66-.37.9l-6.89,6.89c-.24.24-.37.56-.37.9v25.69c0,.33-.14.66-.37.9l-2.33,2.33c-.24.24-.56.37-.9.37h-5.53c-.34,0-.66-.13-.9-.37l-2.33-2.33c-.24-.24-.37-.57-.37-.9v-25.69c0-.34-.13-.66-.37-.9l-6.89-6.89c-.24-.24-.37-.57-.37-.9v-16.37c0-.51.3-.97.77-1.17l3.82-1.64c.85-.36,1.77.26,1.77,1.17v12.69c0,.39.18.75.48.99l6.37,5.09c.47.37,1.13.37,1.59,0l6.37-5.09c.3-.24.48-.61.48-.99v-12.69c0-.9.92-1.53,1.77-1.17l3.82,1.64c.47.2.77.66.77,1.17v16.37Z"></path><path class="cls-2" d="m73.16,48.44v-2.02h1.27c.7,0,1.27-.57,1.27-1.27s-.57-1.27-1.27-1.27h-6.37v-14.89l2.33-3.5c.2-.3.26-.67.18-1.01l-2.55-10.19c-.14-.57-.65-.96-1.24-.96h-5.09c-.58,0-1.09.4-1.24.96l-2.55,10.19c-.09.35-.02.72.18,1.01l2.33,3.5v14.89h-6.37c-.7,0-1.27.57-1.27,1.27s.57,1.27,1.27,1.27h1.27v2.02l-2.7,2.7c-.72.72-1.12,1.68-1.12,2.7v16.99c0,1.02.4,1.98,1.12,2.7l2.33,2.33c.72.72,1.68,1.12,2.7,1.12h13.17c1.02,0,1.98-.4,2.7-1.12l2.33-2.33c.72-.72,1.12-1.68,1.12-2.7v-16.99c0-1.02-.4-1.98-1.12-2.7l-2.7-2.7Zm-10.4-20.55l-2.23-3.35,2.17-8.68h3.1l2.17,8.68-2.23,3.35c-.14.21-.21.46-.21.71v15.28h-2.55v-15.28c0-.25-.07-.5-.21-.71Zm11.67,42.95c0,.33-.14.66-.37.9l-2.33,2.33c-.24.24-.56.37-.9.37h-13.17c-.34,0-.66-.13-.9-.37l-2.33-2.33c-.24-.24-.37-.57-.37-.9v-16.99c0-.33.14-.66.37-.9l3.07-3.07c.24-.24.37-.56.37-.9v-2.55h12.73v2.55c0,.34.13.66.37.9l3.07,3.07c.24.24.37.57.37.9v16.99Z"></path><path class="cls-3" d="m29.86,62.97c-.7,0-1.27.57-1.27,1.27v3.82c0,.7.57,1.27,1.27,1.27s1.27-.57,1.27-1.27v-3.82c0-.7-.57-1.27-1.27-1.27Z"></path><path class="cls-2" d="m60.42,55.33c-.7,0-1.27.57-1.27,1.27v11.46c0,.7.57,1.27,1.27,1.27s1.27-.57,1.27-1.27v-11.46c0-.7-.57-1.27-1.27-1.27Z"></path><path class="cls-2" d="m68.06,55.33c-.7,0-1.27.57-1.27,1.27v11.46c0,.7.57,1.27,1.27,1.27s1.27-.57,1.27-1.27v-11.46c0-.7-.57-1.27-1.27-1.27Z"></path></g><rect class="cls-1" width="90.29" height="90.29"></rect></g></g></svg>