<?xml version="1.0" encoding="UTF-8"?> <svg xmlns="http://www.w3.org/2000/svg" xmlns:xlink="http://www.w3.org/1999/xlink" id="Layer_2" data-name="Layer 2" viewBox="0 0 170.02 51.65"><defs><style> .cls-1 { fill: none; } .cls-2 { clip-path: url(#clippath); } .cls-3 { fill: #002e6e; } .cls-4 { fill: url(#New_Gradient_Swatch_1); } </style><clipPath id="clippath"><path class="cls-1" d="m21.96,48c.07.13.41.34,1.01.52.24.07.42.11.56.14.34.05.44.07.73.11-.2-.04-.34-.11-.64-.29-.38-.22-.52-.3-.82-.43-.27-.11-.47-.16-.61-.18-.23-.03-.28.05-.23.12m2.7.37s0,.04.01.06c.21.7,1.5.31,1.73-.11.12-.22-.02-.37-.09-.44-.15-.11-.33-.17-.51-.19-.59-.07-1.21.28-1.14.69m-6.94-2.3c.05.21.49.63,1.36,1.11.98.53,2.18.93,2.36.9,0,0,0-.02,0-.03-.03-.04-1.38-1.18-2.61-1.83-.42-.21-.69-.29-.85-.31-.3-.04-.27.13-.27.16m10.44,2.19c-.72.45-.65.48-.59.5.3.1,3.36-.43,3.49-1.23-.02-.1-.13-.16-.3-.19-.48-.06-1.46.21-2.6.92m-6.78-1.82c.05.15.14.31.27.47.79.98,2.44,1.5,2.54.33.02-.28-.05-.81-.84-1.33-.34-.19-.66-.29-.94-.33-.74-.09-1.21.28-1.03.86m14.31.23c-.57.08-1.45.45-3.21,1.2-.49.21-1.04.3-1.48.63.14.14,3.83-.7,4.88-1.65.04-.05.14-.17-.02-.19-.04,0-.1,0-.18,0m-9.03-.05c-.25,1.14.98,1.45,2.35.59.15-.09,1.43-.93.75-1.74-.21-.18-.47-.28-.75-.31-.95-.12-2.14.52-2.35,1.46m-13.84-3.35c.09.29.6.89,1.54,1.59,1.21.91,2.76,1.67,2.7,1.4-.04-.18-1.7-1.86-3.14-2.8-.47-.29-.74-.39-.9-.41-.26-.03-.21.17-.19.23m3.66.13c.05.21.18.55.55,1,1.01,1.22,3.01,2.22,3.11,1.03.04-.44-.25-1.52-1.62-2.45-.45-.27-.84-.4-1.14-.44-.7-.09-1.01.33-.89.86m16.22,2.69c-.18.19-1.04,1.15-.22,1.16,1.08.02,4.07-1.48,3.94-2.56-.07-.17-.23-.26-.44-.28-.77-.09-2.28.62-3.28,1.68m-9.91-2.1c.42,1.68,2.9,2.36,3.84.62.19-.35.52-1.27-.54-2.12-.39-.25-.8-.39-1.18-.44-1.32-.16-2.41.78-2.12,1.93m-14.47-4.47c.04.29.62,1.16,1.63,2.19,1.06,1.09,2.25,2,2.39,1.9.02-.25-2.11-2.71-3.21-3.72-.36-.31-.61-.48-.72-.49-.07,0-.1.03-.08.12m33.02,3.77c-.64.26-1.73.97-2.92,1.9-1.55,1.21-1.33,1.24-1.25,1.25.46.07,3.86-1.7,4.67-2.99.07-.16.05-.25-.06-.27-.09-.01-.24.02-.44.11m-30.16-3.71c.07.41.32.93.7,1.44,1.04,1.43,3.04,2.78,3.18,1.6.07-.57-.46-2.15-2.03-3.39-.48-.34-.86-.5-1.15-.53-.58-.07-.78.38-.7.88m19.31,3.85c-.41,1.37.75,2.22,2.55,1.24,1.07-.58,2.28-1.92,1.48-2.95-.26-.24-.56-.36-.9-.4-1.22-.15-2.77.88-3.14,2.12m-13.23-3.39c.03.13.08.31.13.44.76,1.94,3.45,2.98,4.28,1.2.08-.16.69-1.64-1.14-3.01-.5-.32-.98-.49-1.41-.54-1.26-.15-2.11.7-1.86,1.92m20.86,2.45c-.64.98-.75,1.9.31,1.66,1.41-.31,3.86-2.41,3.6-3.68-.1-.22-.28-.33-.51-.36-.89-.11-2.53,1.05-3.4,2.37m-12.1-2.58c.05,2.02,2.75,3.05,4.42,1.13.55-.62,1.14-1.98-.1-3.1-.41-.29-.84-.45-1.27-.5-1.56-.19-3.09,1.01-3.05,2.47m-19.5-5c.01.52.28,1.3.71,2.08.92,1.65,2.44,3.02,2.63,2.12.13-.6-.53-2.72-1.95-4.24-.43-.41-.72-.57-.93-.59-.47-.06-.46.6-.46.64m40.2,3.46c-.45.2-1.57,1.33-2.64,2.68-.35.43-1.45,1.84-1.03,1.75.53-.12,3.11-2.64,3.81-4.14.04-.11.11-.3,0-.32-.03,0-.08,0-.14.03m-35.22-2.87c.03.22.11.53.2.76.76,2.05,3.15,3.41,3.98,1.8.39-.75.39-2.47-1.25-3.91-.49-.37-.95-.56-1.36-.61-1.06-.13-1.73.71-1.56,1.95m23.86,3.53c-.49,1.85.97,2.74,2.73,1.67,1.3-.78,2.54-2.65,1.62-3.91-.28-.27-.6-.42-.95-.46-1.33-.16-2.98,1.14-3.4,2.7m-15.44-3.41c.41,2.55,3.89,3.5,5.25,1.42.47-.72.83-2.28-.78-3.59-.54-.36-1.09-.56-1.6-.62-1.74-.21-3.13,1.1-2.87,2.79M3.58,29.58c-.09.42.15,1.63.58,2.89.58,1.69,1.32,2.98,1.49,2.6.18-.41-.53-3.27-1.44-5.02-.1-.17-.34-.6-.5-.62-.06,0-.11.04-.13.16m39.89,8.05c-.66,1.56-.36,2.48.66,2.02,1.25-.57,3.14-3.1,2.78-4.59-.11-.25-.28-.38-.49-.4-.83-.1-2.26,1.35-2.95,2.98m-12.98-2.83c-.1,2.35,2.59,3.38,4.42,1.7.96-.88,1.69-2.74.29-4.1-.42-.32-.88-.5-1.33-.56-1.66-.2-3.31,1.22-3.38,2.96m-23.85-4.42c0,.36.06.73.16,1.12.57,2.24,2.31,3.54,3.09,2.33.56-.86.49-3.06-.88-4.69-.4-.41-.78-.61-1.11-.65-.78-.1-1.29.71-1.27,1.89m7.11.34c.37,2.58,3.21,3.83,4.67,2.05.69-.84,1.14-2.79-.62-4.42-.51-.39-1.01-.59-1.49-.65-1.58-.19-2.82,1.23-2.56,3.03m26.64,2.82c-.35,2.11,1.05,3.19,2.66,2.07,1.26-.87,2.43-3.23,1.33-4.78-.28-.3-.6-.45-.93-.49-1.28-.16-2.75,1.4-3.05,3.2m-16.23-3.6c.12,2.67,3.35,3.9,5.23,2,.94-.95,1.48-2.98-.24-4.52-.51-.37-1.05-.57-1.57-.64-1.84-.23-3.5,1.28-3.42,3.15M3.82,24.16c-.08.29-.26,1.09-.17,2.27.17,2.14,1.05,3.57,1.69,2.72.57-.75.76-3.42-.07-5.3-.24-.45-.47-.64-.67-.67-.38-.05-.66.52-.79.98m4.86.99c0,.09,0,.21,0,.3.06,2.45,2.03,3.92,3.45,2.57,1.09-1.04,1.37-3.48.11-5.09-.4-.42-.82-.63-1.22-.68-1.2-.15-2.25,1.15-2.33,2.89m26.62,3.67c-.03,2.58,2.47,3.79,4.26,2.04,1.21-1.18,1.55-3.4.14-4.83-.4-.33-.83-.5-1.25-.55-1.61-.2-3.13,1.42-3.15,3.34m-17.67-4.24c0,2.82,3.23,4.2,5.14,2.2.95-.99,1.49-3.1-.27-4.69-.53-.39-1.07-.6-1.59-.66-1.76-.22-3.29,1.25-3.28,3.15m-14.71-2.26s0-.03,0-.05c0,.08-.01.16-.02.24l.02-.19Zm.45-2.91c-.06.32-.12.68-.18,1.05.06-.37.12-.73.18-1.05-.12.57-.23,1.18-.32,1.83-.04.27-.07.53-.1.79-.01.1-.02.2-.03.3l-.02.19c0,.09-.02.18-.02.27-.09,1.3.01,1.42.06,1.47.39-.16.98-3.97,1.02-5.62,0-.38-.02-.53-.09-.61-.08.03-.21.08-.5,1.39m25.63,4.23c.08,2.67,3.07,4.02,4.92,2.23,1.06-1.02,1.56-3.27-.23-4.82-.48-.34-.97-.52-1.45-.58-1.76-.22-3.3,1.3-3.24,3.17m-23.27-4.14c-.05.17-.1.41-.13.59-.36,2.19.59,3.69,1.77,2.81,1.03-.76,1.98-3.4,1.2-5.22-.23-.41-.5-.6-.78-.64-.8-.1-1.7,1.1-2.07,2.45m6.8-.26c-.35,2.44,1.76,3.9,3.63,2.52,1.39-1.02,2-3.3.72-4.82-.41-.39-.84-.59-1.28-.65-1.45-.18-2.85,1.34-3.08,2.95m10-.76c-.1,2.51,2.98,3.92,4.93,2.25,1.26-1.08,1.53-3.16-.07-4.55-.47-.33-.96-.51-1.44-.57-1.73-.21-3.35,1.15-3.42,2.87m-15.98-5.78c-.49.49-1.07,1.45-1.48,2.45-.68,1.66-.74,2.99-.13,2.77.79-.27,2.33-3.21,2.43-5,0-.39-.11-.54-.25-.56-.16-.02-.38.14-.57.33m3.04,1.6c-.74,1.97.23,3.36,1.79,2.58,1.45-.73,2.68-3.11,2.02-4.65-.21-.35-.5-.53-.81-.57-1.04-.13-2.46,1.23-2.99,2.65m7.92-.67c-.53,2.16,1.63,3.53,3.62,2.28,1.43-.9,2.1-2.93.86-4.3-.36-.32-.76-.48-1.16-.53-1.44-.18-2.97,1.15-3.32,2.56m-8.53-5.21c-1.48,1.8-1.71,2.07-2.28,2.99-.32.54-.77,1.26-1.06,1.82,0,.01-.01.03-.02.04q.09-.07,3.12-4.45c.19-.27.24-.35.28-.43-.01,0-.03.02-.05.03m1.12.43c-.32.32-.67.73-.93,1.09-1,1.42-1.11,2.6-.22,2.43,1.2-.23,3.26-2.77,3.45-4.24,0-.32-.12-.46-.31-.48-.5-.06-1.47.69-1.99,1.21m4.71.46c-.9,1.57-.13,2.79,1.45,2.31,1.73-.53,3.12-2.72,2.56-4.02-.18-.28-.43-.42-.73-.46-1.04-.13-2.6,1-3.28,2.18m-3.6-3.01c-1.27,1.11-1.94,2.04-1.6,2.01.55-.04,3.4-2.61,4.24-3.52.17-.2.21-.27.21-.34,0,0-.02-.01-.04-.01-.28-.03-1.57.78-2.8,1.86m3.82-.95c-.13.1-.29.24-.41.35-1.21,1.12-1.27,1.99-.52,1.98,1.28,0,3.73-2.17,4.08-3.35.03-.23-.07-.34-.27-.36-.6-.07-2.04.7-2.89,1.38m1.74-2.4c-1.34.71-2.09,1.4-1.77,1.48.66.15,4.89-2.42,4.93-2.45.17-.12.19-.14.22-.19-.01-.01-.04-.02-.07-.02-.38-.05-2.02.51-3.32,1.19"></path></clipPath><radialGradient id="New_Gradient_Swatch_1" data-name="New Gradient Swatch 1" cx="548.3" cy="1001.55" fx="548.3" fy="1001.55" r=".38" gradientTransform="translate(-60029.84 -32851.27) rotate(90) scale(59.96 -59.96)" gradientUnits="userSpaceOnUse"><stop offset="0" stop-color="#44aed2"></stop><stop offset="1" stop-color="#2f266f"></stop></radialGradient></defs><g id="Layer_1-2" data-name="Layer 1"><g><g><g><path class="cls-3" d="m50.69,14.63v7.91c0,6.69,6.87,6.33,6.87,6.33h31.53v-6.25s-29.6,0-29.6,0c-1.98,0-2.02-1.84-2.02-1.84v-2.29h31.49v-3.86,1.23-3.86h-31.49v-2.29s.04-1.84,2.02-1.84h29.6V1.63h-31.53s-6.87-.36-6.87,6.33v7.9-1.23Z"></path><path class="cls-3" d="m97.84,28.87v-10.38h31.49v-3.86,1.23-3.86h-31.49v-2.29s.05-1.84,2.02-1.84h29.6V1.63h-31.53s-6.87-.36-6.87,6.33v7.9-1.23,14.25l6.78-.02Z"></path><path class="cls-3" d="m170.01,18.27l.02,4.56c0,6.32-7.24,6.04-7.24,6.04h-31.15v-6.37h30.33c1.57,0,1.42-1.1,1.42-1.1v-1.81c0-1.32-1.44-1.2-1.44-1.2h-23.44s-7.87.51-7.87-5.89v-4.13c0-6.99,6.84-6.73,6.84-6.73h31.59v6.24s-30.25,0-30.25,0c-1.69,0-1.43,1.45-1.43,1.45v1.38s-.26,1.35,1.54,1.35h24.33s6.7-.23,6.76,6.22"></path></g><g class="cls-2"><rect class="cls-4" x="2.33" y="2.94" width="46.41" height="45.76" transform="translate(-3.21 48.02) rotate(-83)"></rect></g></g><g><path class="cls-3" d="m69.07,35.9v3.01h-14.27c-.5,0-.74.16-.74.47v1c0,.31.25.47.74.47h10.79c2.59,0,3.88,1.03,3.88,3.09v1.76c0,2.09-1.3,3.13-3.89,3.13h-14.27v-3.01h14.27c.48,0,.73-.15.73-.45v-1.05c0-.31-.24-.47-.73-.47h-10.79c-2.6,0-3.89-.92-3.89-2.76v-2.04c0-2.1,1.3-3.15,3.91-3.15h14.27Z"></path><path class="cls-3" d="m80.33,48.83c-3.24,0-4.86-1.37-4.86-4.1v-4.7c0-2.75,1.62-4.12,4.86-4.12h9.99c3.24,0,4.86,1.37,4.86,4.12v4.7c0,2.74-1.62,4.1-4.86,4.1h-9.99Zm0-9.92c-1.13,0-1.7.37-1.7,1.11v4.7c0,.73.57,1.1,1.7,1.1h9.99c1.13,0,1.7-.37,1.7-1.1v-4.7c0-.74-.57-1.11-1.7-1.11h-9.99Z"></path><path class="cls-3" d="m105.12,48.83c-2.6,0-3.89-1.04-3.89-3.13v-9.79h3.17v9.31c0,.41.24.61.73.61h14.09v3.01h-14.09Z"></path><path class="cls-3" d="m139.68,46.29h-10.49l-1.42,2.54h-3.65l6.77-11.83c.1-.18.2-.34.3-.48.1-.13.22-.25.36-.34.14-.09.31-.16.5-.21s.44-.07.73-.07h3.26c.89,0,1.55.36,1.97,1.08l6.75,11.84h-3.64l-1.45-2.54Zm-8.95-2.84h7.4l-2.25-3.94c-.12-.22-.25-.37-.4-.46-.15-.09-.29-.14-.44-.14h-1.24c-.34,0-.63.2-.86.61l-2.21,3.93Z"></path><path class="cls-3" d="m150,35.9h15.56c2.49,0,3.73,1.05,3.73,3.15v1.16c0,2.19-1.24,3.28-3.73,3.28h-1.08l5.35,5.33h-4.36l-5.02-5.17h-7.28v5.17h-3.17v-12.93Zm3.17,3.01v2.07h12.49c.42,0,.63-.17.63-.52v-1.04c0-.34-.24-.5-.73-.5h-12.39Z"></path></g></g></g></svg> 