<svg xmlns="http://www.w3.org/2000/svg" id="b" viewBox="0 0 173.35 85.5"><defs><style>.d{fill:none;}.e{fill:#fff;}.e,.f,.g{fill-rule:evenodd;}.h,.f{fill:gray;}.g{fill:#a50452;}</style></defs><g id="c"><path class="g" d="M33.22,60.48c9.79,0,17.73-7.94,17.73-17.73s-7.94-17.73-17.73-17.73-17.73,7.94-17.73,17.73,7.94,17.73,17.73,17.73h0Z"></path><polygon class="e" points="37.54 48.99 33.87 48.99 33.87 35.11 32.51 35.11 32.51 50.36 33.87 50.36 33.87 50.35 37.54 50.35 37.54 48.99 37.54 48.99"></polygon><path class="e" d="M46.7,43.32h-9.14v-1.36h10.48c.01.26.02.53.02.79,0,8.2-6.64,14.84-14.84,14.84s-14.84-6.64-14.84-14.84,6.65-14.84,14.84-14.84c.22,0,.43,0,.65.01v1.35c-.22,0-.43-.01-.65-.01-7.45,0-13.49,6.04-13.49,13.49s6.04,13.49,13.49,13.49,13.16-5.72,13.48-12.88v-.04h0Z"></path><path class="e" d="M27.69,39.22c1.15,0,2.09-.93,2.09-2.09s-.93-2.09-2.09-2.09-2.09.93-2.09,2.09.93,2.09,2.09,2.09h0Z"></path><polygon class="f" points="59.76 51.45 72.43 51.45 72.43 47.63 64.78 47.63 64.41 47.63 64.41 47.26 64.41 33.93 59.76 33.93 59.76 51.45 59.76 51.45"></polygon><path class="f" d="M87.73,35.16c-1.45-1.13-3.32-1.7-5.55-1.7-2.65,0-4.86.81-6.4,2.35-1.61,1.61-2.46,3.98-2.46,6.85,0,3.07.9,5.66,2.53,7.29,1.28,1.28,2.99,1.96,4.94,1.96,4.29,0,5.28-2.57,5.28-2.57v2.11h3.87v-9.9h-7.71v3.1h3.55s.03,3.9-3.63,3.9c-.93,0-1.76-.34-2.4-.98-.99-.99-1.52-2.67-1.52-4.84,0-3.59,1.43-5.74,3.82-5.74,1.49,0,2.62.92,2.9,2.31h4.93c-.26-2.02-.81-3.07-2.16-4.15h0Z"></path><path class="h" d="M99.2,36.12c1.32-1.35,3.01-2.03,5.05-2.03,2.73,0,4.73.91,6,2.72.7,1.02,1.07,2.04,1.12,3.06h-3.43c-.22-.79-.5-1.38-.84-1.78-.61-.71-1.52-1.07-2.72-1.07s-2.19.5-2.89,1.51c-.71,1.01-1.06,2.43-1.06,4.27s.37,3.22,1.12,4.14c.74.92,1.69,1.38,2.84,1.38s2.07-.39,2.69-1.18c.34-.42.62-1.06.85-1.91h3.41c-.29,1.79-1.05,3.25-2.25,4.37-1.21,1.12-2.76,1.68-4.65,1.68-2.34,0-4.17-.76-5.51-2.27-1.34-1.52-2.01-3.61-2.01-6.26,0-2.87.76-5.08,2.28-6.63Z"></path><path class="h" d="M122.58,38.75c.61.26,1.11.66,1.5,1.19.33.45.54.92.61,1.4.07.48.11,1.26.11,2.35v7.14h-3.24v-7.4c0-.65-.11-1.18-.33-1.58-.29-.57-.83-.85-1.64-.85s-1.47.28-1.9.84c-.43.56-.65,1.36-.65,2.4v6.58h-3.18v-16.37h3.18v5.79c.46-.71.99-1.2,1.59-1.48.6-.28,1.24-.42,1.9-.42.75,0,1.43.13,2.04.39Z"></path><path class="h" d="M135.7,38.93c.85.38,1.55.98,2.1,1.8.5.72.82,1.56.97,2.51.09.56.12,1.36.1,2.41h-8.85c.05,1.22.47,2.07,1.27,2.56.48.31,1.07.46,1.75.46.72,0,1.31-.19,1.76-.56.25-.2.46-.48.65-.84h3.24c-.09.72-.48,1.45-1.18,2.2-1.09,1.18-2.61,1.77-4.57,1.77-1.62,0-3.04-.5-4.28-1.49-1.24-1-1.85-2.62-1.85-4.86,0-2.1.56-3.72,1.67-4.84,1.12-1.12,2.56-1.68,4.34-1.68,1.06,0,2.01.19,2.86.57ZM130.95,41.67c-.45.46-.73,1.09-.85,1.88h5.47c-.06-.84-.34-1.48-.85-1.92-.51-.44-1.13-.65-1.88-.65-.82,0-1.45.23-1.9.69Z"></path><path class="h" d="M155.63,38.73c.52.21.99.57,1.42,1.09.34.42.57.94.69,1.56.07.41.11,1.01.11,1.79l-.02,7.65h-3.25v-7.73c0-.46-.07-.84-.22-1.14-.28-.56-.8-.85-1.56-.85-.88,0-1.48.36-1.82,1.09-.17.39-.26.85-.26,1.39v7.23h-3.2v-7.23c0-.72-.07-1.24-.22-1.57-.27-.59-.79-.88-1.57-.88-.91,0-1.52.29-1.83.88-.17.33-.26.83-.26,1.49v7.31h-3.22v-12.12h3.09v1.77c.39-.63.77-1.08,1.11-1.35.62-.48,1.42-.71,2.4-.71.93,0,1.68.2,2.25.61.46.38.81.87,1.05,1.46.42-.71.93-1.24,1.55-1.57.65-.33,1.38-.5,2.18-.5.53,0,1.06.1,1.58.31Z"></path><rect class="d" width="173.35" height="85.5"></rect></g></svg>